<?xml version="1.0" encoding="UTF-8"?>
<!DOCTYPE svg PUBLIC "-//W3C//DTD SVG 1.1//EN" "http://www.w3.org/Graphics/SVG/1.1/DTD/svg11.dtd">
<!-- Creator: CorelDRAW X8 -->
<svg xmlns="http://www.w3.org/2000/svg" xml:space="preserve" width="2in" height="0.5in" version="1.1" style="shape-rendering:geometricPrecision; text-rendering:geometricPrecision; image-rendering:optimizeQuality; fill-rule:evenodd; clip-rule:evenodd"
viewBox="0 0 2000 500"
 xmlns:xlink="http://www.w3.org/1999/xlink">
 <defs>
  <style type="text/css">
   <![CDATA[
    .fil0 {fill:#373435;fill-rule:nonzero}
   ]]>
  </style>
 </defs>
 <g id="Layer_x0020_1">
  <metadata id="CorelCorpID_0Corel-Layer"/>
  <path class="fil0" d="M651 472c11,0 21,-3 30,-9 9,-6 14,-19 16,-38 0,-2 0,-5 0,-8 0,-16 -5,-32 -16,-49 -10,-17 -26,-27 -47,-30 -6,-1 -12,-1 -18,-1 -14,0 -31,3 -48,10 -18,6 -42,18 -72,35 -24,13 -49,26 -76,38 -26,13 -53,22 -81,28 -14,3 -29,5 -43,5 -13,0 -26,-2 -40,-4 -40,-10 -70,-28 -91,-54 -21,-26 -32,-56 -34,-89 -1,-4 -1,-8 -1,-12 0,-29 7,-56 21,-84 14,-28 37,-50 68,-67 9,-4 19,-8 30,-11 16,-4 31,-6 46,-6 10,0 20,1 30,3l31 -96 14 0 90 267c5,9 12,15 23,17l-67 0c8,-3 12,-6 12,-10 0,0 -1,-1 -1,-1 -12,-37 -25,-74 -38,-111 -4,-14 -9,-29 -14,-43 -13,-7 -29,-13 -47,-17l-51 159c-1,4 -2,7 -2,11 0,6 3,10 8,12l-32 0c11,-4 18,-12 22,-23l50 -161c-9,-1 -18,-2 -28,-2 -14,0 -29,2 -45,5 -11,3 -20,7 -29,11 -30,16 -52,37 -66,63 -11,21 -16,43 -16,66 0,5 1,16 2,33 2,17 14,36 34,59 21,22 50,38 88,47 12,3 25,4 39,4 10,0 24,-1 42,-4 19,-3 44,-12 76,-29 32,-16 61,-30 86,-42 26,-11 51,-19 76,-24 10,-2 19,-3 28,-3 14,0 30,3 46,9 17,6 31,20 41,43 6,15 9,29 9,42 0,9 -2,21 -7,37 -4,15 -20,23 -48,24zm-303 -400l-18 58c16,4 30,9 43,16l-25 -74zm130 245c8,-3 13,-11 16,-23l0 -237c-3,-13 -8,-21 -16,-24l111 0c24,0 42,6 54,18 12,12 19,31 19,58 0,18 -5,32 -14,42 -10,9 -22,16 -37,19 13,2 25,6 36,13 11,6 20,15 26,26 7,11 10,25 10,41 0,11 -3,22 -9,30 -6,9 -13,16 -23,21 -9,6 -19,10 -30,12 -10,3 -21,4 -30,4l-113 0zm50 -280l0 131 63 0c10,0 18,-5 24,-13 6,-9 11,-20 13,-33 1,-7 1,-13 1,-20 0,-6 0,-14 -2,-24 -2,-10 -6,-19 -12,-28 -7,-9 -15,-13 -26,-13l-61 0zm0 135l0 141 63 0c12,0 24,-6 37,-19 14,-13 21,-28 23,-45 0,-19 -7,-37 -20,-53 -14,-16 -28,-24 -42,-24l-61 0zm278 -139c21,0 40,7 57,20 17,12 31,29 41,51 11,22 16,45 16,72 0,26 -5,50 -16,71 -10,22 -24,39 -41,52 -17,12 -36,19 -57,19 -21,0 -40,-7 -58,-19 -17,-13 -31,-30 -41,-52 -10,-21 -15,-45 -15,-71 0,-27 5,-50 15,-72 10,-22 24,-39 41,-51 18,-13 37,-20 58,-20zm0 274c15,0 29,-6 42,-18 12,-11 22,-27 29,-47 8,-20 12,-42 12,-66 0,-24 -4,-47 -12,-66 -7,-20 -17,-36 -29,-48 -13,-12 -27,-18 -42,-18 -15,0 -29,6 -42,18 -12,12 -22,28 -30,48 -7,19 -11,42 -11,66 0,24 4,46 11,66 8,20 18,36 30,47 13,12 27,18 42,18zm-16 -129c8,-3 13,-12 16,-24 2,12 7,21 16,24 -9,4 -14,12 -16,24 -3,-12 -8,-20 -16,-24zm188 -145c-8,3 -13,11 -15,23l0 186c0,16 3,28 10,39 7,10 15,17 26,22 9,5 20,7 31,7 1,0 4,0 10,0 6,0 14,-3 25,-8 10,-5 19,-13 25,-23 6,-10 10,-23 10,-38l0 -184c-3,-13 -8,-21 -16,-24l42 0c-8,3 -13,11 -16,24l0 183c0,17 -4,32 -13,43 -9,11 -20,20 -34,25 -14,6 -28,9 -44,9 -15,0 -30,-3 -44,-9 -13,-5 -25,-14 -34,-25 -8,-12 -13,-26 -13,-43l0 -184c-2,-12 -7,-20 -15,-23l65 0zm148 24l0 -24 203 0 0 24c-1,-12 -4,-19 -9,-20l-77 0 0 258c2,11 7,19 15,22l-65 0c8,-3 13,-11 15,-23l0 -257 -72 0c-5,2 -8,9 -10,20zm385 -24c-8,3 -13,11 -15,23l0 186c0,16 3,28 10,39 6,10 15,17 25,22 10,5 21,7 32,7 1,0 4,0 10,0 6,0 14,-3 25,-8 10,-5 18,-13 25,-23 6,-10 10,-23 10,-38l0 -184c-3,-13 -8,-21 -16,-24l42 0c-8,3 -13,11 -16,24l0 183c0,17 -4,32 -13,43 -9,11 -20,20 -34,25 -14,6 -28,9 -44,9 -15,0 -30,-3 -44,-9 -14,-5 -25,-14 -34,-25 -8,-12 -13,-26 -13,-43l0 -184c-2,-12 -8,-20 -16,-23l66 0zm102 240c4,37 15,65 33,83 18,19 38,30 62,34 6,0 12,1 18,1 17,0 34,-4 52,-12 18,-8 32,-21 43,-40 6,-10 9,-22 9,-35 0,-10 -2,-20 -5,-31 -7,-19 -17,-36 -30,-50 -13,-14 -28,-26 -44,-37 -41,-24 -66,-47 -75,-69 -4,-9 -6,-17 -6,-25 0,-11 5,-22 14,-34 10,-12 25,-21 46,-26 10,-3 20,-4 29,-4 11,0 25,2 40,8 15,5 26,19 34,41 3,8 8,14 15,16l-17 0 -17 1c4,-2 7,-5 9,-10 2,-2 2,-4 2,-6 0,-2 0,-4 -1,-6l0 -1c-8,-16 -20,-27 -35,-33 -9,-4 -19,-6 -28,-6 -5,0 -13,1 -22,4 -10,2 -19,8 -26,18 -3,5 -5,10 -5,17 0,6 3,15 8,26 5,12 22,27 50,46 23,14 45,33 65,55 19,22 32,47 37,75 1,7 2,13 2,19 0,21 -7,41 -19,60 -13,20 -31,35 -56,46 -19,9 -38,13 -57,13 -6,0 -18,-1 -34,-3 -16,-2 -34,-14 -54,-36 -19,-21 -32,-54 -37,-99l0 0z"/>
 </g>
</svg>
