<?xml version="1.0" encoding="UTF-8"?>
<!DOCTYPE svg PUBLIC "-//W3C//DTD SVG 1.1//EN" "http://www.w3.org/Graphics/SVG/1.1/DTD/svg11.dtd">
<!-- Creator: CorelDRAW X8 -->
<svg xmlns="http://www.w3.org/2000/svg" xml:space="preserve" width="1.25in" height="0.5in" version="1.1" style="shape-rendering:geometricPrecision; text-rendering:geometricPrecision; image-rendering:optimizeQuality; fill-rule:evenodd; clip-rule:evenodd"
viewBox="0 0 1250 500"
 xmlns:xlink="http://www.w3.org/1999/xlink">
 <defs>
  <style type="text/css">
   <![CDATA[
    .fil0 {fill:#373435;fill-rule:nonzero}
   ]]>
  </style>
 </defs>
 <g id="Layer_x0020_1">
  <metadata id="CorelCorpID_0Corel-Layer"/>
  <path class="fil0" d="M133 203c1,-25 6,-48 17,-69 11,-21 25,-39 44,-51 18,-13 39,-20 61,-20 18,0 34,5 50,13 2,1 3,1 4,1 1,0 2,0 3,-1 1,0 2,-1 2,-3 1,-2 2,-5 2,-10l0 54c-3,-17 -7,-28 -13,-33 -11,-6 -23,-10 -36,-10 -18,0 -34,6 -48,18 -15,12 -27,28 -35,47 -8,20 -13,42 -13,67 0,24 5,46 13,65 8,20 20,36 35,48 14,12 30,18 48,18 13,0 25,-4 36,-10 6,-5 10,-16 13,-33l0 54c0,-5 -1,-8 -2,-10 -1,-3 -2,-4 -5,-4 -1,0 -2,0 -4,1 -16,8 -32,13 -50,13 -22,0 -43,-7 -61,-20 -19,-12 -33,-30 -44,-51 -11,-20 -16,-43 -17,-69l0 -5zm108 3c8,-4 13,-12 16,-25 2,13 7,21 15,25 -8,3 -13,11 -15,24 -3,-13 -8,-21 -16,-24zm100 132l0 0c0,4 3,8 9,10l-32 0c7,-3 12,-6 15,-10 3,-4 33,-96 90,-275l14 0 92 268c3,6 6,9 10,12 4,2 8,3 12,5l-69 0c8,-4 12,-7 12,-10 0,-1 0,-1 0,-2l-15 -45 -124 0c-9,27 -14,43 -14,47zm74 -236c-25,81 -45,143 -58,185l120 0 -62 -185zm133 246c8,-3 13,-11 15,-24l0 -237c-2,-12 -7,-20 -15,-24l65 0c-8,4 -13,12 -15,24l0 113 118 -122c3,-4 5,-7 5,-9 0,-1 0,-2 -1,-3 -1,-1 -3,-2 -6,-3l35 0c-4,2 -7,3 -10,4 -3,1 -6,3 -9,4 -2,2 -6,4 -10,8 -22,23 -44,46 -66,69 -11,11 -22,22 -32,33l117 148c13,10 23,16 31,19 0,0 0,0 0,0l-68 0c3,-1 5,-2 6,-4l-110 -138 0 119c2,12 7,20 15,23l-65 0zm216 0c8,-3 13,-11 15,-24l0 -237c-2,-12 -7,-20 -15,-24l149 0 0 28c-3,-12 -8,-20 -16,-24l-83 0 0 131 53 0c8,-3 14,-11 16,-24l0 53c-3,-13 -8,-21 -16,-25l-53 0 0 141 90 0c4,-4 7,-11 8,-19l0 24 -148 0zm96 -44c4,36 15,64 33,83 17,19 38,30 61,33 7,1 13,1 19,1 17,0 34,-4 52,-11 18,-8 32,-22 43,-40 6,-11 8,-23 8,-35 0,-10 -1,-21 -5,-32 -6,-19 -16,-35 -29,-49 -13,-15 -28,-27 -45,-37 -40,-25 -65,-48 -74,-69 -4,-9 -6,-18 -6,-26 0,-11 5,-22 14,-34 10,-11 25,-20 46,-26 10,-2 19,-4 29,-4 11,0 25,3 40,8 15,6 26,19 33,42 4,8 9,13 15,16l-17 0 -16 0c4,-2 7,-5 9,-9 2,-2 2,-4 2,-7 0,-2 0,-4 -1,-6l0 0c-8,-16 -20,-28 -35,-33 -10,-4 -19,-6 -28,-6 -5,0 -13,1 -23,3 -9,2 -18,8 -25,18 -3,5 -5,11 -5,17 0,7 3,15 8,27 5,11 22,26 50,45 23,15 45,33 65,56 19,22 32,47 37,75 1,6 2,12 2,18 0,21 -7,41 -19,61 -13,19 -32,35 -56,46 -19,8 -38,13 -57,13 -6,0 -18,-1 -34,-3 -16,-3 -34,-14 -54,-36 -20,-22 -32,-55 -37,-99l0 0z"/>
 </g>
</svg>
