<?xml version="1.0" encoding="UTF-8"?>
<!DOCTYPE svg PUBLIC "-//W3C//DTD SVG 1.1//EN" "http://www.w3.org/Graphics/SVG/1.1/DTD/svg11.dtd">
<!-- Creator: CorelDRAW X8 -->
<svg xmlns="http://www.w3.org/2000/svg" xml:space="preserve" width="1.25in" height="0.5in" version="1.1" style="shape-rendering:geometricPrecision; text-rendering:geometricPrecision; image-rendering:optimizeQuality; fill-rule:evenodd; clip-rule:evenodd"
viewBox="0 0 1250 500"
 xmlns:xlink="http://www.w3.org/1999/xlink">
 <defs>
  <style type="text/css">
   <![CDATA[
    .fil0 {fill:#373435;fill-rule:nonzero}
   ]]>
  </style>
 </defs>
 <g id="Layer_x0020_1">
  <metadata id="CorelCorpID_0Corel-Layer"/>
  <path class="fil0" d="M145 281c1,-25 6,-48 17,-69 11,-21 25,-38 44,-51 18,-13 39,-19 61,-19 18,0 34,4 50,12 1,1 3,1 4,1 1,0 2,0 3,0 1,-1 2,-2 2,-4 1,-2 2,-5 2,-9l0 53c-3,-17 -7,-28 -13,-33 -11,-6 -23,-9 -36,-9 -18,0 -34,6 -49,17 -14,12 -26,28 -34,48 -8,19 -13,41 -13,66 0,25 5,47 13,66 8,19 20,35 34,47 15,12 31,18 49,18 13,0 25,-3 36,-10 6,-4 10,-15 13,-33l0 54c0,-5 -1,-8 -2,-10 -1,-2 -2,-4 -5,-4 -1,0 -2,1 -4,1 -16,9 -32,13 -50,13 -22,0 -43,-7 -61,-19 -19,-13 -33,-30 -44,-52 -11,-20 -16,-43 -17,-68l0 -6zm108 3c8,-4 13,-12 16,-25 2,13 7,21 15,25 -8,3 -13,12 -15,24 -3,-12 -8,-21 -16,-24zm100 132l0 0c0,4 3,8 9,10l-32 0c7,-3 12,-6 15,-10 3,-4 33,-96 90,-275l14 0 92 268c3,6 6,10 10,12 4,2 8,4 11,5l-68 0c8,-3 12,-7 12,-10 0,0 0,-1 0,-1l-15 -46 -124 0c-9,27 -14,43 -14,47zm74 -235c-25,81 -45,142 -58,184l120 0 -62 -184zm316 36c0,15 -3,26 -9,35 -6,10 -14,16 -24,21 -10,5 -21,7 -34,7l70 123c8,13 17,20 27,23l-69 0c4,-2 8,-5 11,-9l-78 -137 -27 0 0 124c2,11 8,19 15,22l-65 0c8,-3 13,-11 15,-23l0 -237c-2,-13 -7,-21 -15,-24l110 0c24,0 42,6 55,18 12,12 18,31 18,57zm-71 60c11,0 19,-5 25,-14 6,-9 10,-20 12,-33 2,-6 2,-13 2,-19 0,-7 -1,-15 -2,-24 -2,-10 -6,-19 -12,-28 -7,-9 -16,-14 -27,-14l-60 0 0 132 62 0zm433 -154c-16,-18 -32,-28 -50,-32 -7,-1 -15,-2 -23,-2 -11,0 -25,2 -42,6 -16,4 -36,11 -59,20 -29,11 -60,21 -94,28l0 260c3,12 8,20 16,23l-66 0c8,-3 14,-11 16,-24l0 -253c-9,1 -18,1 -27,1 -13,0 -30,-1 -48,-4 -19,-3 -41,-10 -67,-22 22,10 44,15 67,15 1,0 8,0 20,0 12,0 30,-4 54,-11 24,-6 48,-14 72,-23 29,-10 57,-19 84,-26 15,-3 29,-5 44,-5 11,0 26,2 44,6 18,4 38,18 59,43l0 0z"/>
 </g>
</svg>
