<?xml version="1.0" encoding="UTF-8"?>
<!DOCTYPE svg PUBLIC "-//W3C//DTD SVG 1.1//EN" "http://www.w3.org/Graphics/SVG/1.1/DTD/svg11.dtd">
<!-- Creator: CorelDRAW X8 -->
<svg xmlns="http://www.w3.org/2000/svg" xml:space="preserve" width="2in" height="0.5in" version="1.1" style="shape-rendering:geometricPrecision; text-rendering:geometricPrecision; image-rendering:optimizeQuality; fill-rule:evenodd; clip-rule:evenodd"
viewBox="0 0 2000 500"
 xmlns:xlink="http://www.w3.org/1999/xlink">
 <defs>
  <style type="text/css">
   <![CDATA[
    .fil0 {fill:#373435;fill-rule:nonzero}
   ]]>
  </style>
 </defs>
 <g id="Layer_x0020_1">
  <metadata id="CorelCorpID_0Corel-Layer"/>
  <path class="fil0" d="M242 281c0,-25 6,-48 17,-69 11,-21 25,-38 44,-51 18,-13 39,-20 61,-20 18,0 34,5 50,13 1,1 3,1 4,1 1,0 1,0 2,-1 2,0 2,-1 3,-3 1,-2 1,-5 2,-10l0 54c-3,-17 -7,-28 -13,-33 -12,-6 -24,-9 -36,-9 -18,0 -34,5 -49,17 -14,12 -26,28 -34,47 -9,20 -13,42 -13,67 0,24 4,46 13,65 8,20 20,36 34,48 15,12 31,18 49,18 12,0 24,-4 36,-10 6,-5 10,-16 13,-33l0 54c-1,-5 -1,-8 -2,-10 -1,-3 -3,-4 -5,-4 -1,0 -2,0 -4,1 -16,9 -32,13 -50,13 -22,0 -43,-7 -61,-20 -19,-12 -33,-29 -44,-51 -11,-20 -16,-43 -17,-69l0 -5zm108 3c8,-4 13,-12 15,-25 3,13 8,21 16,25 -8,3 -13,11 -16,24 -2,-13 -7,-21 -15,-24zm189 -142c20,0 40,6 57,19 17,13 31,30 41,52 10,21 16,45 16,71 0,26 -6,50 -16,72 -10,21 -24,38 -41,51 -17,13 -37,19 -57,19 -22,0 -41,-6 -58,-19 -17,-13 -31,-30 -41,-51 -10,-22 -16,-46 -16,-72 0,-26 6,-50 16,-71 10,-22 24,-39 41,-52 17,-13 36,-19 58,-19zm0 274c15,0 29,-6 41,-18 13,-12 23,-28 30,-48 7,-20 11,-42 11,-66 0,-24 -4,-46 -11,-66 -7,-20 -17,-36 -30,-47 -12,-12 -26,-18 -41,-18 -16,0 -30,6 -42,18 -13,11 -23,27 -30,47 -8,20 -11,42 -11,66 0,24 3,46 11,66 7,20 17,36 30,48 12,12 26,18 42,18zm115 10c8,-4 13,-11 15,-24l0 -237c-2,-12 -7,-20 -15,-24l42 0 140 257 0 -235c-3,-11 -8,-18 -16,-22l42 0c-9,5 -14,13 -15,23l0 253 4 9 -34 0 -137 -251 0 227c3,12 8,20 16,24l-42 0zm214 -260l0 -25 203 0 0 25c-1,-12 -4,-19 -9,-20l-77 0 0 257c2,12 7,20 15,23l-66 0c8,-3 14,-11 16,-24l0 -256 -72 0c-5,2 -8,8 -10,20zm165 250l0 0c0,4 3,8 9,10l-31 0c6,-3 11,-6 14,-10 3,-4 33,-96 90,-275l15 0 91 268c3,6 7,10 10,12 4,2 8,3 12,5l-68 0c8,-4 12,-7 12,-10 0,-1 -1,-1 -1,-2l-15 -45 -123 0c-10,27 -15,43 -15,47zm74 -235c-25,80 -44,142 -58,184l120 0 -62 -184zm106 100c0,-25 6,-48 16,-69 11,-21 26,-38 44,-51 19,-13 39,-20 62,-20 17,0 34,5 50,13 1,1 2,1 3,1 1,0 2,0 3,-1 1,0 2,-1 3,-3 0,-2 1,-5 2,-10l0 54c-3,-17 -7,-28 -14,-33 -11,-6 -23,-9 -36,-9 -17,0 -33,5 -48,17 -14,12 -26,28 -35,47 -8,20 -12,42 -13,67 1,24 5,46 13,65 9,20 21,36 35,48 15,12 31,18 48,18 13,0 25,-4 36,-10 7,-5 11,-16 14,-33l0 54c-1,-5 -2,-8 -2,-10 -1,-3 -3,-4 -5,-4 -1,0 -3,0 -4,1 -16,9 -33,13 -50,13 -23,0 -43,-7 -62,-20 -18,-12 -33,-29 -44,-51 -10,-20 -15,-43 -16,-69l0 -5zm545 -158c-16,-18 -32,-28 -50,-32 -7,-1 -15,-2 -23,-2 -11,0 -25,2 -41,6 -17,4 -37,11 -60,19 -29,12 -60,21 -94,29l0 260c3,12 8,20 16,23l-66 0c8,-4 14,-12 16,-24l0 -253c-8,1 -17,1 -26,1 -14,0 -30,-1 -49,-4 -19,-3 -41,-10 -67,-22 22,10 45,15 67,15 1,0 8,0 20,0 12,-1 30,-4 54,-11 24,-6 48,-14 72,-23 29,-11 57,-19 84,-26 15,-3 30,-5 44,-5 12,0 26,2 44,6 18,3 38,18 59,43l0 0z"/>
 </g>
</svg>
