<svg width="986" height="252" viewBox="0 0 986 252" fill="none" xmlns="http://www.w3.org/2000/svg">
<g clip-path="url(#clip0_375_7626)">
<path d="M24.3655 154.025V14.1071C22.9435 7.05984 19.9609 2.5584 15.4176 0.602799C25.1796 0.602799 34.9381 0.545909 44.693 0.432129C63.3497 0.432129 82.0064 0.489019 100.663 0.602799V16.5498C100.149 13.7036 99.188 10.9567 97.8155 8.41098C96.4145 5.87315 94.2133 3.87033 91.5551 2.71485H44.0425V84.0714H78.1705C80.4386 81.6892 81.9566 78.002 82.7245 73.0098V100.69C81.6366 93.3161 80.0653 88.6938 78.0105 86.8235H44.0425V153.374C46.6447 153.161 49.3003 153.044 52.0199 153.044C61.9739 153.044 72.6034 155.078 83.9083 159.145C96.3023 163.705 108.411 169.005 120.169 175.018L121.481 175.668C136.753 183.558 152.639 190.197 168.983 195.519C180.896 199.456 193.369 201.434 205.916 201.376C211.334 201.376 220.2 200.643 232.515 199.178C244.829 197.713 262.316 189.226 284.976 173.716H285.306C268.605 192.27 250.546 204.145 231.128 209.344C219.93 212.343 208.39 213.874 196.797 213.899C188.976 213.899 178.404 212.679 165.08 210.24C151.756 207.801 137.383 202.73 121.961 195.029C115.135 191.672 108.52 188.202 102.113 184.618C92.6785 179.405 83.3786 174.783 74.2138 170.751C65.243 166.793 55.7253 164.214 45.9835 163.103C44.2558 162.996 42.5174 162.943 40.779 162.943C26.8206 162.933 13.0948 166.518 0.923828 173.354C6.70426 168.61 14.5182 162.168 24.3655 154.025Z" fill="#333333"/>
<path d="M104.897 163.155C109.447 161.2 112.43 156.698 113.845 149.651V14.2879C112.423 7.24058 109.44 2.68581 104.897 0.623535H142.47C137.806 2.67869 134.77 7.30103 133.362 14.4905V160.713H196.979C199.581 158.217 201.316 154.476 202.183 149.491V163.358H153.572C137.276 163.223 121.051 163.155 104.897 163.155Z" fill="#333333"/>
<path d="M203.484 163.155C208.035 161.2 211.017 156.698 212.432 149.651V14.2879C211.01 7.24058 208.028 2.68581 203.484 0.623535H241.025C236.354 2.67869 233.314 7.30103 231.907 14.4905V150.142C233.428 156.862 236.411 161.2 240.855 163.155H203.484Z" fill="#333333"/>
<path d="M352.016 163.156H245.782C247.204 160.447 251.651 151.824 259.124 137.289C266.596 122.753 275.274 106.042 285.157 87.1542C295.026 68.288 304.08 50.9329 312.321 35.089C320.561 19.2451 326.146 8.57813 329.075 3.08823H260.094C257.385 5.57717 255.544 9.35682 254.57 14.4272V0.560166C272.238 0.560166 290.013 0.503276 307.895 0.389496C322.868 0.389496 337.782 0.336161 352.634 0.229492L325.343 52.6894C306.359 88.5942 287.809 124.506 269.693 160.425H345.35C348.713 156.87 350.935 150.63 352.016 141.705V163.156Z" fill="#333333"/>
<path d="M364.74 157.459V157.619C364.74 159.901 366.421 161.747 369.784 163.155H351.696C354.857 161.878 357.671 159.872 359.908 157.299C361.593 155.165 378.757 102.823 411.399 0.270996H419.696L472.083 153.555C473.309 156.257 475.324 158.526 477.863 160.061C480.082 161.256 482.215 162.287 484.262 163.155H445.399C449.964 161.096 452.235 159.144 452.235 157.299C452.224 157.022 452.17 156.748 452.075 156.488L443.287 130.61H372.898C367.545 146.013 364.825 154.963 364.74 157.459ZM406.685 22.8955C392.465 69.1188 381.445 104.209 373.624 128.167H442.445L406.685 22.8955Z" fill="#333333"/>
<path d="M482.332 163.155C486.996 161.2 490.032 156.698 491.439 149.651V14.2879C490.017 7.24058 486.981 2.68581 482.332 0.623535H545.618C559.29 0.623535 569.65 4.0405 576.696 10.8744C583.742 17.7084 587.265 28.7309 587.265 43.9419C587.265 54.2532 584.581 62.2285 579.213 67.8678C573.624 73.6335 566.37 77.5021 558.469 78.9294C565.755 79.9835 572.766 82.4511 579.106 86.1936C585.215 89.8503 590.306 94.9859 593.909 101.127C597.649 107.421 599.519 115.176 599.519 124.392C599.673 130.601 597.916 136.708 594.485 141.886C591.107 146.83 586.655 150.947 581.463 153.928C576.102 157.04 570.324 159.368 564.303 160.841C558.587 162.311 552.714 163.078 546.812 163.123L482.332 163.155ZM510.967 2.71425V77.724H546.919C552.664 77.724 557.285 75.1746 560.783 70.0758C564.511 64.447 566.927 58.0533 567.854 51.3661C568.499 47.6601 568.827 43.906 568.836 40.1445C568.742 35.4927 568.279 30.8557 567.449 26.2775C566.424 20.4782 564.057 14.999 560.538 10.2771C558.887 7.85583 556.655 5.88719 554.046 4.55113C551.438 3.21506 548.537 2.55419 545.607 2.62892L510.967 2.71425ZM510.967 80.0067V160.713H546.919C553.645 160.713 560.776 157.054 568.313 149.736C575.85 142.419 580.116 133.885 581.111 124.136C581.111 112.971 577.286 102.827 569.635 93.7031C561.985 84.5793 553.979 80.0139 545.618 80.0067H510.967Z" fill="#333333"/>
<path d="M604.51 163.155C609.074 161.2 612.057 156.698 613.458 149.651V14.2879C612.036 7.24058 609.053 2.68581 604.51 0.623535H689.766V16.5492C688.344 9.38107 685.415 4.75874 680.978 2.68225H633.145V77.724H663.893C668.443 75.6689 671.372 71.0465 672.681 63.857V93.7991C671.259 86.6309 668.329 82.0086 663.893 79.9321H633.145V160.425H684.881C687.014 157.929 688.532 154.238 689.435 149.352V163.219L604.51 163.155Z" fill="#333333"/>
<path d="M693.99 14.4266V0.55957H809.993V14.4266C809.232 7.49307 807.498 3.75254 804.789 3.20497H760.699V150.142C762.121 156.862 765.051 161.2 769.487 163.155H732.064C736.621 161.2 739.604 156.698 741.012 149.651V3.20497H699.525C696.816 4.29299 694.971 8.03352 693.99 14.4266Z" fill="#333333"/>
<path d="M928.055 60.9663H928.385L931.148 62.289C931.326 62.2761 931.502 62.3335 931.638 62.449C931.661 62.4472 931.683 62.4504 931.704 62.4585C931.725 62.4666 931.744 62.4793 931.759 62.4957C931.775 62.5121 931.786 62.5318 931.793 62.5533C931.8 62.5747 931.801 62.5974 931.798 62.6197L934.72 63.9211C952.623 73.4644 965.585 86.1296 973.605 101.917C981.625 117.704 985.639 133.676 985.646 149.832C985.646 152.222 985.539 154.665 985.326 157.161C984.164 175.669 977.318 193.367 965.724 207.839C953.949 222.773 936.565 232.945 913.572 238.357C906.128 239.858 898.555 240.619 890.962 240.629C882.588 240.628 874.24 239.702 866.07 237.867C850.134 234.424 834.636 229.2 819.869 222.293C804.788 215.295 790.309 207.892 776.43 200.084C759.366 190.541 744.833 183.355 732.832 178.526C720.83 173.698 710.741 171.284 702.564 171.284C698.39 171.264 694.232 171.81 690.204 172.905C678.493 177.243 670.63 184.354 666.613 194.239C662.595 204.123 660.59 212.365 660.597 218.965C660.588 224.459 661.523 229.915 663.36 235.093C663.45 235.37 663.557 235.64 663.68 235.904C663.692 236.029 663.754 236.144 663.85 236.224L664.17 236.874C664.178 237.002 664.235 237.121 664.33 237.205V237.365C664.471 237.506 664.583 237.673 664.661 237.856L664.821 238.016V238.176C664.903 238.357 665.014 238.523 665.151 238.667C665.161 238.793 665.218 238.911 665.311 238.997V239.157L665.631 239.477C665.644 239.605 665.705 239.724 665.802 239.808V239.968C665.824 239.964 665.846 239.966 665.867 239.972C665.888 239.979 665.908 239.991 665.923 240.007C665.939 240.022 665.951 240.041 665.957 240.063C665.964 240.084 665.966 240.106 665.962 240.128L666.453 240.619V240.949C666.474 240.946 666.497 240.947 666.518 240.954C666.539 240.961 666.558 240.972 666.574 240.988C666.59 241.004 666.601 241.023 666.608 241.044C666.615 241.065 666.616 241.087 666.613 241.109C666.696 241.287 666.804 241.452 666.932 241.6H667.103C667.107 241.661 667.123 241.721 667.151 241.776C667.178 241.831 667.216 241.88 667.263 241.92C667.394 242.066 667.502 242.232 667.583 242.411L668.564 243.392C668.645 243.568 668.753 243.73 668.884 243.872L669.865 244.853C670.012 244.984 670.177 245.092 670.356 245.173C670.451 245.258 670.509 245.377 670.516 245.504L671.166 245.824C671.174 245.951 671.231 246.07 671.326 246.155C671.507 246.233 671.672 246.342 671.817 246.475L671.977 246.645H672.148C672.251 246.853 672.42 247.022 672.628 247.125H672.798V247.296L673.449 247.616C673.471 247.612 673.493 247.614 673.514 247.621C673.535 247.627 673.554 247.639 673.57 247.655C673.586 247.67 673.597 247.69 673.604 247.711C673.611 247.732 673.612 247.754 673.609 247.776L674.259 248.107L674.419 248.267C674.699 248.351 674.971 248.462 675.23 248.597V248.757C675.51 248.846 675.785 248.953 676.051 249.077C680.002 250.984 684.346 251.934 688.732 251.851H686.129C685.324 251.741 684.511 251.687 683.698 251.691L681.416 251.36H681.256L679.123 251.04H678.952C678.316 250.822 677.663 250.658 677 250.549C677 250.432 677 250.379 676.84 250.379C676.253 250.182 675.655 250.022 675.049 249.899L674.889 249.728H674.729L673.097 249.077L672.958 248.96H672.798C672.275 248.755 671.78 248.482 671.326 248.149C671.305 248.153 671.282 248.152 671.261 248.145C671.24 248.138 671.221 248.126 671.205 248.111C671.189 248.095 671.178 248.076 671.171 248.055C671.164 248.034 671.163 248.011 671.166 247.989H671.006C670.598 247.678 670.162 247.403 669.705 247.168C669.621 247.073 669.502 247.015 669.375 247.008C669.379 246.986 669.377 246.964 669.37 246.943C669.364 246.922 669.352 246.902 669.336 246.887C669.32 246.871 669.301 246.859 669.28 246.853C669.259 246.846 669.237 246.844 669.215 246.848C668.778 246.517 668.404 246.251 668.074 246.037L667.583 245.547C667.289 245.243 666.964 244.971 666.613 244.736C666.484 244.586 666.373 244.421 666.282 244.245C666.26 244.249 666.238 244.247 666.217 244.241C666.195 244.234 666.176 244.222 666.161 244.207C666.145 244.191 666.133 244.172 666.127 244.151C666.12 244.13 666.118 244.107 666.122 244.085H665.962C665.772 243.792 665.554 243.516 665.311 243.264C665.205 243.054 665.033 242.886 664.821 242.784C664.821 242.667 664.821 242.613 664.661 242.613V242.293L664.01 241.643L663.68 240.992L663.52 240.821C663.473 240.781 663.435 240.732 663.407 240.677C663.38 240.623 663.364 240.563 663.36 240.501C663.165 240.309 663 240.09 662.869 239.851C662.651 239.617 662.484 239.341 662.379 239.04C662.376 238.977 662.361 238.915 662.333 238.858C662.306 238.801 662.267 238.75 662.219 238.709L662.059 238.549C662.067 238.46 662.056 238.37 662.026 238.285C661.997 238.201 661.95 238.123 661.888 238.059L660.917 236.106C658.784 230.435 657.682 224.427 657.665 218.367C657.724 211.063 659.331 203.853 662.379 197.215C667.666 184.798 677.175 174.653 689.222 168.574C696.88 165.26 705.142 163.575 713.485 163.625C718.232 163.638 722.968 164.074 727.638 164.926C742.509 167.825 756.983 172.48 770.756 178.793C785.175 185.314 798.354 191.825 810.292 198.324C814.636 200.458 818.649 202.52 822.332 204.511C839.14 212.86 852.777 217.766 863.243 219.231C871.363 220.501 879.557 221.235 887.773 221.429C895.081 221.442 902.369 220.659 909.508 219.093C931.307 213.987 948.091 205.009 959.858 192.159C971.625 179.309 978.052 168.08 979.14 158.473C980.228 148.872 980.772 142.554 980.772 139.518C980.703 126.464 977.464 113.622 971.333 102.098C963.512 87.2283 950.931 75.2387 933.59 66.1291C932.746 65.8191 931.93 65.441 931.148 64.9984C930.999 64.9049 930.831 64.8465 930.657 64.8278L930.497 64.6678C929.872 64.4626 929.272 64.1908 928.705 63.8571H928.385C928.301 63.7599 928.183 63.6988 928.055 63.6864V149.448C929.477 156.503 932.459 161.058 937.003 163.113H899.579C904.037 161.05 906.966 156.656 908.367 149.928V58.0223H907.716C907.29 57.9156 906.799 57.7983 906.255 57.6916C905.87 57.6837 905.487 57.63 905.114 57.5316C904.57 57.5312 904.027 57.4776 903.493 57.3716H903.323C903.095 57.3694 902.871 57.3108 902.672 57.2009C901.958 57.2059 901.244 57.1524 900.539 57.0409H900.123C897.741 56.9342 895.409 56.8809 893.127 56.8809C883.572 56.7691 874.059 58.1474 864.928 60.9663C855.755 63.809 847.001 67.8588 838.895 73.0093V149.491C840.317 156.545 843.303 161.1 847.854 163.155H810.43C814.881 161.093 817.81 156.698 819.218 149.971V85.5429L819.048 85.2122L819.218 85.0522V13.2959C817.796 6.66816 814.867 2.38006 810.43 0.431566H847.864C843.3 2.50095 840.314 7.05928 838.906 14.1066V70.0759C845.569 65.9515 852.665 62.5712 860.065 59.9956V59.825H860.225C860.876 59.6116 861.473 59.3983 862.017 59.1743H862.337C862.881 58.9609 863.478 58.7476 864.129 58.5236H864.459C865.034 58.2997 865.631 58.1387 866.24 58.0436C866.326 57.9481 866.443 57.8873 866.571 57.8729C867.158 57.6765 867.756 57.5162 868.363 57.3929C868.534 57.3737 868.698 57.3152 868.842 57.2222L870.634 56.9022C870.719 56.8072 870.838 56.7496 870.965 56.7422C871.615 56.6356 872.213 56.5182 872.746 56.4116C872.832 56.3183 872.95 56.2611 873.077 56.2515H873.236L875.188 55.9209C875.274 55.8276 875.392 55.7704 875.519 55.7609L877.652 55.4409H877.812L880.094 55.1102C884.181 54.4519 888.315 54.1237 892.455 54.1288C895.992 54.1346 899.525 54.3554 903.035 54.7902L905.637 55.1102H905.797L908.399 55.4409V14.2879C906.977 7.12683 903.994 2.5045 899.451 0.420898H937.035C932.477 2.49028 929.494 7.04861 928.087 14.0959L928.055 60.9663Z" fill="#333333"/>
</g>
<defs>
<clipPath id="clip0_375_7626">
<rect width="984.711" height="251.569" fill="white" transform="translate(0.93457 0.270996)"/>
</clipPath>
</defs>
</svg>
