<?xml version="1.0" encoding="utf-8"?>
<!-- Generator: Adobe Illustrator 26.0.3, SVG Export Plug-In . SVG Version: 6.00 Build 0)  -->
<svg version="1.1" id="Layer_1" xmlns="http://www.w3.org/2000/svg" xmlns:xlink="http://www.w3.org/1999/xlink" x="0px" y="0px"
	 viewBox="0 0 923.3 235.8" style="enable-background:new 0 0 923.3 235.8;" xml:space="preserve">
<style type="text/css">
	.st0{fill:#FFFFFF;}
</style>
<path class="st0" d="M22,144.1V13c-1.3-6.6-4.1-10.8-8.4-12.7c9.2,0,18.3-0.1,27.5-0.2c17.5,0,35,0.1,52.5,0.2v14.9
	c-0.5-2.7-1.4-5.2-2.7-7.6c-1.3-2.4-3.4-4.3-5.9-5.3H40.4v76.3h32c2.1-2.2,3.6-5.7,4.3-10.4v26c-1-6.9-2.5-11.2-4.4-13H40.4v62.4
	c2.4-0.2,4.9-0.3,7.5-0.3c9.3,0,19.3,1.9,29.9,5.7c11.6,4.3,23,9.2,34,14.9l1.2,0.6c14.3,7.4,29.2,13.6,44.5,18.6
	c11.2,3.7,22.9,5.5,34.6,5.5c5.1,0,13.4-0.7,24.9-2.1c11.5-1.4,27.9-9.3,49.2-23.9h0.3C251,180,234,191.1,215.8,196
	c-10.5,2.8-21.3,4.2-32.2,4.3c-7.3,0-17.2-1.1-29.7-3.4c-12.5-2.3-26-7-40.4-14.3c-6.4-3.1-12.6-6.4-18.6-9.8
	c-8.8-4.9-17.6-9.2-26.2-13c-8.4-3.7-17.3-6.1-26.5-7.2c-1.6-0.1-3.2-0.1-4.9-0.1c-13.1,0-26,3.4-37.4,9.8
	C5.4,157.8,12.7,151.8,22,144.1z"/>
<path class="st0" d="M97.5,152.7c4.3-1.8,7.1-6.1,8.4-12.7V13.1c-1.3-6.6-4.1-10.9-8.4-12.8h35.2c-4.4,1.9-7.2,6.3-8.5,13v137.1
	h59.6c2.4-2.3,4.1-5.8,4.9-10.5v13h-45.6C127.8,152.8,112.6,152.7,97.5,152.7z"/>
<path class="st0" d="M189.9,152.7c4.3-1.8,7.1-6.1,8.4-12.7V13.1c-1.3-6.6-4.1-10.9-8.4-12.8h35.2c-4.4,1.9-7.2,6.3-8.6,13v127.2
	c1.4,6.3,4.2,10.4,8.4,12.2H189.9z"/>
<path class="st0" d="M329.2,152.7h-99.6c1.3-2.5,5.5-10.6,12.5-24.2c7-13.6,15.1-29.3,24.4-47c9.3-17.7,17.7-34,25.5-48.8
	c7.7-14.9,13-24.9,15.7-30H243c-2.5,2.3-4.3,5.9-5.2,10.6v-13c16.6,0,33.2-0.1,50-0.2c14,0,28,0,42-0.1l-25.6,49.2
	c-17.8,33.7-35.2,67.3-52.2,101h70.9c3.2-3.3,5.2-9.2,6.2-17.6V152.7z"/>
<path class="st0" d="M341.1,147.4v0.1c0,2.1,1.6,3.9,4.7,5.2h-17c3-1.2,5.6-3.1,7.7-5.5c1.6-2,17.7-51.1,48.3-147.2h7.8l49.1,143.7
	c1.1,2.5,3,4.7,5.4,6.1c2.1,1.1,4.1,2.1,6,2.9h-36.4c4.3-1.9,6.4-3.8,6.4-5.5c0-0.3-0.1-0.5-0.1-0.8l-8.2-24.3h-66
	C343.8,136.6,341.2,145,341.1,147.4z M380.4,21.2c-13.3,43.3-23.7,76.2-31,98.7H414L380.4,21.2z"/>
<path class="st0" d="M451.4,152.7c4.4-1.8,7.2-6.1,8.5-12.7V13.1c-1.3-6.6-4.2-10.9-8.5-12.8h59.3c12.8,0,22.5,3.2,29.1,9.6
	s9.9,16.7,9.9,31c0,9.7-2.5,17.1-7.5,22.4c-5.2,5.4-12,9-19.5,10.4c6.8,1,13.4,3.3,19.4,6.8c5.7,3.4,10.5,8.2,13.9,14
	c3.5,5.9,5.3,13.2,5.3,21.8c0.1,5.8-1.5,11.5-4.7,16.4c-3.2,4.6-7.3,8.5-12.2,11.3c-5,2.9-10.4,5.1-16.1,6.5
	c-5.4,1.4-10.9,2.1-16.4,2.1L451.4,152.7z M478.2,2.3v70.3h33.7c5.4,0,9.7-2.4,13-7.2c3.5-5.3,5.8-11.3,6.6-17.5
	c0.6-3.5,0.9-7,0.9-10.5c-0.1-4.4-0.5-8.7-1.3-13c-1-5.4-3.2-10.6-6.5-15c-3.1-4.6-8.4-7.3-14-7.2L478.2,2.3z M478.2,74.8v75.7h33.7
	c6.3,0,13-3.4,20.1-10.3s11.1-14.9,12-24c0-10.5-3.6-20-10.8-28.5s-14.7-12.8-22.5-12.8H478.2z"/>
<path class="st0" d="M565.9,152.7c4.3-1.8,7.1-6.1,8.4-12.7V13.1c-1.3-6.6-4.1-10.9-8.4-12.8h79.9v14.9c-1.3-6.7-4.1-11.1-8.2-13
	h-44.9v70.4h28.8c4.3-1.9,7-6.3,8.2-13v28.1c-1.3-6.7-4.1-11.1-8.2-13h-28.8v75.5h48.5c2-2.3,3.4-5.8,4.3-10.4v13L565.9,152.7z"/>
<path class="st0" d="M649.8,13.3v-13h108.8v13c-0.7-6.5-2.3-10-4.9-10.5h-41.3v137.8c1.3,6.3,4.1,10.4,8.2,12.2h-35.1
	c4.3-1.8,7.1-6.1,8.4-12.7V2.8H655C652.5,3.8,650.8,7.3,649.8,13.3z"/>
<path class="st0" d="M869.3,56.9h0.3l2.6,1.2c0.2,0,0.3,0,0.5,0.2c0.1,0,0.1,0.1,0.2,0.1c0,0,0,0,0,0l2.7,1.2
	c16.8,8.9,28.9,20.8,36.5,35.6s11.3,29.8,11.3,44.9c0,2.2-0.1,4.5-0.3,6.9c-1.1,17.4-7.5,33.9-18.4,47.5c-11,14-27.3,23.5-48.9,28.6
	c-7,1.4-14.1,2.1-21.2,2.1c-7.9,0-15.7-0.9-23.3-2.6c-14.9-3.2-29.5-8.1-43.3-14.6c-14.1-6.6-27.7-13.5-40.7-20.8
	c-16-8.9-29.6-15.7-40.9-20.2c-11.3-4.5-20.7-6.8-28.4-6.8c-3.9,0-7.8,0.5-11.6,1.5c-11,4.1-18.4,10.7-22.1,20
	c-3.8,9.3-5.6,17-5.6,23.2c0,5.2,0.9,10.3,2.6,15.1c0.1,0.3,0.2,0.5,0.3,0.8c0,0.1,0.1,0.2,0.2,0.3l0.3,0.6c0,0.1,0.1,0.2,0.2,0.3
	v0.1c0.1,0.1,0.2,0.3,0.3,0.5l0.2,0.1v0.1c0.1,0.2,0.2,0.3,0.3,0.5c0,0.1,0.1,0.2,0.2,0.3v0.1l0.3,0.3c0,0.1,0.1,0.2,0.2,0.3v0.1
	c0.1,0,0.1,0,0.2,0.1c0,0,0,0,0,0l0.5,0.5v0.3c0.1,0,0.1,0,0.2,0.1c0,0,0,0,0,0c0.1,0.2,0.2,0.3,0.3,0.5h0.2c0,0.1,0.1,0.2,0.2,0.3
	c0.1,0.1,0.2,0.3,0.3,0.5l0.9,0.9c0.1,0.2,0.2,0.3,0.3,0.4l0.9,0.9c0.1,0.1,0.3,0.2,0.5,0.3c0.1,0.1,0.1,0.2,0.2,0.3l0.6,0.3
	c0,0.1,0.1,0.2,0.2,0.3c0.2,0.1,0.3,0.2,0.5,0.3l0.2,0.2h0.2c0.1,0.2,0.3,0.4,0.5,0.4h0.2v0.2l0.6,0.3c0.1,0,0.1,0,0.2,0.1
	c0,0,0,0,0,0l0.6,0.3l0.2,0.1c0.3,0.1,0.5,0.2,0.8,0.3v0.1c0.3,0.1,0.5,0.2,0.8,0.3c3.7,1.8,7.8,2.7,11.9,2.6h-2.4
	c-0.8-0.1-1.5-0.2-2.3-0.1l-2.1-0.3h-0.2l-2-0.3h-0.2c-0.6-0.2-1.2-0.4-1.8-0.5c0-0.1,0-0.2-0.2-0.2c-0.6-0.2-1.1-0.3-1.7-0.4
	l-0.2-0.2h-0.2l-1.5-0.6l-0.1-0.1H630c-0.5-0.2-1-0.4-1.4-0.8c-0.1,0-0.1,0-0.2-0.1c0,0,0,0,0,0h-0.2c-0.4-0.3-0.8-0.5-1.2-0.8
	c-0.1-0.1-0.2-0.1-0.3-0.1c0-0.1,0-0.1-0.1-0.1c0,0,0,0,0,0c-0.4-0.3-0.8-0.6-1.1-0.8l-0.5-0.5c-0.3-0.3-0.6-0.5-0.9-0.8
	c-0.1-0.1-0.2-0.3-0.3-0.5c-0.1,0-0.1,0-0.2-0.1c0,0,0,0,0,0h-0.2c-0.2-0.3-0.4-0.5-0.6-0.8c-0.1-0.2-0.3-0.4-0.5-0.4
	c0-0.1,0-0.2-0.2-0.2v-0.3l-0.6-0.6l-0.3-0.6l-0.2-0.2c-0.1-0.1-0.1-0.2-0.2-0.3c-0.2-0.2-0.3-0.4-0.5-0.6c-0.2-0.2-0.4-0.5-0.5-0.8
	c0-0.1-0.1-0.2-0.2-0.3l-0.2-0.1c0-0.2,0-0.3-0.2-0.5l-0.9-1.8c-2-5.3-3-10.9-3-16.6c0.1-6.8,1.6-13.6,4.4-19.8
	c5-11.6,13.9-21.2,25.2-26.9c7.2-3.1,14.9-4.7,22.8-4.6c4.5,0,8.9,0.4,13.3,1.2c13.9,2.7,27.5,7.1,40.4,13
	c13.5,6.1,25.9,12.2,37.1,18.3c4.1,2,7.8,3.9,11.3,5.8c15.8,7.8,28.5,12.4,38.4,13.8c7.6,1.2,15.3,1.9,23,2.1
	c6.9,0,13.7-0.7,20.4-2.2c20.4-4.8,36.2-13.2,47.2-25.2s17.1-22.6,18.1-31.6c1-9,1.5-14.9,1.5-17.8c-0.1-12.2-3.1-24.3-8.8-35.1
	c-7.3-13.9-19.1-25.2-35.4-33.7c-0.8-0.3-1.6-0.6-2.3-1.1c-0.1-0.1-0.3-0.1-0.5-0.2l-0.2-0.2c-0.6-0.2-1.1-0.4-1.7-0.8h-0.3
	c-0.1-0.1-0.2-0.1-0.3-0.2v80.4c1.3,6.6,4.1,10.9,8.4,12.8h-35.1c4.2-1.9,6.9-6.1,8.2-12.4V54.1h-0.6c-0.4-0.1-0.9-0.2-1.4-0.3
	c-0.4,0-0.7-0.1-1.1-0.2c-0.5,0-1-0.1-1.5-0.2h-0.2c-0.2,0-0.4-0.1-0.6-0.2c-0.7,0-1.3,0-2-0.2h-0.4c-2.2-0.1-4.4-0.2-6.6-0.2
	c-9-0.1-17.9,1.2-26.4,3.8c-8.6,2.7-16.8,6.5-24.4,11.3v71.7c1.3,6.6,4.1,10.9,8.4,12.8H759c4.2-1.9,6.9-6.1,8.2-12.4V79.9l-0.2-0.3
	l0.2-0.2V12.2C765.9,6,763.2,2,759,0.1h35.1c-4.3,1.9-7.1,6.2-8.4,12.8v52.5c6.2-3.9,12.9-7,19.8-9.4v-0.2h0.2
	c0.6-0.2,1.2-0.4,1.7-0.6h0.3c0.5-0.2,1.1-0.4,1.7-0.6h0.3c0.5-0.2,1.1-0.4,1.7-0.4c0.1-0.1,0.2-0.1,0.3-0.2
	c0.6-0.2,1.1-0.3,1.7-0.4c0.2,0,0.3-0.1,0.5-0.2l1.7-0.3c0.1-0.1,0.2-0.1,0.3-0.2c0.6-0.1,1.2-0.2,1.7-0.3c0.1-0.1,0.2-0.1,0.3-0.2
	h0.2l1.8-0.3c0.1-0.1,0.2-0.1,0.3-0.2l2-0.3h0.2l2.1-0.3c3.8-0.6,7.7-0.9,11.6-0.9c3.3,0,6.6,0.2,9.9,0.6l2.4,0.3h0.2l2.4,0.3V13.1
	c-1.3-6.7-4.1-11-8.4-13h35.2c-4.3,1.9-7.1,6.2-8.4,12.8L869.3,56.9z"/>
</svg>
