<svg width="443" height="447" viewBox="0 0 443 447" fill="none" xmlns="http://www.w3.org/2000/svg">
<path d="M0 434.185H25.6843L25.8341 433.812C25.174 433.506 24.4964 433.231 23.8566 432.888C21.0463 431.38 18.1132 430.052 15.4743 428.282C11.927 425.908 11.0847 422.263 11.8919 418.256C12.5924 414.78 15.7186 411.909 19.0081 411.428C23.6623 410.746 27.0192 412.324 29.3139 415.793C34.0059 422.887 40.3649 428.24 47.5364 432.694C55.8756 437.872 64.9301 441.364 74.2938 444.141C74.8529 444.285 75.3824 444.526 75.8583 444.854C63.4683 443.712 51.27 441.492 39.2067 438.358C38.193 440.724 39.7925 441.08 41.195 441.369C48.7297 442.92 56.2792 444.401 63.8179 445.926C65.0894 446.184 66.3421 446.532 67.5974 446.839H5.66922C5.79746 445.028 5.92569 443.218 6.07417 441.167H0V434.185ZM18.7341 438.398L20.1932 439.13L20.7439 437.681L19.2146 437.198C19.0535 437.598 18.8934 437.998 18.7341 438.398ZM31.5209 435.381C30.8743 436.352 30.1387 436.971 30.2142 437.464C30.3155 438.12 31.1591 439.241 31.4885 439.176C32.4847 438.986 33.3877 438.315 34.3231 437.826L31.5209 435.381Z" fill="#D9918B"/>
<path d="M226.797 446.839C226.828 438.054 235.301 431.606 243.214 434.87C257.345 440.696 272.093 443.894 287.083 446.289C287.79 446.403 288.474 446.653 289.168 446.839H226.797Z" fill="#D9918B"/>
<path d="M374.652 446.839C378.991 446.015 383.326 445.167 387.669 444.37C398.766 442.345 409.597 439.442 420.034 435.067C426.261 432.457 433.143 435.238 435.94 441.376C436.688 443.02 436.681 445.009 437.02 446.839H374.652Z" fill="#D9918B"/>
<path d="M442.692 178.04C442.348 177.292 441.817 176.577 441.689 175.795C439.892 164.814 437.695 153.929 434.009 143.402C432.977 140.46 431.66 137.615 430.652 134.665C427.817 126.371 433.925 118.101 442.692 118.258V178.04Z" fill="#D9918B"/>
<path d="M442.692 328.584C433.273 328.327 427.377 319.413 431.066 310.843C436.355 298.553 439.231 285.643 441.392 272.522C441.601 271.244 442.248 270.041 442.692 268.803V328.584Z" fill="#D9918B"/>
<path d="M153.524 446.839C158.788 445.834 164.067 444.863 169.327 443.82C179.034 441.892 188.564 439.363 197.688 435.447C206.717 431.575 215.575 437.133 215.893 446.842L153.524 446.839Z" fill="#D9918B"/>
<path d="M442.692 400.585C442.121 398.915 441.299 397.285 441.019 395.568C439.003 383.192 436.053 371.09 431.166 359.496C427.377 350.504 433.325 341.389 442.69 341.676L442.692 400.585Z" fill="#D9918B"/>
<path d="M442.692 105.168C433.513 105.107 427.485 96.4721 430.97 87.894C434.519 79.1573 437.27 70.1173 439.19 60.8845C440.107 56.4901 440.903 52.0714 441.81 47.6742C441.945 47.0233 442.39 46.4386 442.692 45.8228V105.168Z" fill="#D9918B"/>
<path d="M437.021 0.00405125C437.252 8.95497 428.551 14.9294 419.987 11.8031C414.203 9.69097 408.448 7.37762 402.501 5.86104C394.433 3.80968 386.191 2.44165 378.026 0.772469C376.897 0.541539 375.776 0.25929 374.652 0L437.021 0.00405125Z" fill="#D9918B"/>
<path d="M289.167 0.00427246C283.963 0.979312 278.754 1.92869 273.556 2.93344C263.472 4.88082 253.648 7.6844 244.149 11.6521C235.625 15.2119 226.865 9.25499 226.797 0.00427246H289.167Z" fill="#D9918B"/>
<path d="M215.893 0.00427246C215.587 9.35358 207.028 15.2646 198.498 11.6521C184.73 5.81805 170.248 2.92129 155.616 0.51475C154.91 0.39861 154.222 0.177133 153.524 0.00427246H215.893Z" fill="#D9918B"/>
<path d="M67.6028 0.00427246C63.0485 0.866773 58.4933 1.72882 53.9372 2.59042C43.2737 4.59587 32.8504 7.4089 22.8415 11.6845C14.4538 15.2686 5.15895 8.90928 5.66918 0.00427246H67.6028Z" fill="#D9918B"/>
<path d="M0 266.185C0.692455 269.885 1.41867 273.58 2.06928 277.287C4.094 288.836 6.97717 300.125 11.5544 310.972C15.2286 319.676 9.55534 328.148 0 328.585V266.185Z" fill="#D9918B"/>
<path d="M0 341.675C9.14365 341.424 15.1355 350.348 11.5112 359.115C7.27281 369.378 4.42063 380 2.4121 390.879C1.80604 394.159 1.33228 397.464 0.751856 400.747C0.603376 401.583 0.255115 402.384 0 403.201V341.675Z" fill="#D9918B"/>
<path d="M0 42.3322C0.851733 47.0345 1.71425 51.7355 2.55384 56.4405C4.39499 66.7689 7.07168 76.8583 11.14 86.5492C12.4615 89.6999 13.2025 92.8667 12.0997 96.2875C10.345 101.746 6.04582 104.953 0 105.168V42.3322Z" fill="#D9918B"/>
<path d="M0 118.258C8.763 118.16 15.0032 126.473 11.8379 134.676C8.03814 144.521 4.90793 154.518 2.90075 164.864C2.01662 169.415 1.33362 174.007 0.539926 178.576C0.417093 179.281 0.182225 179.965 0 180.658V118.258Z" fill="#D9918B"/>
<path d="M109.593 320.336C108.234 315.861 107.028 311.332 105.479 306.927C102.322 297.969 98.3127 289.464 91.5974 282.502C85.2371 275.906 77.6295 272.579 68.3658 273.13C66.1656 273.265 63.7764 273.219 61.7354 272.502C55.5843 270.341 52.7592 263.933 54.9162 257.801C56.9409 252.041 63.524 248.854 69.5036 250.888C74.8125 252.695 79.3343 255.884 83.4459 259.61C92.4964 267.821 98.1737 278.232 102.427 289.492C106.058 299.106 108.296 309.091 109.813 319.244C109.864 319.586 109.82 319.943 109.82 320.292L109.593 320.336Z" fill="#D9918B"/>
<path d="M95.9042 446.146C91.3729 445.32 87.2249 444.7 83.1377 443.795C69.0578 440.678 55.6352 435.953 43.8378 427.344C38.8084 423.673 34.4013 419.349 30.8472 414.27C29.0371 411.684 27.6225 408.741 26.4873 405.782C24.7582 401.272 26.0824 397.122 29.2841 393.755C32.6735 390.186 37.0537 389.51 41.5405 391.161C46.0272 392.811 48.523 396.292 48.8295 401.096C49.063 404.784 48.5676 408.578 49.2344 412.17C51.0553 421.912 57.4683 428.413 65.4767 433.567C74.1358 439.139 83.7654 442.345 93.6204 444.981C94.1805 445.131 94.7393 445.29 95.2901 445.471C95.3926 445.502 95.4682 445.653 95.9042 446.146Z" fill="#D9918B"/>
<path d="M441.643 208.76C439.998 203.526 438.562 198.496 436.835 193.575C434.297 186.335 430.882 179.516 426 173.541C418.969 164.93 410.156 160.353 398.749 161.578C391.942 162.309 386.1 156.808 386.105 149.901C386.105 143.477 391.938 138.239 398.523 138.607C402.746 138.842 406.082 141.081 409.399 143.271C417.583 148.673 423.631 156.045 428.296 164.588C435.708 178.17 439.714 192.821 441.765 208.074C441.785 208.204 441.72 208.348 441.643 208.76Z" fill="#D9918B"/>
<path d="M222.41 238.276C223.681 242.434 224.856 246.624 226.24 250.743C229.412 260.188 233.561 269.139 240.706 276.302C247.306 282.919 255.191 286.273 264.739 285.08C269.762 284.456 274.281 287.055 276.558 291.554C278.646 295.683 277.908 300.928 274.756 304.346C271.427 307.954 266.209 309.208 261.568 307.248C253.642 303.89 247.208 298.582 241.952 291.784C233.71 281.123 228.802 268.918 225.537 255.996C224.064 250.176 223.069 244.235 221.857 238.349L222.41 238.276Z" fill="#D9918B"/>
<path d="M220.426 208.539C218.33 202.363 216.475 196.094 214.082 190.037C210.856 181.878 206.574 174.308 199.791 168.453C193.388 162.924 185.988 160.708 177.584 161.587C171.494 162.223 166.068 157.999 165.013 151.97C164 146.163 167.84 140.343 173.709 138.969C176.531 138.307 179.293 138.63 181.99 139.864C191.918 144.407 199.212 151.816 204.868 160.945C213.913 175.548 218.184 191.741 220.426 208.539Z" fill="#D9918B"/>
<path d="M1.20453 207.789C2.56109 195.293 5.60492 183.305 10.6789 171.866C14.7877 162.599 19.9602 154.013 27.8377 147.485C31.5281 144.443 35.5548 141.835 39.8389 139.71C45.5891 136.854 52.2194 139.274 55.0419 144.621C57.8414 149.921 56.3607 156.609 51.2962 159.577C49.2121 160.799 46.4449 161.781 44.1313 161.535C32.0127 160.248 22.973 165.317 15.8338 174.535C9.08476 183.255 5.33901 193.392 2.48685 203.91C2.18359 205.031 1.86548 206.149 1.53252 207.264C1.47583 207.453 1.31116 207.613 1.20453 207.789Z" fill="#D9918B"/>
<path d="M0.886475 14.3043C2.62639 19.8412 4.09093 24.8528 5.7782 29.7848C8.19302 36.8383 11.3988 43.5758 16.1353 49.3369C23.2327 57.9677 32.0361 63.2197 43.8065 61.6869C48.3662 61.0941 52.8503 63.6964 55.1328 67.9626C57.3155 72.0383 56.6406 77.2389 53.4428 80.9959C50.7824 84.1209 45.2927 85.6767 41.25 84.2236C33.88 81.5739 27.9422 76.8162 22.8547 71.0079C15.019 62.0624 9.69534 51.6664 6.49628 40.2887C4.30013 32.4749 2.83828 24.4531 1.06463 16.5204C0.945843 15.9884 0.971513 15.4225 0.886475 14.3043Z" fill="#D9918B"/>
<path d="M222.457 432.041C223.624 420.281 226.332 408.96 230.782 398.066C234.782 388.273 239.896 379.16 247.83 372.057C251.563 368.732 255.692 365.881 260.123 363.568C267.817 359.545 275.935 363.474 277.536 371.513C278.842 378.051 273.82 384.564 267.158 384.937C266.071 384.995 264.98 384.979 263.895 384.89C253.188 384.044 244.882 388.525 238.226 396.546C231.167 405.054 227.312 415.132 224.263 425.581C223.642 427.729 223.06 429.889 222.457 432.041Z" fill="#D9918B"/>
<path d="M110.169 350.032C108.773 356.545 107.619 363.12 105.929 369.555C102.802 381.454 98.0812 392.673 90.6572 402.618C85.6076 409.385 79.3647 414.727 71.7369 418.359C63.8216 422.126 55.7308 418.17 54.3499 409.955C53.158 402.865 59.4954 395.931 66.6737 396.786C77.9339 398.127 86.6186 393.667 93.67 385.307C101.172 376.416 104.886 365.711 108.113 354.787C108.595 353.157 109.013 351.508 109.463 349.868L110.169 350.032Z" fill="#D9918B"/>
<path d="M236.52 112.382C240.072 113.028 243.641 113.589 247.172 114.335C260.849 117.222 273.947 121.611 285.693 129.441C293.963 134.954 300.628 141.906 304.832 151.014C307.936 157.73 305.032 165.226 298.574 167.429C290.07 170.328 282.158 163.782 283.146 154.599C283.7 149.734 282.906 144.81 280.851 140.365C278.145 134.449 273.782 129.944 268.493 126.281C259.764 120.235 249.964 116.662 239.815 113.905C238.699 113.603 237.58 113.306 236.464 113.006C236.483 112.798 236.501 112.59 236.52 112.382Z" fill="#D9918B"/>
<path d="M235.938 110.866C241.893 108.899 247.381 107.269 252.733 105.276C261.102 102.157 268.931 98.0411 275.151 91.4251C281.124 85.0685 284.069 77.5923 283.125 68.7683C282.538 63.284 284.541 58.8923 289.44 56.4385C293.609 54.3507 297.911 54.9381 301.786 57.7403C305.615 60.5075 307.218 66.5251 305.234 71.3166C301.689 79.8854 295.807 86.5688 288.417 92.0396C277.221 100.322 264.48 105.035 251.087 108.207C247.064 109.161 242.975 109.846 238.909 110.618C238.108 110.765 237.271 110.758 235.938 110.866Z" fill="#D9918B"/>
<path d="M331.234 127.087C330.444 131.349 329.799 135.643 328.837 139.865C325.909 152.694 321.61 164.984 314.225 176.035C309.212 183.532 302.932 189.639 295.021 194.044C289.176 197.299 283.696 197.219 279.564 193.695C275.92 190.589 274.524 185.107 276.275 180.798C278.197 176.071 283.131 172.769 287.963 173.38C300.2 174.922 309.163 169.537 316.309 160.237C323.406 150.997 327.001 140.185 330.045 129.139C330.236 128.443 330.435 127.748 330.631 127.053L331.234 127.087Z" fill="#D9918B"/>
<path d="M220.251 432.076C218.951 427.787 217.754 423.464 216.328 419.216C213.844 411.815 210.621 404.749 205.914 398.464C198.982 389.205 190.121 383.765 178.127 384.946C170.741 385.673 166.471 380.941 165.294 376.517C164.131 372.149 165.286 368.338 168.546 365.184C172.143 361.704 176.469 361.149 180.877 362.846C188.062 365.614 193.932 370.371 198.89 376.207C208.379 387.378 213.709 400.584 217.197 414.61C218.621 420.337 219.596 426.177 220.774 431.966L220.251 432.076Z" fill="#D9918B"/>
<path d="M333.141 349.937C334.059 353.132 334.908 356.349 335.907 359.518C338.785 368.648 342.458 377.399 348.595 384.892C355.689 393.553 364.492 398.135 376.028 396.805C380.854 396.249 384.62 398.624 387 402.866C389.295 406.962 388.706 411.936 385.669 415.706C382.933 419.103 377.913 420.747 373.667 419.385C367.817 417.508 362.884 414.041 358.454 409.88C349.951 401.889 344.514 391.919 340.406 381.162C336.685 371.421 334.228 361.337 332.881 350.991C332.859 350.654 332.859 350.315 332.881 349.977L333.141 349.937Z" fill="#D9918B"/>
<path d="M111.967 127.369C113.16 131.228 114.273 135.116 115.566 138.941C118.588 147.879 122.467 156.377 128.942 163.424C135.672 170.749 143.805 174.633 153.966 173.403C158.773 172.818 163.267 175.131 165.636 179.384C167.826 183.314 167.443 188.485 164.707 191.914C161.594 195.814 156.676 197.506 152.019 195.922C145.343 193.648 139.911 189.423 135.075 184.392C126.737 175.719 121.348 165.266 117.797 153.957C115.304 146.017 113.796 137.767 111.874 129.649C111.703 128.925 111.72 128.163 111.65 127.408L111.967 127.369Z" fill="#D9918B"/>
<path d="M222.454 208.66C224.035 193.835 227.718 179.675 234.574 166.498C240.33 155.445 247.995 146.147 259.419 140.434C266.18 137.05 272.987 138.604 276.291 144.597C278.473 148.555 278.363 152.599 275.842 156.377C273.36 160.095 269.788 162.155 265.278 161.643C253.948 160.344 245.136 164.756 238.124 173.303C231.112 181.851 227.217 191.929 224.221 202.414C223.615 204.489 223.038 206.575 222.454 208.66Z" fill="#D9918B"/>
<path d="M332.285 320.065C334.057 312.453 335.541 304.758 337.667 297.242C340.897 285.835 345.766 275.132 353.265 265.818C358.394 259.448 364.539 254.297 372.199 251.195C378.408 248.682 385.071 251.353 387.515 257.551C389.726 263.158 387.7 269.668 381.328 272.392C379.978 272.972 378.343 273.357 376.906 273.203C360.373 271.5 350.337 280.447 342.89 293.745C338.957 300.767 336.483 308.35 334.298 316.045C333.903 317.436 333.548 318.838 333.176 320.231L332.285 320.065Z" fill="#D9918B"/>
<path d="M95.472 224.52C90.367 226.141 85.2134 227.626 80.1691 229.426C72.5993 232.138 65.4818 235.794 59.4225 241.155C52.1335 247.602 47.9693 255.521 48.8088 265.561C49.1261 269.364 48.7441 272.941 45.9918 275.946C42.0989 280.195 35.9303 281.078 31.1344 277.98C28.8258 276.485 27.1214 274.22 26.324 271.587C25.5265 268.953 25.6876 266.123 26.7785 263.597C30.3623 255.218 36.1301 248.623 43.3583 243.22C54.0218 235.252 66.1432 230.526 78.9435 227.403C84.3549 226.083 89.8527 225.118 95.3113 223.992L95.472 224.52Z" fill="#D9918B"/>
<path d="M236.583 335.799C240.215 336.444 243.872 336.971 247.477 337.757C260.834 340.673 273.696 344.881 285.214 352.52C292.649 357.454 298.966 363.459 303.287 371.369C305.263 374.989 306.919 378.641 305.716 382.983C304.156 388.602 298.82 392.166 292.873 391.402C287.463 390.702 283.154 385.815 283.044 380.282C282.977 376.811 283.314 373.27 282.739 369.883C281.312 361.446 276.15 355.34 269.486 350.366C261.554 344.442 252.434 341.066 243.084 338.23C240.877 337.554 238.637 336.987 236.414 336.37C236.47 336.177 236.526 335.991 236.583 335.799Z" fill="#D9918B"/>
<path d="M206.181 112.763C200.528 114.611 194.766 116.184 189.247 118.368C179.848 122.085 171.001 126.784 164.815 135.209C160.458 141.139 158.596 147.769 159.518 155.127C160.138 160.076 157.62 164.731 153.143 167.049C149.319 169.029 143.829 168.265 140.487 165.273C136.758 161.942 135.436 156.975 137.276 152.383C140.848 143.477 146.98 136.598 154.664 131.046C166.363 122.584 179.636 117.822 193.592 114.752C197.756 113.837 201.978 113.184 206.173 112.411L206.181 112.763Z" fill="#D9918B"/>
<path d="M236.464 334.054C241.826 332.298 247.254 330.712 252.537 328.745C260.619 325.735 268.228 321.812 274.391 315.594C280.87 309.056 284.109 301.295 283.124 291.944C282.546 286.435 285.295 281.578 289.842 279.63C294.546 277.615 299.905 278.737 303.317 282.736C306.352 286.289 307.005 290.433 305.207 294.768C301.968 302.601 296.729 308.933 290.105 314.134C277.883 323.732 263.687 328.838 248.72 332.122C244.695 333.006 240.621 333.694 236.572 334.472L236.464 334.054Z" fill="#D9918B"/>
<path d="M110.085 126.122C109.231 130.749 108.559 134.96 107.664 139.122C104.752 152.659 100.139 165.525 92.2489 177.038C86.9738 184.735 80.3084 190.888 71.8356 194.931C63.7232 198.802 55.5811 194.745 54.2961 186.253C53.2743 179.494 59.5159 172.585 66.3095 173.402C79.2879 174.961 88.6421 169.216 95.8529 159.14C102.467 149.901 106.005 139.295 108.923 128.45C109.073 127.891 109.211 127.327 109.381 126.773C109.421 126.662 109.576 126.588 110.085 126.122Z" fill="#D9918B"/>
<path d="M427.324 334.395C423.626 333.733 419.9 333.196 416.234 332.388C402.539 329.375 389.322 325.085 377.677 316.972C369.601 311.348 362.841 304.51 358.893 295.28C356.672 290.091 358.012 284.429 362.213 281.1C366.128 277.994 372.016 277.883 376.23 280.939C379.249 283.129 380.765 286.172 380.811 289.899C380.842 292.295 380.661 294.696 380.755 297.088C381.053 304.703 384.508 310.949 389.906 315.985C399.516 324.947 411.43 329.49 423.881 332.834C425.064 333.151 426.234 333.518 427.41 333.864L427.324 334.395Z" fill="#D9918B"/>
<path d="M317.082 224.292C310.747 226.422 304.824 228.154 299.104 230.402C291.156 233.522 283.758 237.613 277.848 244.025C271.878 250.507 269.238 258.052 270.107 266.81C270.602 271.807 268.428 276.137 264.149 278.476C260.176 280.646 254.877 280.119 251.227 277.19C247.845 274.474 246.254 269.122 247.731 264.68C249.479 259.424 252.577 254.94 256.259 250.864C264.659 241.562 275.274 235.72 286.868 231.456C295.963 228.111 305.378 226.006 314.921 224.434C315.48 224.346 316.055 224.358 317.082 224.292Z" fill="#D9918B"/>
<path d="M347.229 0.786865C350.612 1.36757 354.016 1.84428 357.374 2.54248C371.334 5.46084 384.716 9.87823 396.665 17.9527C404.898 23.518 411.345 30.6471 415.682 39.6223C417.661 43.717 416.825 49.393 413.792 52.6841C410.587 56.1696 405.356 57.3945 400.992 55.6794C396.484 53.909 393.81 49.8211 393.745 44.7798C393.7 41.305 393.974 37.7465 393.327 34.3744C391.765 26.2608 386.793 20.266 380.312 15.4422C371.717 9.04634 361.858 5.42978 351.675 2.55193C350.161 2.12383 348.637 1.72545 347.117 1.31355C347.157 1.14069 347.193 0.963777 347.229 0.786865Z" fill="#D9918B"/>
<path d="M427.327 112.675C421.025 114.836 414.628 116.772 408.442 119.233C401.33 122.069 394.759 125.885 389.285 131.406C383.026 137.721 380.205 145.274 380.751 154.121C380.927 156.973 380.915 159.767 379.344 162.359C376.196 167.539 370.03 169.569 364.605 167.129C359.206 164.698 356.496 158.654 358.404 152.907C360.389 146.934 364.055 141.994 368.442 137.591C380.52 125.472 395.697 119.384 411.942 115.473C417.005 114.258 422.145 113.352 427.25 112.305L427.327 112.675Z" fill="#D9918B"/>
<path d="M427.292 336.069C420.986 338.243 414.604 340.234 408.395 342.643C402.202 345.043 396.461 348.376 391.449 352.792C384.06 359.297 379.934 367.279 380.744 377.393C380.973 380.248 380.923 383.065 379.394 385.646C376.237 390.961 369.937 393.007 364.484 390.458C361.822 389.206 359.735 386.99 358.643 384.257C357.552 381.525 357.538 378.48 358.604 375.737C361.186 369.113 365.341 363.526 370.607 358.812C384.357 346.502 401.134 340.898 418.784 337.303C421.612 336.728 424.475 336.323 427.322 335.838L427.292 336.069Z" fill="#D9918B"/>
<path d="M109.566 96.9192C108.652 93.8131 107.757 90.7071 106.818 87.6185C104.056 78.515 100.362 69.8423 94.4197 62.3256C87.6112 53.7109 79.0007 48.9087 67.6285 49.7662C60.6608 50.2929 56.2226 47.2975 54.6122 41.3933C53.419 37.0205 54.6123 33.1338 57.8842 30.0628C61.3829 26.7852 65.6159 26.0249 70.0406 27.7117C77.4754 30.5477 83.474 35.458 88.5331 41.4986C98.0992 52.9087 103.303 66.4094 106.834 80.6407C108.022 85.4281 108.749 90.3289 109.669 95.1812C109.774 95.7335 109.782 96.3048 109.835 96.8666L109.566 96.9192Z" fill="#D9918B"/>
<path d="M205.871 110.911C203.101 110.451 200.317 110.064 197.564 109.52C183.194 106.684 169.418 102.249 157.085 94.0837C148.744 88.563 141.991 81.6067 137.782 72.3817C135.679 67.7752 136.072 63.4172 139.115 59.4468C142.064 55.5994 148.038 54.2286 152.588 56.0909C156.973 57.8844 160.156 63.0337 159.558 67.8657C158.138 79.3366 162.85 88.1119 171.456 95.1047C180.625 102.555 191.52 106.386 202.712 109.507C203.804 109.811 204.903 110.087 205.998 110.376L205.871 110.911Z" fill="#D9918B"/>
<path d="M95.4643 222.646C91.9845 222.045 88.4831 221.543 85.0276 220.825C72.1436 218.152 59.7509 214.112 48.4975 207.109C39.1838 201.315 31.5277 193.967 27.0004 183.735C24.9473 179.092 25.6587 174.099 29.0251 170.576C32.2174 167.231 37.3305 166.031 41.4663 167.656C46.1461 169.495 48.9497 173.674 48.8674 178.915C48.7931 183.565 48.5218 188.186 50.2415 192.69C53.3569 200.844 59.2852 206.42 66.5013 210.843C74.8878 215.983 84.0881 219.108 93.5355 221.599C94.2171 221.779 94.8853 222.004 95.5602 222.212L95.4643 222.646Z" fill="#D9918B"/>
<path d="M316.553 446.139C311.726 445.193 306.868 444.376 302.08 443.265C291.055 440.699 280.472 436.934 270.728 431.067C261.53 425.53 253.947 418.415 248.987 408.723C245.534 401.98 247.216 394.863 253.287 391.731C257.337 389.639 261.509 389.778 265.269 392.416C268.759 394.864 270.504 398.287 270.065 402.725C268.941 414.11 273.335 423.132 282.103 430.181C290.773 437.153 300.944 440.976 311.468 444.032C313.07 444.496 314.681 444.937 316.286 445.399C316.413 445.458 316.531 445.535 316.635 445.628C316.607 445.798 316.58 445.969 316.553 446.139Z" fill="#D9918B"/>
<path d="M126.329 445.501C130.68 444.142 135.082 442.924 139.371 441.395C148.402 438.176 156.943 434.053 163.842 427.142C170.645 420.326 173.459 412.097 172.461 402.552C171.864 396.84 176.619 391.027 182.397 390.486C189.206 389.85 194.904 394.133 195.27 400.546C195.405 402.842 194.976 405.388 194.055 407.488C190.14 416.388 183.661 423.153 175.689 428.578C160.781 438.71 143.931 443.247 126.329 445.501Z" fill="#D9918B"/>
<path d="M331.092 320.21C328.839 313.593 326.998 307.381 324.621 301.386C321.516 293.569 317.338 286.37 310.97 280.639C304.808 275.093 297.66 272.549 289.381 273.187C286.451 273.412 283.586 273.322 280.981 271.621C275.961 268.352 274.08 261.863 276.718 256.688C279.525 251.185 286.082 248.518 291.727 251.268C296.118 253.409 300.416 256.053 304.127 259.212C314.207 267.796 320.077 279.214 324.422 291.488C327.448 299.983 329.596 308.766 330.83 317.699C330.926 318.395 330.978 319.101 331.092 320.21Z" fill="#D9918B"/>
<path d="M222.634 15.7115C223.927 19.921 225.008 23.8144 226.314 27.6227C229.661 37.4042 234.029 46.6468 241.681 53.8772C248.208 60.0421 255.98 62.8524 265.017 61.7504C271.226 60.9942 277.132 65.841 277.751 72.1774C278.357 78.372 273.461 84.1399 267.267 84.6855C261.973 85.1528 257.914 82.3424 253.904 79.6482C243.663 72.7784 237.126 62.9024 232.146 51.8866C227.287 41.1585 224.401 29.8415 222.548 18.2423C222.476 17.7394 222.436 17.2324 222.427 16.7244C222.41 16.5205 222.503 16.3139 222.634 15.7115Z" fill="#D9918B"/>
<path d="M126.075 224.172L135.215 225.793C144.985 227.527 154.494 230.304 163.426 234.539C176.654 240.814 188.15 249.248 194.347 263.219C196.314 267.652 195.832 271.924 192.705 275.681C189.549 279.462 185.416 280.653 180.728 279.316C176.04 277.979 173.288 274.694 172.483 269.872C172.336 268.869 172.33 267.85 172.466 266.845C173.5 258.118 170.768 250.632 164.938 244.228C158.459 237.113 150.177 232.791 141.309 229.524C136.295 227.677 131.155 226.171 126.071 224.511L126.075 224.172Z" fill="#D9918B"/>
<path d="M441.977 238.314C441.21 242.426 440.551 246.562 439.656 250.646C436.438 265.331 431.422 279.259 422.25 291.411C417.668 297.489 412.061 302.41 405.356 305.917C400.279 308.572 395.056 309.408 390.14 305.142C386.711 302.171 385.573 298.472 386.484 294.185C387.443 289.673 390.37 286.787 394.757 285.496C396.049 285.116 397.508 284.926 398.834 285.091C410.128 286.546 418.776 281.85 425.744 273.466C432.81 264.971 436.677 254.872 439.695 244.4C440.292 242.334 440.866 240.261 441.45 238.188L441.977 238.314Z" fill="#D9918B"/>
<path d="M220.116 14.7202C217.933 32.8692 213.294 50.1674 202.838 65.4088C197.481 73.2145 190.727 79.5023 182.02 83.4592C175.611 86.3721 168.855 84.1114 166.029 78.2099C162.204 70.2259 168.53 60.7888 177.34 61.726C190.043 63.0846 199.207 57.5004 206.342 47.6609C212.939 38.5614 216.517 28.1263 219.389 17.4023C219.628 16.5069 219.875 15.6142 220.116 14.7202Z" fill="#D9918B"/>
<path d="M1.008 238.116C2.64937 243.321 4.07882 248.42 5.86733 253.391C8.98675 262.079 13.186 270.175 19.8771 276.734C26.4912 283.216 34.3322 286.225 43.6446 285.098C49.0614 284.443 54.2015 287.875 55.8928 293.18C57.5315 298.32 55.199 303.792 50.4868 306.585C46.764 308.793 43.0831 308.39 39.4183 306.862C34.1257 304.656 29.6187 301.249 25.5436 297.236C16.7887 288.611 11.434 277.955 7.38587 266.569C4.30797 257.865 2.17512 248.855 1.02418 239.695C0.955337 239.219 1.008 238.737 1.008 238.116Z" fill="#D9918B"/>
<path d="M206.078 334.584C199.843 333.255 193.548 332.153 187.386 330.546C175.857 327.534 164.899 323.118 155.135 316.109C147.686 310.76 141.614 304.225 137.803 295.782C134.472 288.398 138.103 280.542 145.513 278.963C153.234 277.32 160.438 283.541 159.531 291.312C158.203 302.688 162.803 311.434 171.311 318.396C179.736 325.292 189.718 329.085 200.027 332.118C202.104 332.728 204.195 333.297 206.279 333.884C206.213 334.115 206.146 334.349 206.078 334.584Z" fill="#D9918B"/>
<path d="M14.644 110.603C17.8309 109.703 20.4738 109.011 23.083 108.208C33.293 105.065 43.0845 101.066 51.2374 93.8926C58.7181 87.3104 62.7109 79.1954 61.8834 69.0317C61.6567 66.2376 61.8348 63.5218 63.3075 61.0099C66.2771 55.9308 72.5686 53.8525 77.8855 56.2374C83.3752 58.6966 86.1855 64.9682 84.1419 70.6334C81.1615 78.8956 75.6218 85.3049 68.8579 90.6609C56.1791 100.702 41.35 105.835 25.7556 109.097C22.4877 109.781 19.1739 110.241 15.8777 110.791C15.6833 110.822 15.4673 110.733 14.644 110.603Z" fill="#D9918B"/>
<path d="M333.134 96.8658C334.186 85.1951 336.995 74.0253 341.342 63.2513C344.852 54.5583 349.359 46.4447 355.771 39.5357C360.307 34.6483 365.527 30.5726 371.727 27.9986C378.327 25.2585 384.859 27.8879 387.552 34.1311C390.713 41.4614 384.801 50.6257 376.921 49.8479C362.034 48.3799 352.11 55.4442 344.66 67.3661C339.36 75.8525 336.224 85.2032 333.727 94.8091C333.557 95.5005 333.335 96.1811 333.134 96.8658Z" fill="#D9918B"/>
<path d="M15.339 335.831C18.8188 336.451 22.3175 336.98 25.7744 337.704C40.397 340.767 54.3702 345.487 66.5915 354.394C74.1032 359.871 80.3096 366.523 83.8056 375.306C85.6954 380.033 84.9638 384.513 81.3544 388.205C78.0325 391.603 72.9032 392.44 68.6364 390.588C64.2172 388.671 61.6714 384.5 61.8523 379.189C62.0075 374.597 62.0736 370.026 60.3675 365.649C57.3979 358.006 51.8366 352.606 45.1146 348.277C36.963 343.027 27.9476 339.834 18.6487 337.338C17.5325 337.039 16.4175 336.734 15.3026 336.432L15.339 335.831Z" fill="#D9918B"/>
<path d="M427.275 111.14C421.75 110.003 416.174 109.066 410.71 107.69C397.439 104.349 384.813 99.4603 373.954 90.8551C367.502 85.7422 362.21 79.6232 358.921 71.9579C355.257 63.4378 361.102 54.942 370.335 55.362C375.833 55.6172 380.564 60.4047 380.792 66.0307C380.865 67.8431 380.757 69.6621 380.701 71.4772C380.417 80.6914 384.578 87.8759 391.202 93.7599C400.228 101.776 411.223 105.899 422.633 109.103C424.229 109.553 425.825 109.998 427.422 110.44C427.374 110.676 427.324 110.906 427.275 111.14Z" fill="#D9918B"/>
<path d="M347.104 445.623C350.968 444.439 354.852 443.31 358.696 442.059C366.757 439.438 374.405 435.966 381.138 430.715C387.212 425.982 391.865 420.181 393.322 412.465C393.972 409.02 393.704 405.39 393.748 401.842C393.797 397.832 395.385 394.658 398.69 392.418C403.051 389.462 408.651 389.582 412.65 393.079C416.351 396.31 418.041 401.182 415.857 406.531C412.407 414.977 406.505 421.508 399.307 426.895C386.822 436.239 372.468 441.154 357.379 444.223C354.004 444.91 350.584 445.426 347.185 446.021L347.104 445.623Z" fill="#D9918B"/>
<path d="M316.365 0.981711C309.666 3.3815 302.751 5.59897 296.045 8.33367C289.21 11.1197 283.007 15.0185 277.94 20.5473C271.969 27.0633 268.983 34.6192 270.166 43.4743C270.778 48.0443 267.879 53.2138 263.972 55.2949C260.32 57.2423 254.703 56.5792 251.229 53.777C247.824 51.0328 246.261 45.7498 247.735 41.2797C249.52 35.8698 252.766 31.3092 256.566 27.1552C264.763 18.1962 275.07 12.5215 286.281 8.30531C295.771 4.73737 305.569 2.3835 315.604 0.988466C315.857 0.961221 316.112 0.958957 316.365 0.981711V0.981711Z" fill="#D9918B"/>
<path d="M206.191 336.161C200.926 337.842 195.97 339.267 191.132 341.005C182.662 344.055 174.74 348.112 168.276 354.576C161.559 361.29 158.357 369.257 159.546 378.848C160.131 383.562 157.507 388.166 153.217 390.355C149.168 392.427 143.79 391.692 140.394 388.599C136.763 385.3 135.483 380.328 137.23 375.886C141.101 366.047 148.065 358.772 156.682 353.005C171.378 343.172 187.925 338.525 205.208 336.049C205.402 336.023 205.625 336.094 206.191 336.161Z" fill="#D9918B"/>
<path d="M346.886 224.072C351.341 224.882 355.481 225.488 359.556 226.396C371.822 229.129 383.639 233.078 394.355 239.841C403.511 245.619 411.042 252.914 415.557 262.946C418.644 269.81 415.422 277.268 408.545 279.344C406.854 279.869 405.065 279.993 403.318 279.707C401.572 279.42 399.916 278.731 398.481 277.693C397.047 276.656 395.874 275.299 395.055 273.729C394.235 272.159 393.793 270.42 393.762 268.65C393.67 265.026 393.98 261.323 393.33 257.8C391.807 249.57 386.729 243.563 380.157 238.719C370.919 231.909 360.3 228.239 349.373 225.289C348.672 225.099 347.978 224.883 347.283 224.674C347.232 224.655 347.205 224.561 346.886 224.072Z" fill="#D9918B"/>
<path d="M333.029 126.572C334.494 131.273 335.806 136.025 337.454 140.666C340.769 149.984 345.119 158.729 352.452 165.649C358.835 171.674 366.386 174.41 375.159 173.497C380.297 172.957 384.831 175.274 387.09 179.709C389.262 183.968 388.493 189.5 385.257 192.894C381.944 196.37 376.584 197.462 371.968 195.46C364.059 192.027 357.66 186.667 352.439 179.848C342.76 167.196 337.775 152.558 334.519 137.207C333.784 133.736 333.288 130.216 332.684 126.717L333.029 126.572Z" fill="#D9918B"/>
<path d="M316.453 222.9C310.179 221.49 303.878 220.186 297.637 218.646C285.615 215.675 274.382 210.905 264.419 203.431C257.94 198.569 252.676 192.627 248.995 185.363C246.655 180.749 246.391 176.2 249.359 171.723C252.001 167.741 257.814 165.931 262.558 167.627C267.37 169.347 270.808 174.338 270.204 179.115C268.643 191.49 274.013 200.679 283.459 207.88C290.161 212.986 297.789 216.366 305.806 218.879C309.395 220.004 312.989 221.113 316.583 222.23L316.453 222.9Z" fill="#D9918B"/>
<path d="M346.93 222.501C353.155 220.397 359.213 218.584 365.074 216.309C373.409 213.068 381.072 208.662 386.999 201.736C391.889 196.021 394.339 189.457 393.883 181.868C393.775 180.061 393.655 178.2 393.952 176.433C394.721 171.865 397.461 168.757 401.883 167.488C406.338 166.209 410.463 167.18 413.658 170.657C416.961 174.254 417.628 178.556 415.874 183.049C413.457 189.249 409.487 194.422 404.671 198.973C394.98 208.137 383.319 213.775 370.696 217.415C363.456 219.501 355.983 220.775 348.608 222.398C348.145 222.501 347.649 222.462 346.93 222.501Z" fill="#D9918B"/>
<path d="M442.09 14.9739C440.858 20.916 439.895 26.9431 438.335 32.8001C434.975 45.427 430.337 57.5137 422.246 68.0163C417.005 74.8146 410.645 80.1895 402.759 83.6818C398.151 85.7223 392.787 84.773 389.463 81.3293C387.775 79.6005 386.671 77.3856 386.307 74.9963C385.942 72.607 386.336 70.1634 387.432 68.0096C389.625 63.6192 394.494 61.1559 399.594 61.7542C407.972 62.7373 415.199 60.0648 421.438 54.5737C429.017 47.9065 433.469 39.2351 436.795 29.9169C438.332 25.6129 439.528 21.1861 440.879 16.8173C441.083 16.1583 441.292 15.5006 441.499 14.8416L442.09 14.9739Z" fill="#D9918B"/>
<path d="M96.0288 0.964896C90.72 2.63408 85.8418 4.00346 81.081 5.69965C73.4464 8.42085 66.2141 11.955 59.9942 17.2867C52.4622 23.7433 48.0807 31.6422 48.7907 41.8652C49.0013 44.9281 49.0269 47.9424 47.3478 50.7473C44.6049 55.3281 38.9924 57.5874 33.9697 55.9979C28.7878 54.3584 25.4281 49.3225 26.0166 43.8964C26.6591 37.9745 30.0661 33.3748 33.6687 29.0088C41.4086 19.623 51.5686 13.6607 62.6992 9.18791C72.9375 5.07438 83.5741 2.48688 94.4846 0.964896C94.8234 0.923031 95.1798 0.964896 96.0288 0.964896Z" fill="#D9918B"/>
<path d="M0.561523 431.006C1.96263 424.641 3.12617 418.21 4.81614 411.925C8.10969 399.701 12.915 388.116 20.8384 378.077C26.0501 371.48 32.3308 366.148 40.1678 362.883C45.9302 360.482 52.304 362.814 55.1305 368.219C57.8598 373.441 56.0997 380.035 51.127 383.209C48.6973 384.763 46.0125 385.117 43.1819 384.931C38.8774 384.647 34.6295 384.836 30.5139 386.405C23.0657 389.241 17.8081 394.585 13.544 401.075C8.29865 409.061 5.08205 417.914 2.55385 427.054C2.17185 428.439 1.77502 429.817 1.38492 431.199L0.561523 431.006Z" fill="#D9918B"/>
<path d="M111.523 319.373C111.998 316.453 112.37 313.513 112.964 310.618C116.026 295.69 120.741 281.408 129.674 268.827C135.036 261.278 141.701 255.248 150.227 251.46C154.719 249.466 159.05 249.783 162.884 253.011C166.558 256.103 167.793 260.125 166.643 264.781C165.365 269.95 160.713 273.175 155.149 273.306C150.965 273.406 146.645 273.356 142.661 274.401C134.022 276.664 128.303 282.887 123.681 290.174C118.33 298.613 115.137 307.952 112.575 317.535C112.407 318.16 112.229 318.783 112.055 319.405L111.523 319.373Z" fill="#D9918B"/>
<path d="M126.206 0.386475C134.084 2.27713 142.048 3.86799 149.819 6.12597C161.206 9.43463 171.781 14.5286 180.945 22.2249C186.814 27.1542 191.454 33.0517 194.5 40.1227C195.623 42.715 195.778 45.6249 194.935 48.3216C194.093 51.0183 192.31 53.3222 189.911 54.8131C185.239 57.7302 179.068 56.8118 175.263 52.5173C173.254 50.2513 172.166 47.4126 172.516 44.4726C174.001 31.9132 168.557 22.6881 158.939 15.4172C150.934 9.36576 141.703 5.89504 132.194 3.07121C130.123 2.45675 128.031 1.91116 125.95 1.33451C126.033 1.01715 126.121 0.702485 126.206 0.386475Z" fill="#D9918B"/>
<path d="M330.833 96.3091C329.04 90.8654 327.41 85.3608 325.416 79.9914C322.542 72.2451 318.725 64.9741 312.863 59.0294C306.864 52.9523 299.805 49.2641 290.932 49.7111C288.158 49.8462 285.117 49.9002 282.603 48.9373C276.615 46.6415 274.176 39.9 276.557 33.7108C278.522 28.6046 284.884 25.6079 290.537 27.4594C296.872 29.5351 302.109 33.442 306.735 38.17C317.027 48.6848 322.932 61.6034 326.758 75.5537C328.444 81.7024 329.495 88.0267 330.814 94.2753C330.96 94.9668 330.976 95.6852 331.051 96.3915L330.833 96.3091Z" fill="#D9918B"/>
<path d="M220.155 238.094C219.387 247.72 217.185 257.018 214.081 266.093C210.868 275.502 206.639 284.431 200.296 292.171C194.996 298.641 188.823 304.11 180.923 307.277C178.547 308.249 175.918 308.414 173.44 307.747C170.961 307.079 168.77 305.617 167.203 303.583C164.099 299.612 164.013 294.037 167.203 289.779C169.885 286.193 173.585 284.559 178.066 285.081C188.422 286.285 196.648 282.308 203.369 274.728C211.239 265.85 215.304 255.072 218.527 243.894C219.079 241.964 219.612 240.026 220.155 238.094Z" fill="#D9918B"/>
<path d="M111.725 350.709C113.932 357.075 115.839 363.333 118.268 369.382C121.353 377.055 125.628 383.995 131.837 389.682C138.404 395.704 146.125 397.665 154.745 396.933C161.432 396.365 166.447 401.314 167.028 407.208C167.956 416.605 158.36 421.98 151.134 419.042C142.821 415.666 136.286 409.994 130.968 402.915C119.744 387.978 114.702 370.639 111.745 352.531C111.651 351.977 111.725 351.395 111.725 350.709Z" fill="#D9918B"/>
<path d="M331.157 350.453C330.629 353.647 330.22 356.866 329.553 360.032C327.183 371.304 323.905 382.286 318.389 392.467C312.355 403.605 304.518 412.955 292.752 418.541C287.232 421.162 278.832 419.756 276.053 411.749C274.086 406.077 278.184 398.304 284.101 397.274C286.275 396.896 288.555 396.924 290.773 397.035C298.627 397.43 305.277 394.64 310.981 389.448C318.321 382.766 322.792 374.248 326.072 365.046C327.461 361.151 328.574 357.157 329.811 353.207C330.108 352.261 330.394 351.305 330.685 350.354L331.157 350.453Z" fill="#D9918B"/>
<path d="M14.9088 334.057C19.9423 332.459 25.0244 330.996 29.9998 329.231C38.9774 326.048 47.3287 321.617 54.017 314.745C59.0032 309.623 61.9661 303.341 61.931 295.954C61.9215 293.994 61.8203 292.031 61.8325 290.07C61.8635 285.106 64.277 281.549 68.7259 279.639C73.1749 277.73 77.4997 278.437 81.0876 281.75C84.62 285.01 85.8119 289.349 84.1314 293.703C82.5872 297.699 80.3371 301.571 77.7198 304.974C68.3669 317.128 55.3547 323.908 41.0898 328.337C33.3487 330.74 25.3051 332.174 17.3911 334.009C16.5812 334.196 15.7349 334.165 14.9048 334.235L14.9088 334.057Z" fill="#D9918B"/>
<path d="M111.47 96.1913C112.086 92.5801 112.55 89.1499 113.27 85.7724C115.294 76.2232 117.994 66.8658 122.27 58.054C125.702 50.9802 129.925 44.4318 135.432 38.7017C139.734 34.2263 144.581 30.6502 150.18 28.0789C157.507 24.7122 165.524 28.8474 166.906 36.6315C168.186 43.8484 161.816 50.8344 154.544 49.935C143.839 48.6088 135.401 52.6967 128.466 60.4889C120.571 69.3615 116.658 80.2165 113.355 91.3552C112.903 92.8853 112.488 94.4262 112.047 95.959C112.035 96.0009 111.92 96.013 111.47 96.1913Z" fill="#D9918B"/>
<path d="M126.426 222.307C132.159 220.351 137.973 218.6 143.604 216.39C152.622 212.847 160.882 208.071 166.915 200.184C171.444 194.262 173.357 187.567 172.467 180.135C171.876 175.196 174.211 170.579 178.533 168.321C182.911 166.035 188.193 166.746 191.905 170.123C195.264 173.177 196.436 178.795 194.533 183.206C191.115 191.124 185.759 197.521 178.991 202.788C169.137 210.452 157.9 215.246 145.93 218.384C139.513 220.068 132.997 221.372 126.525 222.841C126.493 222.667 126.459 222.494 126.426 222.307Z" fill="#D9918B"/>
<path d="M441.735 432.453C440.069 427.155 438.619 422.295 437.01 417.487C434.832 410.977 431.942 404.736 427.887 399.222C420.933 389.769 412.021 383.73 399.595 384.918C394.593 385.395 390.574 383.822 387.88 379.439C386.63 377.413 386.044 375.046 386.205 372.669C386.365 370.293 387.265 368.027 388.776 366.187C391.831 362.461 397.364 360.907 401.832 362.669C410.111 365.936 416.545 371.582 422.028 378.47C427.254 385.028 430.855 392.455 433.895 400.199C437.795 410.129 440.311 420.411 441.724 430.973C441.774 431.308 441.735 431.655 441.735 432.453Z" fill="#D9918B"/>
<path d="M14.944 112.392C18.8423 113.08 22.7595 113.668 26.6321 114.475C38.1393 116.874 49.2496 120.521 59.4326 126.43C70.1461 132.642 79.3612 140.498 84.0127 152.484C86.1387 157.965 83.8116 163.963 78.7795 166.736C71.2205 170.898 61.9837 165.556 61.815 156.94C61.7543 153.824 61.8865 150.681 61.5221 147.6C60.6339 140.098 56.8585 134.095 51.1677 129.295C42.0267 121.584 31.1526 117.432 19.8142 114.284C18.1552 113.823 16.4882 113.398 14.8199 112.956L14.944 112.392Z" fill="#D9918B"/>
<path d="M43.2585 334.883C46.9962 334.232 50.5921 333.615 54.1839 332.98C65.6493 330.954 76.8797 328.135 87.5851 323.425C92.6523 321.197 98.9681 322.729 102.247 326.781C105.953 331.364 106.214 337.911 102.878 342.598C99.67 347.106 93.6498 349.105 88.3005 346.861C75.7472 341.595 62.6351 338.544 49.2814 336.328C47.4214 336.019 45.56 335.723 43.7013 335.404C43.6055 335.381 43.5312 335.204 43.2585 334.883Z" fill="#D9918B"/>
<path d="M399.248 335.33C394.694 336.119 390.126 336.838 385.588 337.711C375.233 339.704 365.079 342.39 355.338 346.523C348.799 349.296 341.994 347.017 338.855 341.121C336.441 336.586 337.1 329.966 340.617 326.456C344.478 322.607 349.604 321.142 355.368 323.655C365.115 327.902 375.359 330.57 385.801 332.484C390.282 333.307 394.773 334.077 399.26 334.869L399.248 335.33Z" fill="#D9918B"/>
<path d="M110.801 154.543C111.381 157.87 111.922 160.916 112.442 163.964C114.529 176.177 117.399 188.164 122.336 199.597C124.624 204.895 122.847 211.027 118.337 214.493C113.986 217.834 107.268 217.666 102.695 214.102C98.3906 210.748 96.7559 204.668 98.9764 199.535C104.743 186.2 107.641 172.12 109.876 157.874C110.011 157.013 110.16 156.154 110.33 155.299C110.365 155.126 110.523 154.979 110.801 154.543Z" fill="#D9918B"/>
<path d="M263.923 111.713C270.942 110.382 277.443 109.523 283.733 107.862C292.142 105.642 300.46 103.012 308.678 100.157C315.007 97.9574 321.354 99.6333 324.719 105.076C328.026 110.424 326.878 117.426 321.795 121.584C318.218 124.506 313.976 125.365 309.703 123.543C295.461 117.487 280.484 114.414 265.295 112.132C265.022 112.091 264.765 111.975 263.923 111.713Z" fill="#D9918B"/>
<path d="M43.3395 111.441C46.0203 110.995 48.701 110.56 51.379 110.104C63.939 107.963 76.2575 104.992 88.0508 100.002C93.7727 97.5808 100.138 99.7996 103.323 104.895C106.555 110.069 105.67 117.165 101.008 121.183C97.351 124.332 92.9668 125.495 88.4085 123.549C75.8147 118.171 62.6027 115.176 49.1815 112.913C47.2351 112.583 45.2806 112.297 43.3287 111.99C43.3328 111.807 43.3368 111.62 43.3395 111.441Z" fill="#D9918B"/>
<path d="M375.652 223.169C379.849 222.402 384.046 221.651 388.239 220.874C398.827 218.891 409.15 216.108 419.17 212.004C426.999 208.796 433.274 211.401 436.519 219.431C438.814 225.123 435.969 232.586 429.463 235.141C425.574 236.669 422.029 235.875 418.137 234.482C410.089 231.603 401.838 229.233 393.571 227.055C388.46 225.704 383.157 225.09 377.941 224.14C377.176 224.005 376.415 223.843 375.647 223.693L375.652 223.169Z" fill="#D9918B"/>
<path d="M177.743 112.007C174.766 112.501 171.784 112.965 168.813 113.493C156.774 115.633 144.921 118.429 133.643 123.324C128.406 125.597 122.283 124.069 118.999 119.897C115.326 115.232 115.03 108.902 118.274 104.474C121.784 99.6908 127.633 97.6137 132.932 99.8825C146.892 105.842 161.579 108.865 176.456 111.226C176.874 111.293 177.286 111.403 177.7 111.497C177.715 111.66 177.731 111.834 177.743 112.007Z" fill="#D9918B"/>
<path d="M399.193 111.891C393.353 112.981 387.495 113.981 381.679 115.182C372.422 117.092 363.395 119.716 354.668 123.458C347.25 126.638 337.877 121.34 337.411 112.404C336.943 103.379 346.05 96.2768 354.977 100.123C367.877 105.686 381.482 108.631 395.287 110.792C396.617 111.001 397.944 111.232 399.273 111.453L399.193 111.891Z" fill="#D9918B"/>
<path d="M264.568 334.885C268.107 334.26 271.647 333.636 275.187 333.011C286.864 330.94 298.324 328.126 309.255 323.381C314.473 321.116 320.437 322.875 324.058 327.513C327.238 331.585 327.337 338.174 324.282 342.413C320.933 347.06 314.958 349.133 309.81 346.952C295.508 340.896 280.482 337.783 265.228 335.505C265.022 335.454 264.821 335.382 264.63 335.29L264.568 334.885Z" fill="#D9918B"/>
<path d="M110.781 377.914C111.383 381.309 111.954 384.349 112.455 387.401C114.458 399.615 117.489 411.533 122.335 422.965C124.573 428.244 122.863 434.348 118.473 437.651C116.197 439.378 113.412 440.299 110.555 440.272C107.698 440.244 104.932 439.269 102.689 437.498C98.3976 434.151 96.763 428.072 98.974 422.947C104.717 409.626 107.645 395.581 109.87 381.344C110.005 380.484 110.152 379.625 110.318 378.772C110.348 378.595 110.488 378.438 110.781 377.914Z" fill="#D9918B"/>
<path d="M221.097 180.225C220.214 175.162 219.44 170.077 218.425 165.041C216.344 154.712 213.397 144.649 209.436 134.852C206.546 127.704 211.421 118.893 220.067 118.256C229.698 117.547 236.425 125.987 232.951 135.024C227.869 148.248 224.436 161.841 222.255 175.794C222.021 177.279 221.774 178.777 221.534 180.269L221.097 180.225Z" fill="#D9918B"/>
<path d="M332.125 378.179C333.062 383.446 333.917 388.726 334.953 393.972C336.883 403.753 339.565 413.31 343.457 422.521C346.233 429.097 343.627 436.119 337.561 438.997C331.339 441.952 324.197 439.713 320.841 433.661C318.711 429.818 319.205 425.944 320.571 421.889C323.207 414.07 325.798 406.215 327.887 398.239C329.606 391.671 330.57 384.905 331.87 378.229L332.125 378.179Z" fill="#D9918B"/>
<path d="M177.699 335.326C172.423 336.271 167.127 337.123 161.875 338.19C152.034 340.187 142.389 342.852 133.143 346.868C128.138 349.041 122.06 347.25 118.678 342.834C115.159 338.243 115.169 331.874 118.697 327.214C121.888 323.003 128.301 321.155 133.259 323.311C146.641 329.126 160.733 332.167 175.074 334.297C175.975 334.432 176.868 334.641 177.764 334.817L177.699 335.326Z" fill="#D9918B"/>
<path d="M110.375 291.668C109.79 288.206 109.238 284.736 108.611 281.28C106.514 269.678 103.752 258.27 99.0397 247.396C96.6572 241.895 98.3904 235.864 103.182 232.196C107.292 229.051 113.908 229.125 118.264 232.366C122.8 235.743 124.624 241.643 122.371 246.951C116.483 260.848 113.426 275.458 111.185 290.288C111.115 290.755 110.938 291.206 110.811 291.664L110.375 291.668Z" fill="#D9918B"/>
<path d="M67.0386 223.695L56.4344 225.511C45.7466 227.345 35.2707 230.007 25.197 234.042C21.9062 235.36 18.7867 236.662 15.1476 235.754C10.4233 234.577 7.07843 231.662 5.99183 227.075C4.78915 221.99 5.55855 217.016 10.1479 213.519C14.0988 210.507 18.321 209.949 23.0265 211.906C32.8423 215.989 43.0456 218.827 53.4945 220.764C57.5615 221.518 61.6433 222.181 65.7171 222.898C66.1692 223.001 66.6157 223.128 67.0548 223.277L67.0386 223.695Z" fill="#D9918B"/>
<path d="M110.396 68.3234C110.105 66.6488 109.792 64.9783 109.524 63.2997C107.365 49.6964 104.376 36.324 98.8879 23.5958C96.7282 18.5991 98.4398 12.6759 102.692 9.21874C106.813 5.86957 113.078 5.55896 117.592 8.48138C122.182 11.4524 124.434 17.1392 122.794 22.375C121.559 26.3197 119.64 30.0646 118.565 34.0444C116.357 42.2323 114.451 50.504 112.545 58.7702C111.823 61.9073 111.443 65.1174 110.907 68.3032L110.396 68.3234Z" fill="#D9918B"/>
<path d="M331.708 291.698C331.361 289.662 331.007 287.629 330.667 285.592C328.487 272.511 325.605 259.632 320.383 247.359C317.962 241.675 319.538 236.032 324.162 232.496C328.595 229.109 335.038 228.984 339.425 232.205C344.014 235.581 345.985 241.645 343.691 246.994C337.876 260.549 334.882 274.807 332.648 289.279C332.523 290.089 332.331 290.899 332.171 291.71L331.708 291.698Z" fill="#D9918B"/>
<path d="M332.231 155.142C332.856 158.851 333.446 162.57 334.114 166.265C336.139 177.435 338.882 188.4 343.374 198.875C345.813 204.563 344.365 210.709 339.864 214.254C335.402 217.765 328.684 217.737 324.072 214.185C319.828 210.917 318.267 205.291 320.179 199.87C321.743 195.421 323.794 191.1 324.903 186.546C327.315 176.688 329.264 166.712 331.4 156.785C331.516 156.244 331.609 155.697 331.714 155.153L332.231 155.142Z" fill="#D9918B"/>
<path d="M154.946 223.078C157.208 222.673 159.464 222.22 161.733 221.855C174.317 219.837 186.597 216.75 198.382 211.786C204.019 209.41 209.831 211.096 213.384 215.814C216.789 220.338 216.718 226.655 213.209 231.23C209.763 235.722 203.781 237.388 198.32 235.003C188.408 230.673 177.983 228.148 167.482 225.878C164.09 225.145 160.613 224.806 157.179 224.257C156.416 224.136 155.675 223.885 154.923 223.693C154.931 223.486 154.938 223.282 154.946 223.078Z" fill="#D9918B"/>
<path d="M288.439 223.616C283.666 224.446 278.881 225.212 274.123 226.122C264.481 227.966 255.014 230.486 245.977 234.36C241.421 236.313 237.081 236.871 232.673 234.172C227.131 230.78 225.169 223.652 228.117 217.517C230.771 211.992 237.785 209.414 243.733 211.544C250.697 214.037 257.636 216.706 264.772 218.579C271.834 220.431 279.132 221.389 286.325 222.738C287.069 222.873 287.81 223.008 288.558 223.151L288.439 223.616Z" fill="#D9918B"/>
<path d="M221.143 403.637C220.257 398.64 219.442 393.643 218.469 388.66C216.483 378.509 213.745 368.58 209.711 359.021C206.859 352.269 209.891 345.151 216.574 342.411C222.868 339.827 230.499 342.963 233.073 349.394C233.699 350.917 234.01 352.55 233.989 354.197C233.967 355.843 233.613 357.468 232.947 358.974C227.143 372.371 224.268 386.524 222.005 400.839C221.927 401.341 221.861 401.846 221.769 402.346C221.692 402.769 221.587 403.185 221.493 403.605L221.143 403.637Z" fill="#D9918B"/>
<path d="M221.48 43.1329C222.357 48.0486 223.206 52.9711 224.119 57.8814C226.021 68.1234 228.881 78.0791 232.893 87.7066C235.104 93.0058 233.686 98.721 229.537 102.157C225.014 105.9 218.621 106.208 213.987 102.913C209.217 99.5164 207.281 93.3245 209.638 87.7673C215.469 74.0087 218.572 59.5709 220.706 44.871C220.787 44.3078 220.948 43.7542 221.071 43.1964L221.48 43.1329Z" fill="#D9918B"/>
<path d="M331.699 68.2778C331.346 66.1711 330.988 64.0657 330.641 61.9576C328.504 48.9607 325.577 36.1852 320.382 24.0094C318.088 18.6291 319.677 12.5304 323.958 9.22579C328.433 5.77804 334.757 5.55791 339.243 8.69235C343.833 11.8943 346.034 17.9323 343.814 23.1762C337.923 37.086 334.823 51.6819 332.519 66.506C332.426 67.1042 332.257 67.6903 332.123 68.2819L331.699 68.2778Z" fill="#D9918B"/>
<path d="M221.526 266.519C222.041 269.575 222.568 272.63 223.066 275.688C225.033 287.811 228.291 299.687 232.785 311.115C235.432 317.842 233.079 324.157 227.04 327.256C222.329 329.675 216.143 328.717 212.28 324.973C208.664 321.468 208.147 315.594 209.903 310.631C212.802 302.436 215.316 294.082 217.509 285.668C219.006 279.926 219.677 273.969 220.73 268.112C220.828 267.572 221.021 267.044 221.17 266.511L221.526 266.519Z" fill="#D9918B"/>
<path d="M109.009 369.891C108.569 373.132 108.189 376.261 107.716 379.374C105.515 393.854 102.714 408.194 96.782 421.689C95.2972 425.047 93.4844 428.377 91.2059 431.228C87.9772 435.266 81.5386 435.12 77.7753 431.403C74.1078 427.78 74.0336 421.596 77.805 418.093C80.2994 415.776 83.184 413.876 85.6677 411.547C95.4633 402.358 101.479 390.839 105.78 378.304C106.725 375.56 107.606 372.797 108.524 370.045C108.535 370.007 108.648 370.002 109.009 369.891Z" fill="#D9918B"/>
<path d="M440.923 258.365C440.467 261.844 440.113 265.339 439.537 268.799C437.66 280.128 435.788 291.487 431.698 302.271C429.625 307.741 427.031 313.047 424.267 318.206C422.37 321.755 418.849 322.992 414.927 322.299C411.147 321.634 408.403 319.517 407.38 315.635C406.31 311.577 407.252 307.937 410.677 305.539C426.287 294.582 434.106 278.625 439.572 261.108C439.867 260.163 440.175 259.218 440.477 258.272L440.923 258.365Z" fill="#D9918B"/>
<path d="M366.55 444.697C367.919 444.262 368.78 443.975 369.655 443.715C381.226 440.254 392.197 435.556 401.76 428.007C406.34 424.39 410.499 420.37 413.603 415.337C415.584 412.125 419.576 410.528 423.236 411.21C427.315 411.971 429.901 414.395 430.752 418.405C431.602 422.414 430.691 426.29 427.017 428.338C421.775 431.259 416.329 433.978 410.684 435.97C396.781 440.874 382.277 443.2 367.69 444.992C367.507 445.013 367.313 444.9 366.55 444.697Z" fill="#D9918B"/>
<path d="M256.099 333.032C259.666 331.834 263.041 330.782 266.358 329.573C278.442 325.171 289.587 319.227 298.364 309.543C300.018 307.719 301.488 305.723 302.975 303.755C305.726 300.117 309.141 298.683 312.986 299.644C317.085 300.671 319.482 303.317 320.233 307.439C320.963 311.443 319.351 315.272 315.411 317.32C310.401 319.93 305.278 322.452 299.963 324.319C285.982 329.245 271.4 331.515 256.741 333.302C256.631 333.315 256.503 333.205 256.099 333.032Z" fill="#D9918B"/>
<path d="M109.139 146.671C107.952 153.963 106.918 161.281 105.539 168.535C103.339 180.122 100.375 191.502 95.0042 202.095C93.9959 204.086 92.8135 206.059 91.3597 207.739C87.8731 211.775 81.6275 211.806 77.7563 208.009C74.0402 204.363 74.0686 198.086 77.9547 194.547C79.9335 192.745 82.2309 191.294 84.2354 189.517C94.2847 180.604 100.618 169.294 105.103 156.823C106.318 153.428 107.385 149.977 108.52 146.55L109.139 146.671Z" fill="#D9918B"/>
<path d="M219.492 259.209C218.847 263.873 218.326 268.558 217.531 273.197C215.279 286.333 212.338 299.293 206.813 311.508C205.722 313.961 204.405 316.307 202.877 318.515C200.827 321.43 197.848 323.051 194.238 322.461C189.973 321.764 186.875 319.441 185.915 314.948C185.072 311.001 186.59 307.687 190.016 305.177C198.852 298.695 205.748 290.486 210.448 280.633C213.408 274.42 215.595 267.849 218.121 261.436C218.431 260.646 218.684 259.834 218.964 259.033L219.492 259.209Z" fill="#D9918B"/>
<path d="M145.681 444.73C150.248 443.11 154.87 441.632 159.372 439.852C168.832 436.114 177.668 431.248 184.987 424.072C187.821 421.294 190.186 418.031 192.691 414.931C195.758 411.135 200.685 409.965 204.784 412.155C208.788 414.295 210.964 419.412 209.094 423.733C208.18 425.848 206.351 427.932 204.393 429.163C195.867 434.519 186.351 437.566 176.602 439.659C166.883 441.746 157.041 443.23 147.25 444.961C146.765 445.047 146.251 444.973 145.75 444.973L145.681 444.73Z" fill="#D9918B"/>
<path d="M256.375 109.569C260.067 108.313 263.799 107.153 267.444 105.787C279.135 101.405 289.93 95.5709 298.395 86.1135C300.085 84.2229 301.583 82.1621 303.138 80.1539C305.831 76.6751 309.482 75.2733 313.262 76.3091C317.268 77.407 319.985 80.5469 320.327 84.7549C320.668 88.963 318.76 92.0029 315.198 94.134C308.153 98.3515 300.506 101.104 292.648 103.27C281.004 106.48 269.115 108.452 257.137 109.913C256.923 109.918 256.709 109.904 256.498 109.87C256.464 109.767 256.425 109.668 256.375 109.569Z" fill="#D9918B"/>
<path d="M334.137 369.965C335.154 373.128 336.069 376.326 337.204 379.446C341.364 390.883 346.766 401.612 355.626 410.218C358.115 412.636 360.881 414.781 363.608 416.94C367.147 419.741 368.498 424.161 366.907 428.221C365.422 432.002 361.318 434.517 357.145 434.125C353.114 433.747 350.666 431.246 348.829 427.874C343.564 418.2 340.308 407.807 338.173 397.083C336.443 388.401 335.23 379.615 333.796 370.872C333.773 370.592 333.773 370.311 333.796 370.032L334.137 369.965Z" fill="#D9918B"/>
<path d="M440.369 412.168C439.74 410.046 439.141 407.915 438.48 405.805C434.395 392.81 428.411 380.882 418.637 371.17C416.383 368.929 413.806 366.991 411.251 365.081C407.967 362.625 406.411 359.465 407.164 355.432C407.917 351.4 410.382 348.815 414.418 347.899C418.405 346.997 422.236 348.439 424.47 351.951C428.962 359.011 431.694 366.84 433.983 374.829C437.397 386.741 439.227 398.962 440.904 411.208C440.94 411.478 440.877 411.763 440.859 412.04L440.369 412.168Z" fill="#D9918B"/>
<path d="M440.978 34.9495C440.388 39.1049 439.859 43.2711 439.199 47.4157C437.423 58.5531 435.321 69.6431 431.251 80.1944C429.227 85.4477 426.676 90.5538 423.827 95.4169C421.85 98.8025 418.192 99.6614 414.411 98.8133C410.528 97.9409 407.995 95.4938 407.221 91.4965C406.476 87.6476 407.573 84.2998 410.799 82.0796C419.959 75.7729 426.748 67.3919 431.613 57.5821C434.791 51.1768 436.972 44.2759 439.577 37.5951C439.917 36.7227 440.151 35.8084 440.434 34.9144L440.978 34.9495Z" fill="#D9918B"/>
<path d="M145.702 1.67078C150.055 2.29334 154.419 2.84839 158.76 3.54928C171.325 5.57499 183.758 8.1868 195.556 13.1309C198.956 14.557 202.228 16.3436 205.409 18.214C208.919 20.2749 210.169 23.6564 209.602 27.5525C209.001 31.6742 206.592 34.4089 202.439 35.3718C198.505 36.2833 195.039 35.1908 192.795 31.9173C184.311 19.5334 172.251 12.0572 158.671 6.64996C154.632 5.04155 150.426 3.85043 146.3 2.4635C146.059 2.35992 145.827 2.23756 145.606 2.09753L145.702 1.67078Z" fill="#D9918B"/>
<path d="M297.684 225.235C293.375 226.72 289.604 227.929 285.893 229.304C274.746 233.433 264.472 239.027 256.096 247.644C253.978 249.821 252.131 252.279 250.309 254.721C247.861 258.004 244.011 259.707 240.456 258.868C236.328 257.893 233.603 255.04 232.961 251.019C232.33 247.054 234.028 243.436 237.629 241.216C244.5 236.981 251.955 234.002 259.747 232.186C270.276 229.73 280.93 227.848 291.543 225.79C293.362 225.439 295.245 225.444 297.684 225.235Z" fill="#D9918B"/>
<path d="M108.627 300.252C107.028 295.677 105.551 291.054 103.803 286.535C100.311 277.517 95.6893 269.102 89.0779 261.991C86.1313 258.82 82.6771 256.092 79.2823 253.376C74.9912 249.943 73.717 244.95 76.3127 240.66C79.0204 236.189 84.4116 234.649 89.2412 237.23C90.6316 237.973 91.8599 239.333 92.7278 240.688C97.0013 247.366 99.6294 254.781 101.808 262.338C105.301 274.451 107.265 286.877 108.908 299.354C108.926 299.636 108.926 299.918 108.908 300.199L108.627 300.252Z" fill="#D9918B"/>
<path d="M256.415 113.419C260.614 114.006 264.824 114.53 269.011 115.191C280.938 117.071 292.75 119.487 304.021 123.93C308.056 125.52 311.953 127.539 315.728 129.687C319.504 131.836 321.024 135.675 320.183 139.716C319.338 143.798 316.403 146.68 312.166 147.253C308.083 147.805 304.996 145.991 302.718 142.68C299.178 137.548 294.809 133.208 289.839 129.486C280.888 122.784 270.807 118.401 260.175 115.149C258.881 114.754 257.596 114.323 256.307 113.908L256.415 113.419Z" fill="#D9918B"/>
<path d="M108.539 76.8623C107.564 73.9156 106.606 70.9634 105.612 68.0221C101.899 57.0293 96.6683 46.8535 88.7625 38.2821C85.9279 35.2097 82.5533 32.6101 79.2841 29.9794C75.977 27.323 74.3438 24.1305 75.3116 19.8913C76.2416 15.8129 79.0168 13.582 82.965 12.7622C86.8107 11.9641 90.4956 13.663 92.7863 17.3147C97.0382 24.0873 99.7 31.5554 101.881 39.1828C105.306 51.1534 107.262 63.4238 108.9 75.7468C108.924 76.0993 108.924 76.453 108.9 76.8056L108.539 76.8623Z" fill="#D9918B"/>
<path d="M35.2602 109.564C39.6255 108.036 44.0462 106.65 48.344 104.955C60.2655 100.254 71.0209 93.7998 79.2264 83.6848C80.2334 82.445 81.1377 81.1189 82.1056 79.8521C84.6135 76.5556 87.9219 75.4212 91.9228 76.3247C95.9506 77.2349 98.1319 80.0074 98.8757 83.8617C99.6437 87.8739 98.2466 91.2461 94.8262 93.5121C88.0866 97.9822 80.5182 100.606 72.8242 102.83C60.8608 106.298 48.6018 108.307 36.2645 109.869C35.9459 109.908 35.6152 109.846 35.2899 109.831C35.2872 109.745 35.2737 109.654 35.2602 109.564Z" fill="#D9918B"/>
<path d="M296.992 445.129C293.806 444.688 290.617 444.278 287.438 443.8C273.774 441.744 260.24 439.108 247.395 433.816C243.855 432.357 240.447 430.507 237.146 428.549C233.662 426.485 232.361 423.11 233.013 419.197C233.657 415.333 235.823 412.536 239.788 411.499C243.774 410.459 247.367 411.442 249.687 414.77C260.364 430.076 275.874 437.92 293.016 443.323C294.192 443.693 295.373 444.051 296.546 444.433C296.733 444.494 296.884 444.659 297.052 444.776C297.034 444.898 297.012 445.014 296.992 445.129Z" fill="#D9918B"/>
<path d="M76.0608 225.235C70.4537 227.284 65.0018 229.041 59.7375 231.245C47.334 236.435 36.5301 243.78 28.6918 255.013C26.2621 258.495 22.4542 259.713 18.5222 258.687C14.9304 257.749 12.2645 254.847 11.7623 251.213C11.1657 246.9 12.6802 243.542 16.3936 241.19C25.0324 235.714 34.6336 232.643 44.5048 230.574C54.5798 228.46 64.7885 226.983 74.9391 225.235C75.2212 225.195 75.5128 225.235 76.0608 225.235Z" fill="#D9918B"/>
<path d="M297.012 2.10959C292.837 3.54919 288.627 4.89831 284.491 6.4473C273.821 10.4433 264.109 16.0289 256.092 24.2492C253.975 26.4235 252.167 28.9137 250.315 31.3338C247.66 34.8045 243.954 36.3562 240.25 35.4108C236.167 34.3683 233.474 31.4188 232.938 27.4012C232.398 23.3498 234.227 19.8278 238.02 17.5779C246.428 12.5906 255.567 9.42779 265.044 7.41018C275.194 5.24943 285.468 3.67613 295.685 1.85975C296.101 1.78547 296.541 1.8503 296.97 1.8503L297.012 2.10959Z" fill="#D9918B"/>
<path d="M186.465 113.512C180.057 115.977 173.507 118.162 167.233 120.983C156.071 126.004 146.452 133.094 139.385 143.321C137.155 146.549 133.913 147.806 130.071 147.164C125.793 146.451 123.221 143.746 122.391 139.579C121.632 135.762 122.717 132.204 126.112 130.279C131.012 127.501 136.101 124.91 141.373 122.964C155.694 117.677 170.696 115.331 185.782 113.511C186.009 113.494 186.237 113.494 186.465 113.512V113.512Z" fill="#D9918B"/>
<path d="M223.592 35.7741C225.347 40.6169 226.937 45.5245 228.884 50.2876C232.999 60.3514 238.574 69.4927 246.701 76.8757C248.579 78.5813 250.616 80.1249 252.634 81.6604C256.165 84.3411 257.66 88.0198 256.656 91.9537C255.647 95.9119 252.905 98.1929 249.066 98.91C244.747 99.7203 241.395 97.8917 239.098 94.1968C234.519 86.8314 231.47 78.7704 229.571 70.4002C227.161 59.7815 225.438 49.006 223.443 38.2955C223.286 37.4609 223.321 36.5912 223.269 35.7377L223.592 35.7741Z" fill="#D9918B"/>
<path d="M367.055 221.202C369.847 220.288 372.654 219.411 375.43 218.453C388.094 214.078 399.705 207.951 408.938 197.977C410.709 196.064 412.29 193.959 413.818 191.842C416.135 188.633 419.252 187.282 423.084 187.817C426.939 188.357 429.999 191.243 430.747 194.95C431.545 198.896 430.721 202.591 427.228 204.793C423.428 207.205 419.414 209.26 415.236 210.933C400.044 216.935 384.046 219.518 367.946 221.563C367.672 221.574 367.398 221.562 367.126 221.525L367.055 221.202Z" fill="#D9918B"/>
<path d="M223.205 187.619C223.446 185.394 223.514 183.135 223.956 180.95C226.14 170.127 228.056 159.23 230.797 148.548C232.663 141.274 235.458 134.182 240.02 128.011C242.971 124.021 248.495 123 252.651 125.839C256.709 128.608 258.321 133.931 255.72 138.087C255.038 139.177 254.321 140.397 253.305 141.102C240.752 149.815 233.044 162.07 227.685 176.036C226.21 179.879 224.986 183.82 223.644 187.717L223.205 187.619Z" fill="#D9918B"/>
<path d="M334 146.328C335.192 149.904 336.246 153.339 337.476 156.713C342.849 171.451 350.531 184.542 363.743 193.754C367.105 196.098 368.18 199.588 367.274 203.574C366.368 207.561 363.689 209.875 359.796 210.574C355.824 211.285 352.452 210.006 350.171 206.532C346.145 200.398 343.66 193.575 341.51 186.623C337.504 173.672 335.312 160.359 333.754 146.919C333.739 146.81 333.854 146.675 334 146.328Z" fill="#D9918B"/>
<path d="M407.542 113.973C405.085 114.755 402.626 115.53 400.172 116.318C391.185 119.202 382.717 123.216 375.044 128.692C369.423 132.704 364.541 137.559 360.648 143.35C358.568 146.445 355.533 147.828 351.843 147.311C347.808 146.744 345.106 144.409 343.905 140.484C342.69 136.507 344.204 132.517 347.613 130.184C356.799 123.898 367.29 120.866 377.934 118.539C387.425 116.459 397.101 115.187 406.685 113.569C406.936 113.528 407.207 113.605 407.469 113.625C407.494 113.741 407.517 113.857 407.542 113.973Z" fill="#D9918B"/>
<path d="M333.681 77.0482C334.952 65.3517 336.854 54.0524 339.724 42.9299C341.928 34.3909 344.767 26.0828 349.143 18.3729C352.052 13.2411 356.51 11.4288 361.575 13.2992C365.057 14.5849 366.944 17.2088 367.465 20.7741C367.963 24.1813 366.982 27.3549 364.162 29.2982C349.328 39.5253 341.445 54.3886 335.986 70.9238C335.349 72.8523 334.78 74.801 334.171 76.7308C334.156 76.7781 334.06 76.8078 333.681 77.0482Z" fill="#D9918B"/>
<path d="M186.741 336.994C181.245 338.955 176.212 340.595 171.291 342.539C162.706 345.931 154.794 350.546 148.016 356.844C145.005 359.643 142.338 362.872 139.844 366.156C137.254 369.566 133.622 371.342 129.676 370.487C125.731 369.632 122.958 366.672 122.266 362.564C121.65 358.901 123.506 355.1 126.946 352.975C136.101 347.303 146.248 344.154 156.625 341.901C165.912 339.876 175.361 338.602 184.741 337.013C185.227 336.922 185.738 336.994 186.741 336.994Z" fill="#D9918B"/>
<path d="M1.68198 188.438C2.16521 184.781 2.56612 181.11 3.14519 177.468C4.92559 166.267 6.97596 155.103 10.8688 144.42C12.7734 139.191 15.2449 134.141 17.8055 129.188C19.8302 125.279 23.7947 123.561 27.9062 124.451C31.8557 125.306 34.4528 127.714 35.3666 131.78C36.2346 135.636 34.7794 139.285 31.2092 141.765C20.5375 149.181 13.478 159.438 8.40812 171.153C5.96765 176.794 4.0671 182.668 1.9209 188.439L1.68198 188.438Z" fill="#D9918B"/>
<path d="M34.7429 333.01C38.4279 331.795 41.6715 330.779 44.8787 329.658C54.762 326.209 64.0015 321.46 71.9222 314.612C75.7166 311.331 78.7914 307.184 81.981 303.25C85.2516 299.219 90.4295 298.153 94.8164 300.919C99.9241 304.14 100.557 313.033 95.4724 316.263C90.7591 319.258 85.7422 321.745 80.5057 323.683C66.0411 329.01 50.8921 331.413 35.6581 333.295C35.5312 333.311 35.3895 333.217 34.7429 333.01Z" fill="#D9918B"/>
<path d="M186.556 333.549C179.905 332.501 173.237 331.548 166.605 330.384C155.425 328.42 144.437 325.696 134.075 320.95C131 319.541 127.882 317.937 125.301 315.793C120.878 312.112 121.15 305.813 125.463 301.822C129.307 298.263 135.87 298.607 138.99 303.037C149.818 318.409 165.392 326.385 182.73 331.746C183.84 332.089 184.947 332.441 186.051 332.8C186.249 332.874 186.443 332.96 186.631 333.055C186.608 333.22 186.583 333.385 186.556 333.549Z" fill="#D9918B"/>
<path d="M329.786 299.866C328.384 295.77 327.12 291.618 325.552 287.587C321.125 276.217 315.158 265.809 305.959 257.553C304.45 256.202 302.791 255.004 301.159 253.793C298.346 251.705 296.354 249.242 296.447 245.454C296.561 240.862 298.904 237.543 303.132 236.375C307.634 235.131 311.635 236.672 314.026 240.579C318.657 248.163 321.866 256.389 323.772 264.99C326.221 276.045 328.011 287.248 330.068 298.389C330.153 298.85 330.079 299.335 330.079 299.817L329.786 299.866Z" fill="#D9918B"/>
<path d="M223.22 411.052C223.413 409.117 223.522 407.169 223.811 405.245C225.637 393.091 227.562 380.922 231.69 369.3C233.749 363.507 236.432 357.906 239.227 352.419C241.333 348.286 246.176 346.729 250.48 348.17C254.684 349.577 257.27 353.472 256.874 357.972C256.633 360.7 255.495 363.037 253.198 364.624C239.597 374.017 231.859 387.521 226.46 402.682C225.467 405.472 224.606 408.308 223.686 411.124L223.22 411.052Z" fill="#D9918B"/>
<path d="M333.521 300.36C334.447 294.244 335.236 288.288 336.271 282.374C338.189 271.407 340.663 260.567 345.014 250.272C346.483 246.795 348.209 243.431 350.178 240.21C352.377 236.615 356.36 235.293 360.437 236.311C364.431 237.309 367.068 240.267 367.506 244.467C367.853 247.798 366.856 250.865 364.092 252.746C349.996 262.335 342.274 276.319 336.793 291.886C335.831 294.623 334.977 297.398 334.064 300.153C334.055 300.195 333.943 300.205 333.521 300.36Z" fill="#D9918B"/>
<path d="M112.38 300.166C112.881 296.406 113.291 292.988 113.796 289.583C115.797 276.121 118.495 262.822 123.754 250.194C125.088 246.991 126.75 243.908 128.469 240.888C130.722 236.93 134.056 235.436 138.51 236.079C141.983 236.581 145.116 239.493 145.934 243.178C146.859 247.365 145.575 250.801 142.064 253.285C135.025 258.265 129.345 264.494 124.812 271.803C119.758 279.949 116.252 288.765 113.556 297.931C113.393 298.487 113.24 299.047 113.055 299.597C113.016 299.706 112.853 299.774 112.38 300.166Z" fill="#D9918B"/>
<path d="M76.2886 1.87161C71.1755 3.66368 66.4052 5.1519 61.7754 6.99529C50.8513 11.3465 40.9194 17.2589 33.0135 26.1625C31.5706 27.7831 30.2977 29.5684 28.9951 31.3132C26.3481 34.8569 22.5619 36.31 18.5138 35.2985C15.065 34.4315 12.3141 31.4712 11.7715 28.0397C11.0682 23.5912 12.7366 20.0098 16.5984 17.6856C25.3641 12.4107 34.9559 9.21277 44.8595 7.10603C54.7212 5.00605 64.7274 3.58671 74.6729 1.88106C75.0643 1.81354 75.4773 1.87161 76.2886 1.87161Z" fill="#D9918B"/>
<path d="M186.249 110.04C180.821 109.258 175.369 108.612 169.971 107.664C159.729 105.864 149.541 103.733 139.829 99.9126C135.453 98.1907 131.207 96.0718 127.068 93.8355C123.387 91.8408 121.606 87.7894 122.292 84.1121C123.06 79.9877 125.791 77.1463 129.805 76.2901C133.698 75.4609 137.268 77.0234 139.76 80.5981C146.383 90.096 155.3 96.8808 165.676 101.656C171.858 104.501 178.398 106.57 184.776 108.988C185.298 109.185 185.82 109.393 186.342 109.586L186.249 110.04Z" fill="#D9918B"/>
<path d="M35.0652 336.653C41.7926 337.719 48.5485 338.638 55.2436 339.882C67.2677 342.116 79.0975 345.072 90.1295 350.574C91.7554 351.383 93.3287 352.294 94.8404 353.3C98.196 355.537 99.6133 358.75 98.9344 362.702C98.2986 366.407 96.2631 369.101 92.5254 370.243C88.6623 371.424 85.3174 370.531 82.661 367.505C80.2691 364.779 78.1782 361.777 75.673 359.167C67.7658 350.929 57.9985 345.558 47.47 341.491C43.3517 339.9 39.12 338.607 34.9396 337.179L35.0652 336.653Z" fill="#D9918B"/>
<path d="M2.08272 258.302C3.56752 262.603 4.96457 266.945 6.56545 271.197C10.2585 281.017 15.3987 290.009 22.6755 297.617C25.3157 300.377 28.3933 302.748 31.4223 305.102C35.7782 308.488 36.9781 314.015 34.0666 318.202C30.9985 322.614 25.0768 324.09 20.8721 320.746C18.4425 318.818 16.6999 315.763 15.2677 312.903C9.08555 300.555 6.2064 287.203 3.92926 273.707C3.07213 268.637 2.40533 263.533 1.65079 258.446L2.08272 258.302Z" fill="#D9918B"/>
<path d="M407.445 337.285C403.893 338.49 400.32 339.633 396.795 340.91C387.652 344.218 378.949 348.455 371.625 354.908C367.629 358.429 364.244 362.666 360.732 366.706C358.206 369.61 355.308 371.229 351.38 370.551C347.665 369.911 345.225 367.769 344.018 364.235C342.5 359.789 344.169 355.492 348.459 352.84C354.938 348.831 362.03 346.257 369.292 344.13C381.723 340.484 394.449 338.386 407.445 337.285Z" fill="#D9918B"/>
<path d="M440.676 188.868C439.191 184.517 437.926 180.503 436.46 176.566C432.385 165.617 426.702 155.634 418.281 147.407C416.112 145.288 413.654 143.439 411.201 141.641C407.864 139.194 406.462 135.969 407.176 131.971C407.882 128.024 410.371 125.428 414.272 124.563C418.292 123.671 421.844 124.771 424.231 128.284C427.936 133.739 430.26 139.849 432.313 146.078C436.815 159.742 439.076 173.859 440.862 188.078C440.875 188.208 440.798 188.351 440.676 188.868Z" fill="#D9918B"/>
<path d="M330.231 76.6286C327.512 69.9208 324.996 63.1927 322.082 56.6416C317.437 46.1876 310.791 37.2097 301.35 30.5276C298.407 28.4424 296.383 25.936 296.456 22.075C296.542 17.5036 298.835 14.303 303.167 12.9971C307.253 11.7641 311.762 13.1227 313.747 16.9553C316.641 22.5449 319.529 28.2426 321.441 34.2076C324.079 42.409 326.041 50.8494 327.831 59.2912C329.045 65.0091 329.465 70.8945 330.231 76.6286Z" fill="#D9918B"/>
<path d="M407.423 109.52C388.457 107.446 369.669 104.647 352.309 96.1274C350.548 95.2644 348.864 94.2548 347.273 93.1091C343.957 90.716 342.973 87.2899 343.806 83.4586C344.585 79.8826 346.776 77.3396 350.473 76.4294C354.459 75.449 358.055 76.4524 360.377 79.7678C369.611 92.9578 382.594 100.768 397.361 106.113C400.689 107.317 404.067 108.388 407.423 109.52Z" fill="#D9918B"/>
<path d="M367.245 224.971C374.669 226.187 382.137 227.225 389.526 228.653C400.881 230.846 412.057 233.724 422.43 239.062C424.051 239.879 425.612 240.811 427.102 241.85C430.492 244.266 431.574 247.716 430.776 251.65C430.019 255.387 427.609 257.793 423.867 258.705C419.944 259.661 416.457 258.606 414.189 255.352C404.46 241.39 390.55 233.582 374.943 228.184C372.354 227.289 369.728 226.504 367.115 225.668C367.163 225.436 367.206 225.204 367.245 224.971Z" fill="#D9918B"/>
<path d="M367.166 1.77039C370.501 2.20524 373.847 2.56716 377.169 3.08709C391.399 5.30862 405.498 8.08384 418.766 13.953C421.61 15.2381 424.356 16.7275 426.984 18.4095C430.442 20.5851 431.843 24.9823 430.637 28.9878C429.468 32.8731 426.4 35.1567 422.268 35.4147C418.345 35.6591 415.53 34.1506 413.288 30.8717C407.235 22.0207 398.986 15.583 389.44 11.0198C382.856 7.86776 375.842 5.61788 369.018 2.96285C368.37 2.71032 367.711 2.49019 367.056 2.25521C367.091 2.08775 367.129 1.92974 367.166 1.77039Z" fill="#D9918B"/>
<path d="M256.114 336.673C262.524 337.648 268.626 338.446 274.68 339.527C285.065 341.381 295.343 343.733 305.144 347.732C308.704 349.199 312.153 350.921 315.465 352.883C321.985 356.72 321.277 363.931 317.923 367.662C314.158 371.849 306.967 371.862 303.712 367.244C292.68 351.578 276.777 343.581 259.118 338.194C258.284 337.94 257.458 337.662 256.636 337.374C256.532 337.338 256.474 337.166 256.114 336.673Z" fill="#D9918B"/>
<path d="M297.441 221.672C294.822 221.365 292.685 221.201 290.578 220.852C284.639 219.869 278.7 218.899 272.797 217.765C261.565 215.604 250.604 212.577 240.438 207.148C239.35 206.566 238.26 205.978 237.236 205.295C233.734 202.952 232.277 199.623 233.052 195.517C233.827 191.412 236.362 188.773 240.519 187.955C244.569 187.166 247.83 188.611 250.169 191.952C258.289 203.553 269.494 211.011 282.465 216.09C287.246 217.968 292.083 219.683 297.441 221.672Z" fill="#D9918B"/>
<path d="M112.371 76.2964C113.131 71.0646 113.753 65.81 114.678 60.608C116.804 48.6576 119.274 36.7802 124.261 25.6173C125.538 22.7681 126.973 19.993 128.56 17.3051C130.692 13.694 134.008 12.1166 138.154 12.7324C142.106 13.3185 144.791 15.6332 145.837 19.5212C146.898 23.4646 145.938 27.0272 142.597 29.4256C137.414 33.1434 132.713 37.4069 128.964 42.4792C125.603 47.0184 122.707 51.8838 120.319 57.0022C117.55 62.9686 115.604 69.3158 113.3 75.5036C113.178 75.8264 113.042 76.1438 112.912 76.4638L112.371 76.2964Z" fill="#D9918B"/>
<path d="M330.33 146.783C329.405 152.876 328.634 158.998 327.525 165.059C325.365 176.876 322.651 188.557 317.546 199.524C316.383 202.02 315.082 204.483 313.561 206.774C311.377 210.063 308.073 211.267 304.247 210.623C300.422 209.978 297.68 207.693 296.769 203.87C295.9 200.224 296.306 196.544 299.627 194.214C314.058 184.086 322.225 169.74 327.556 153.415C328.295 151.151 329.037 148.887 329.78 146.622L330.33 146.783Z" fill="#D9918B"/>
<path d="M112.569 146.412C114.594 152.02 116.22 157.066 118.229 161.953C123.463 174.684 130.987 185.694 142.401 193.8C146.634 196.805 147.439 202.464 144.665 206.613C141.868 210.8 136.161 212.08 131.743 209.295C130.393 208.444 129.207 207.09 128.359 205.711C123.194 197.319 120.067 188.066 117.999 178.534C115.829 168.541 114.348 158.389 112.579 148.305C112.507 147.893 112.569 147.457 112.569 146.412Z" fill="#D9918B"/>
<path d="M146.281 221.04C146.922 220.806 147.553 220.531 148.209 220.342C160.022 216.945 171.1 212.032 180.808 204.355C185.272 200.825 189.177 196.752 192.374 192.014C194.681 188.594 197.994 187.153 201.973 187.854C206.19 188.592 208.688 191.324 209.57 195.542C210.316 199.107 208.781 203.056 205.497 205.194C199.889 208.857 193.726 211.59 187.247 213.287C178.419 215.583 169.482 217.495 160.553 219.383C155.901 220.367 151.166 220.951 146.469 221.715C146.401 221.49 146.339 221.265 146.281 221.04Z" fill="#D9918B"/>
<path d="M218.935 411.199C218.099 408.598 217.315 405.978 216.417 403.4C212.525 392.256 207.42 381.761 199.165 373.149C196.27 370.127 192.909 367.534 189.656 364.872C186.032 361.901 184.771 357.796 186.407 353.595C187.913 349.724 191.685 347.434 196.159 347.746C199.489 347.978 201.815 349.844 203.52 352.564C207.891 359.535 210.874 367.16 212.676 375.097C215.24 386.419 217.13 397.899 219.29 409.316C219.4 409.904 219.305 410.532 219.305 411.14L218.935 411.199Z" fill="#D9918B"/>
<path d="M2.11097 34.8459C3.27451 38.4787 4.25179 42.1844 5.63805 45.7307C10.0276 56.9559 15.4917 67.5665 24.3789 76.0002C26.633 78.1407 29.1748 79.9881 31.6449 81.8909C34.9034 84.4015 36.2613 87.9924 35.3016 91.8709C34.381 95.5847 31.3466 98.4626 27.5982 98.9609C23.4704 99.5105 20.1053 98.0561 17.9335 94.4773C12.7178 85.8816 9.37839 76.4972 7.32937 66.7225C5.22501 56.6574 3.64167 46.4775 1.85046 36.3463C1.76677 35.8737 1.83965 35.374 1.83965 34.8878L2.11097 34.8459Z" fill="#D9918B"/>
<path d="M34.8417 113.353C39.1462 113.968 43.3739 114.536 47.5907 115.184C59.9712 117.091 72.2019 119.653 83.8494 124.391C87.6818 125.947 91.3832 127.808 94.9179 129.957C97.9982 131.833 99.1023 135.088 98.9525 138.627C98.8067 141.881 97.2855 144.476 94.3901 146.081C89.8507 148.599 85.2708 147.462 81.9799 143.471C78.6189 139.395 75.3915 135.048 71.3596 131.73C66.8174 127.99 61.6665 124.803 56.3699 122.22C49.4858 118.86 42.1928 116.332 34.8417 113.353Z" fill="#D9918B"/>
<path d="M330.291 370.127C329.535 375.281 328.907 380.458 327.996 385.584C325.682 398.607 322.957 411.529 317.218 423.578C316.169 425.813 314.974 427.975 313.641 430.052C311.538 433.294 308.386 434.586 304.62 434.039C300.697 433.471 297.813 431.298 296.812 427.395C295.838 423.589 296.56 420.159 299.8 417.372C304.242 413.551 308.996 409.906 312.639 405.394C316.554 400.541 319.784 394.982 322.516 389.345C325.504 383.178 327.583 376.57 330.057 370.152L330.291 370.127Z" fill="#D9918B"/>
<path d="M223.625 259.172C225.205 263.614 226.697 268.086 228.384 272.491C232.396 282.949 238.347 292.198 246.265 300.109C248.457 302.3 251.196 303.93 253.568 305.953C257.817 309.577 258.075 315.868 254.232 319.663C250.274 323.57 243.761 323.48 240.314 319.122C238.312 316.589 236.66 313.668 235.379 310.693C228.581 294.918 225.604 278.184 223.375 261.282C223.283 260.581 223.363 259.857 223.363 259.144L223.625 259.172Z" fill="#D9918B"/>
<path d="M1.62827 411.895C2.23433 407.603 2.76479 403.299 3.46129 399.022C5.20255 388.333 7.19354 377.685 10.996 367.506C12.9195 362.36 15.3262 357.366 17.88 352.493C19.9169 348.608 23.9366 347.032 28.0347 347.845C32.0585 348.642 34.8539 351.54 35.4829 355.948C36.0377 359.83 34.4652 362.875 31.2418 365.089C25.2392 369.212 20.2611 374.386 16.1995 380.382C9.87284 389.719 5.25955 400.11 2.57584 411.067C2.47714 411.394 2.35996 411.715 2.22487 412.029L1.62827 411.895Z" fill="#D9918B"/>
<path d="M407.403 333.513C400.543 332.416 393.663 331.427 386.827 330.196C377.753 328.564 368.74 326.511 360.192 323.039C355.536 321.148 351.045 318.665 346.849 315.889C343.689 313.802 342.799 310.116 343.879 306.531C344.926 303.048 347.309 300.549 351.168 299.778C355.105 298.99 358.134 300.231 360.437 303.456C367.81 313.783 377.653 321.021 389.161 326.031C395.13 328.628 401.292 330.784 407.366 333.139C407.377 333.265 407.389 333.389 407.403 333.513Z" fill="#D9918B"/>
<path d="M219.505 35.7241C218.848 40.4507 218.319 45.2017 217.509 49.904C215.632 60.7969 213.38 71.625 209.348 81.9534C207.641 86.3289 205.442 90.5397 203.162 94.6572C201.255 98.0996 197.34 99.7093 193.654 98.9193C189.726 98.078 186.952 95.8646 185.971 91.7983C185.041 87.9454 186.444 84.16 189.766 81.8534C199.716 74.9431 206.697 65.5762 211.709 54.7414C214.261 49.2247 216.084 43.3704 218.233 37.666C218.484 36.9989 218.71 36.3156 218.948 35.6484L219.505 35.7241Z" fill="#D9918B"/>
<path d="M75.8461 221.729C71.4228 221.116 66.9846 220.595 62.5801 219.874C51.455 218.051 40.3757 215.932 29.8255 211.852C25.0178 210.001 20.3682 207.764 15.9224 205.16C11.1333 202.343 10.2181 195.75 13.5198 191.404C16.6243 187.321 23.0009 186.59 26.9612 189.888C27.526 190.344 28.0256 190.875 28.446 191.467C37.2468 204.296 49.846 211.907 64.0123 217.32C67.9268 218.805 71.9371 220.021 75.9042 221.355C75.8894 221.479 75.8677 221.605 75.8461 221.729Z" fill="#D9918B"/>
<path d="M147.291 225.349C151.079 225.839 154.91 226.12 158.647 226.864C166.83 228.493 175.022 230.134 183.103 232.191C190.51 234.075 197.625 236.959 204.254 240.765C208.259 243.061 210.335 246.949 209.67 250.839C208.935 255.161 205.94 258.267 201.643 258.922C197.847 259.505 194.679 258.129 192.544 255.005C185.999 245.437 177.194 238.595 166.813 233.803C160.701 230.979 154.311 228.763 148.05 226.267C147.74 226.143 147.448 225.966 147.148 225.814L147.291 225.349Z" fill="#D9918B"/>
<path d="M218.958 187.822C218.496 186.402 218.025 184.986 217.577 183.56C213.68 171.162 208.324 159.522 199.331 149.934C196.477 146.888 193.157 144.244 189.866 141.65C185.017 137.828 184.269 131.405 188.382 127.163C193.232 122.167 200.8 124 204.285 130.421C212.743 146.008 215.81 163.057 218.507 180.246C218.896 182.724 219.133 185.225 219.441 187.716L218.958 187.822Z" fill="#D9918B"/>
<path d="M112.773 370.06C114.229 374.296 115.582 378.568 117.161 382.754C121.12 393.258 126.576 402.862 134.733 410.716C136.972 412.877 139.458 414.798 141.928 416.69C145.483 419.41 146.935 422.94 145.956 426.975C145.035 430.757 142.08 433.375 137.975 434.033C134.243 434.63 130.543 432.737 128.332 429.065C122.439 419.286 119.224 408.527 117.021 397.442C115.438 389.474 114.147 381.44 112.76 373.431C112.568 372.33 112.573 371.196 112.49 370.076L112.773 370.06Z" fill="#D9918B"/>
<path d="M19.2146 437.197L20.3215 438.359L18.7341 438.399C18.8943 437.997 19.0544 437.596 19.2146 437.197Z" fill="#D9918B"/>
</svg>
