<svg width="63" height="63" viewBox="0 0 63 63" fill="none" xmlns="http://www.w3.org/2000/svg">
<g clip-path="url(#clip0_730_14510)">
<path fill-rule="evenodd" clip-rule="evenodd" d="M0.183594 31.7272C0.183594 47.2012 11.4391 60.0685 26.1599 62.6777V40.1982H18.367V31.5535H26.1599V24.6361C26.1599 16.855 31.1811 12.5339 38.283 12.5339C40.5325 12.5339 42.9587 12.8789 45.2083 13.2239V21.1787H41.2261C37.4154 21.1787 36.5504 23.0799 36.5504 25.5024V31.5535H44.8628L43.4782 40.1982H36.5504V62.6777C51.2711 60.0685 62.5266 47.2038 62.5266 31.7272C62.5266 14.5129 48.4994 0.429199 31.3551 0.429199C14.2108 0.429199 0.183594 14.5129 0.183594 31.7272Z" fill="#333333"/>
</g>
<defs>
<clipPath id="clip0_730_14510">
<rect width="62.343" height="62.2485" fill="white" transform="translate(0.183594 0.429199)"/>
</clipPath>
</defs>
</svg>
