<svg width="63" height="63" viewBox="0 0 63 63" fill="none" xmlns="http://www.w3.org/2000/svg">
<path d="M31.8067 21.1743C26.083 21.1743 21.4119 25.8383 21.4119 31.5535C21.4119 37.2686 26.083 41.9326 31.8067 41.9326C37.5304 41.9326 42.2014 37.2686 42.2014 31.5535C42.2014 25.8383 37.5304 21.1743 31.8067 21.1743ZM62.9831 31.5535C62.9831 27.2554 63.0221 22.9963 62.7803 18.706C62.5386 13.7228 61.4001 9.30014 57.7506 5.65614C54.0934 2.00435 49.6719 0.875336 44.6812 0.63396C40.3767 0.392584 36.1112 0.431515 31.8145 0.431515C27.51 0.431515 23.2445 0.392584 18.9478 0.63396C13.9571 0.875336 9.5278 2.01214 5.87833 5.65614C2.22107 9.30792 1.09036 13.7228 0.848622 18.706C0.606884 23.0041 0.645874 27.2632 0.645874 31.5535C0.645874 35.8437 0.606884 40.1106 0.848622 44.4009C1.09036 49.3841 2.22887 53.8068 5.87833 57.4508C9.5356 61.1026 13.9571 62.2316 18.9478 62.4729C23.2523 62.7143 27.5178 62.6754 31.8145 62.6754C36.119 62.6754 40.3845 62.7143 44.6812 62.4729C49.6719 62.2316 54.1012 61.0948 57.7506 57.4508C61.4079 53.799 62.5386 49.3841 62.7803 44.4009C63.0299 40.1106 62.9831 35.8515 62.9831 31.5535ZM31.8067 47.5232C22.956 47.5232 15.813 40.3909 15.813 31.5535C15.813 22.716 22.956 15.5837 31.8067 15.5837C40.6574 15.5837 47.8004 22.716 47.8004 31.5535C47.8004 40.3909 40.6574 47.5232 31.8067 47.5232ZM48.4554 18.6593C46.3889 18.6593 44.7202 16.993 44.7202 14.9296C44.7202 12.8663 46.3889 11.2 48.4554 11.2C50.5219 11.2 52.1907 12.8663 52.1907 14.9296C52.1913 15.4196 52.0951 15.9049 51.9076 16.3577C51.7201 16.8104 51.445 17.2218 51.098 17.5683C50.751 17.9147 50.339 18.1894 49.8856 18.3767C49.4321 18.5639 48.9461 18.6599 48.4554 18.6593Z" fill="#333333"/>
</svg>
