<svg width="572" height="84" viewBox="0 0 572 84" fill="none" xmlns="http://www.w3.org/2000/svg">
<path d="M62.8585 55.745L77.8635 13.8495H87.1908C86.3798 14.2727 85.7715 15.1191 85.1632 15.9654C84.7576 17.0234 84.3521 17.8698 84.1493 18.5045V65.4783C84.7576 67.8058 85.5687 69.2869 87.1908 69.9217C84.9604 69.9217 82.9327 69.9217 80.905 70.1333H74.8219C76.2413 69.2869 77.2551 67.8058 77.6607 65.4783V20.1973L64.2779 58.0725L64.6834 58.7073C67.9278 64.4203 71.5776 69.2869 75.633 73.0956C79.8912 77.1159 84.7576 79.4434 90.2324 80.5014C91.449 80.713 92.6656 80.713 93.8822 80.713C98.5459 80.713 103.818 79.4434 109.698 76.6927C101.79 80.9246 94.8961 83.0405 88.813 83.0405C88.6102 83.0405 86.5825 82.8289 83.3382 82.8289C80.0939 82.6173 76.0385 80.713 71.5776 76.9043C66.9139 73.3072 62.8585 68.6522 59.4114 62.9391C55.9644 57.2261 52.72 51.3015 49.8813 44.9537L49.273 43.8957L48.0564 41.145C45.2176 35.0088 42.176 29.2958 39.3373 24.006C38.9317 23.3712 38.729 22.948 38.3234 22.5248V65.2667C38.9317 67.5942 39.9456 69.2869 41.365 69.9217H33.457C34.8763 69.2869 35.8902 67.8058 36.2957 65.2667V19.1393C34.268 15.9654 31.8348 13.4263 29.4016 11.0988C25.7517 7.92488 21.4936 6.23214 16.8299 6.23214C11.9634 6.23214 6.48862 8.55966 0 13.0031C7.09693 8.13648 13.18 5.38577 18.6548 4.96258C19.4659 4.75099 20.2769 4.75099 21.088 4.75099C25.3462 4.75099 29.4016 6.02054 33.0514 8.55966C36.904 11.0988 40.3511 14.6959 43.3927 19.5625C46.637 24.4292 49.6785 29.9306 52.72 35.6436C53.7339 37.7595 54.545 39.6639 55.1533 41.145C57.5865 46.2233 60.2225 51.0899 62.8585 55.745ZM87.1908 69.9217C88.6102 69.2869 89.6241 67.8058 90.0296 65.2667V18.5045C89.6241 16.177 88.6102 14.6959 87.1908 13.8495H115.376V19.3509C114.767 16.8118 113.956 15.3306 112.334 14.6959H96.5182V40.5102H106.657C108.279 39.8755 109.293 38.1827 109.698 35.6436V46.0117C109.09 43.4726 108.279 41.9914 106.657 41.3566H96.5182V69.0753H113.754C114.362 68.0174 114.97 66.7478 115.173 65.2667V69.9217H87.1908ZM116.592 69.9217C118.215 69.2869 119.228 67.8058 119.634 65.2667V18.5045C119.228 16.177 118.215 14.6959 116.592 13.8495H144.777V19.3509C144.372 16.8118 143.358 15.3306 141.939 14.6959H126.123V40.5102H136.261C137.883 39.8755 138.694 38.1827 139.303 35.6436V46.0117C138.694 43.4726 137.68 41.9914 136.261 41.3566H126.123V69.0753H143.155C143.966 68.0174 144.372 66.7478 144.777 65.2667V69.9217H116.592ZM146.197 18.7161V13.8495H184.52V18.7161C184.317 16.177 183.709 14.9075 182.898 14.6959H168.299V65.4783C168.704 67.8058 169.718 69.2869 171.137 69.9217H158.768C160.391 69.2869 161.404 67.8058 161.81 65.2667V14.6959H148.022C147.211 15.1191 146.602 16.3886 146.197 18.7161ZM206.419 18.7161V13.8495H244.743V18.7161C244.54 16.177 243.932 14.9075 243.121 14.6959H228.521V65.4783C228.927 67.8058 229.941 69.2869 231.36 69.9217H219.194C220.613 69.2869 221.627 67.8058 222.033 65.2667V14.6959H208.244C207.433 15.1191 206.825 16.3886 206.419 18.7161ZM246.568 69.9217C247.987 69.2869 249.001 67.8058 249.609 65.2667V18.5045C249.001 16.177 247.987 14.6959 246.568 13.8495H258.937C257.517 14.6959 256.503 16.177 256.098 18.7161V40.5102H279.011V18.5045C278.605 16.177 277.591 14.6959 275.969 13.8495H288.338C286.919 14.4843 285.905 15.9654 285.499 18.293V65.4783C285.905 67.8058 286.919 69.2869 288.338 69.9217H275.969C277.591 69.2869 278.605 67.8058 279.011 65.2667V41.3566H256.098V65.4783C256.503 67.8058 257.517 69.2869 258.937 69.9217H246.568ZM289.96 69.9217C291.38 69.2869 292.393 67.8058 292.799 65.2667V18.5045C292.393 16.177 291.38 14.6959 289.96 13.8495H318.145V19.3509C317.74 16.8118 316.726 15.3306 315.104 14.6959H299.49V40.5102H309.629C311.048 39.8755 312.062 38.1827 312.468 35.6436V46.0117C312.062 43.4726 311.048 41.9914 309.629 41.3566H299.49V69.0753H316.523C317.131 68.0174 317.74 66.7478 317.942 65.2667V69.9217H289.96ZM362.349 14.0611C366.202 14.0611 369.851 15.3306 373.096 17.6582C376.34 20.1973 378.976 23.5828 381.004 27.8147C382.829 32.0465 383.842 36.9132 383.842 41.9914C383.842 47.0696 382.829 51.9363 381.004 56.1681C378.976 60.4 376.34 63.5739 373.096 66.113C369.851 68.6522 366.202 69.9217 362.349 69.9217C358.294 69.9217 354.644 68.6522 351.399 66.113C348.155 63.5739 345.722 60.4 343.694 56.1681C341.666 51.9363 340.855 47.0696 340.855 41.9914C340.855 36.9132 341.666 32.0465 343.694 27.8147C345.722 23.5828 348.155 20.1973 351.399 17.6582C354.644 15.3306 358.294 14.0611 362.349 14.0611ZM362.349 67.8058C365.188 67.8058 367.824 66.7478 370.257 64.4203C372.487 62.0928 374.515 58.9189 375.732 55.1102C377.151 51.0899 377.962 46.6465 377.962 41.9914C377.962 37.3363 377.151 32.8929 375.732 29.0842C374.515 25.0639 372.487 21.89 370.257 19.5625C367.824 17.235 365.188 16.177 362.349 16.177C359.51 16.177 356.874 17.235 354.441 19.5625C352.008 21.89 350.183 25.0639 348.763 29.0842C347.344 32.8929 346.736 37.3363 346.736 41.9914C346.736 46.6465 347.344 51.0899 348.763 55.1102C350.183 58.9189 352.008 62.0928 354.441 64.4203C356.874 66.7478 359.51 67.8058 362.349 67.8058ZM359.307 42.4146C360.93 41.7798 361.741 40.2987 362.349 37.7595C362.754 40.2987 363.768 41.7798 365.39 42.4146C363.768 43.261 362.754 44.7421 362.349 47.2812C361.741 44.7421 360.93 43.261 359.307 42.4146ZM414.461 27.8147L425.613 62.3044L428.857 51.0899C431.493 42.6262 433.927 34.374 436.563 25.9103L436.765 25.0639C437.374 22.948 438.185 20.8321 438.793 18.5045C439.199 17.6582 439.401 16.8118 439.401 15.9654C439.401 15.1191 438.793 14.4843 437.779 13.8495H443.659C442.443 14.4843 441.632 15.1191 441.023 15.9654C440.415 16.8118 440.01 17.6582 439.807 18.5045L424.194 69.9217H421.355L411.014 38.6059L401.483 69.9217H398.645L381.409 17.235C381.004 16.3886 380.395 15.7538 379.584 15.1191C378.773 14.6959 378.165 14.2727 377.354 13.8495H390.128C389.317 14.2727 388.506 15.1191 388.101 16.177L390.939 25.0639L391.142 25.9103L403.106 62.3044C404.119 58.4957 405.336 54.8986 406.35 51.0899L410.405 37.1248L403.917 17.235C403.511 16.3886 402.903 15.7538 402.092 15.1191C401.483 14.6959 400.672 14.2727 400.064 13.8495H412.839C411.825 14.2727 411.216 15.1191 410.608 16.177L413.447 25.0639L413.852 25.9103V26.1219V25.9103L414.055 25.0639C414.866 22.948 415.475 20.8321 416.286 18.5045C416.691 17.6582 416.894 16.8118 416.894 15.9654C416.894 15.1191 416.286 14.4843 415.272 13.8495H421.152C419.935 14.4843 419.124 15.1191 418.516 15.9654C417.908 16.8118 417.502 17.6582 417.097 18.5045L414.461 27.8147ZM442.037 69.9217C443.659 69.2869 444.673 67.5942 445.079 65.2667V18.5045C444.673 16.177 443.659 14.6959 442.037 13.8495H450.148L476.711 64.4203L476.508 18.293C475.9 15.9654 474.886 14.4843 473.467 13.8495H481.577C479.752 14.9075 478.739 16.3886 478.536 18.293V68.229L479.347 69.9217H472.858L447.107 20.6205V65.2667C447.512 67.5942 448.526 69.2869 450.148 69.9217H442.037ZM482.591 69.9217C484.011 69.2869 485.024 67.8058 485.43 65.2667V18.5045C485.024 16.177 484.011 14.6959 482.591 13.8495H510.776V19.3509C510.168 16.8118 509.154 15.3306 507.735 14.6959H491.919V40.5102H502.057C503.679 39.8755 504.693 38.1827 505.099 35.6436V46.0117C504.49 43.4726 503.679 41.9914 502.057 41.3566H491.919V69.0753H509.154C509.762 68.0174 510.371 66.7478 510.573 65.2667V69.9217H482.591ZM495.771 24.4292C495.568 23.5828 495.568 22.7364 495.568 21.89C495.568 16.6002 496.988 12.1567 500.029 8.77126C503.071 5.17417 507.329 2.63505 512.398 1.57709C514.832 0.942306 517.468 0.730713 519.901 0.730713C522.537 0.730713 525.984 1.1539 530.039 2.21187C534.095 3.26983 537.947 5.59736 541.394 9.40604C545.044 13.2147 546.869 18.293 546.869 24.4292C546.869 27.3915 546.464 30.1422 545.45 32.6813C544.639 35.2204 543.016 37.3363 541.192 39.0291C539.164 40.7218 536.528 41.5682 533.081 41.5682H531.864C535.92 42.4146 539.164 43.8957 541.394 46.2233C543.828 48.3392 545.45 51.0899 546.666 54.0522C547.883 56.8029 548.694 59.9768 549.505 62.9391C550.113 65.2667 550.722 67.5942 551.533 69.7101C553.56 74.5768 555.994 77.3275 559.238 78.3854C560.252 78.597 561.469 78.8086 562.482 78.8086C564.307 78.8086 566.335 78.1739 568.363 76.6927C570.593 75.2115 571.607 72.884 571.81 69.4985C571.607 73.0956 570.593 75.6347 568.363 77.7507C566.335 79.655 563.699 80.9246 560.657 81.1362C560.252 81.1362 559.846 81.1362 559.238 81.1362C556.805 81.1362 553.966 80.2898 551.33 78.8086C548.491 77.1159 546.261 74.3652 544.639 70.1333C543.625 67.5942 542.611 65.0551 541.8 62.3044C540.583 58.7073 539.367 55.3218 537.947 51.9363C536.325 48.7624 534.297 46.2233 531.864 44.3189C529.634 42.6262 526.998 41.7798 523.753 41.7798C523.145 41.7798 522.334 41.9914 521.523 41.9914V65.6898C522.131 68.0174 522.942 69.2869 524.564 70.1333H512.196C513.615 69.2869 514.629 67.8058 515.034 65.4783V18.7161C514.629 16.3886 513.615 14.6959 512.196 14.0611H524.564C522.942 14.6959 521.928 16.3886 521.523 18.7161V40.7218H533.081C534.703 40.7218 535.92 40.0871 536.731 39.0291C537.745 37.7595 538.556 36.2784 539.164 34.5856C539.569 32.8929 539.975 30.9886 540.178 29.2958C540.38 27.6031 540.583 26.3335 540.583 25.0639V24.4292C540.38 18.5045 538.758 13.8495 535.717 10.6756C532.675 7.2901 528.823 4.96258 524.362 4.11621C522.537 3.69302 520.509 3.48143 518.684 3.48143C516.251 3.48143 513.209 3.90461 509.965 4.96258C506.518 5.80895 503.274 7.92488 500.638 11.3104C498.002 14.4843 496.785 18.293 496.785 23.1596C496.785 23.5828 496.785 24.006 496.785 24.4292C497.191 28.2378 498.407 31.6233 500.638 34.5856C503.071 37.5479 506.315 39.2407 510.371 39.8755C511.182 39.4523 511.79 38.3943 511.993 36.9132V44.1073C511.587 41.9914 510.776 40.9334 509.56 40.7218C505.504 40.0871 502.26 38.1827 499.827 35.0088C497.393 32.0465 496.177 28.4494 495.771 24.4292Z" fill="#373435"/>
</svg>
