<?xml version="1.0" encoding="UTF-8"?>
<!DOCTYPE svg PUBLIC "-//W3C//DTD SVG 1.1//EN" "http://www.w3.org/Graphics/SVG/1.1/DTD/svg11.dtd">
<!-- Creator: CorelDRAW X8 -->
<svg xmlns="http://www.w3.org/2000/svg" xml:space="preserve" width="3in" height="1in" version="1.1" style="shape-rendering:geometricPrecision; text-rendering:geometricPrecision; image-rendering:optimizeQuality; fill-rule:evenodd; clip-rule:evenodd"
viewBox="0 0 3000 1000"
 xmlns:xlink="http://www.w3.org/1999/xlink">
 <defs>
  <style type="text/css">
   <![CDATA[
    .fil0 {fill:#373435;fill-rule:nonzero}
   ]]>
  </style>
 </defs>
 <g id="Layer_x0020_1">
  <metadata id="CorelCorpID_0Corel-Layer"/>
  <path class="fil0" d="M383 569l74 -198 46 0c-4,2 -7,6 -10,10 -2,5 -4,9 -5,12l0 222c3,11 7,18 15,21 -11,0 -21,0 -31,1l-30 0c7,-4 12,-11 14,-22l0 -214 -66 179 2 3c16,27 34,50 54,68 21,19 45,30 72,35 6,1 12,1 18,1 23,0 49,-6 78,-19 -39,20 -73,30 -103,30 -1,0 -11,-1 -27,-1 -16,-1 -36,-10 -58,-28 -23,-17 -43,-39 -60,-66 -17,-27 -33,-55 -47,-85l-3 -5 -6 -13c-14,-29 -29,-56 -43,-81 -2,-3 -3,-5 -5,-7l0 202c3,11 8,19 15,22l-39 0c7,-3 12,-10 14,-22l0 -218c-10,-15 -22,-27 -34,-38 -18,-15 -39,-23 -62,-23 -24,0 -51,11 -83,32 35,-23 65,-36 92,-38 4,-1 8,-1 12,-1 21,0 41,6 59,18 19,12 36,29 51,52 16,23 31,49 46,76l0 0c5,10 9,19 12,26 12,24 25,47 38,69zm120 67c7,-3 12,-10 14,-22l0 -221c-2,-11 -7,-18 -14,-22l139 0 0 26c-3,-12 -7,-19 -15,-22l-78 0 0 122 50 0c8,-3 13,-11 15,-23l0 49c-3,-12 -7,-19 -15,-22l-50 0 0 131 85 0c3,-5 6,-11 7,-18l0 22 -138 0zm145 0c8,-3 13,-10 15,-22l0 -221c-2,-11 -7,-18 -15,-22l139 0 0 26c-2,-12 -7,-19 -14,-22l-78 0 0 122 50 0c8,-3 12,-11 15,-23l0 49c-3,-12 -8,-19 -15,-22l-50 0 0 131 84 0c4,-5 6,-11 8,-18l0 22 -139 0zm146 -242l0 -23 189 0 0 23c-1,-12 -4,-18 -8,-19l-72 0 0 240c2,11 7,18 14,21l-61 0c8,-3 13,-10 15,-22l0 -239 -68 0c-4,2 -7,8 -9,19zm297 0l0 -23 189 0 0 23c-1,-12 -4,-18 -8,-19l-72 0 0 240c2,11 7,18 14,21l-60 0c7,-3 12,-10 14,-22l0 -239 -68 0c-4,2 -7,8 -9,19zm198 242c7,-3 12,-10 15,-22l0 -221c-3,-11 -8,-18 -15,-22l61 0c-7,4 -12,11 -14,23l0 103 113 0 0 -104c-2,-11 -7,-18 -15,-22l61 0c-7,3 -12,10 -14,21l0 223c2,11 7,18 14,21l-61 0c8,-3 13,-10 15,-22l0 -113 -113 0 0 114c2,11 7,18 14,21l-61 0zm214 0c7,-3 12,-10 14,-22l0 -221c-2,-11 -7,-18 -14,-22l139 0 0 26c-2,-12 -7,-19 -15,-22l-77 0 0 122 50 0c7,-3 12,-11 14,-23l0 49c-2,-12 -7,-19 -14,-22l-50 0 0 131 84 0c3,-5 6,-11 7,-18l0 22 -138 0zm357 -264c19,0 37,6 53,17 16,12 29,28 39,48 9,20 14,43 14,67 0,24 -5,47 -14,67 -10,20 -23,35 -39,47 -16,12 -34,18 -53,18 -20,0 -38,-6 -54,-18 -16,-12 -28,-27 -38,-47 -10,-20 -14,-43 -14,-67 0,-24 4,-47 14,-67 10,-20 22,-36 38,-48 16,-11 34,-17 54,-17zm0 254c14,0 27,-5 39,-16 11,-11 21,-26 27,-44 7,-19 11,-40 11,-62 0,-22 -4,-43 -11,-61 -6,-19 -16,-34 -27,-45 -12,-11 -25,-16 -39,-16 -14,0 -27,5 -39,16 -12,11 -21,26 -28,45 -7,18 -10,39 -10,61 0,22 3,43 10,62 7,18 16,33 28,44 12,11 25,16 39,16zm-15 -120c8,-3 12,-10 15,-22 2,12 7,19 15,22 -8,4 -13,11 -15,23 -3,-12 -7,-19 -15,-23zm272 -69l55 163 16 -53c13,-40 25,-79 38,-119l1 -4c3,-10 7,-20 10,-31 2,-4 3,-8 3,-12 0,-4 -3,-7 -8,-10l29 0c-6,3 -10,6 -13,10 -3,4 -5,8 -6,12l-77 243 -14 0 -51 -148 -47 148 -14 0 -85 -249c-2,-4 -5,-7 -9,-10 -4,-2 -7,-4 -11,-6l63 0c-4,2 -8,6 -10,11l14 42 1 4 59 172c5,-18 11,-35 16,-53l20 -66 -32 -94c-2,-4 -5,-7 -9,-10 -3,-2 -7,-4 -10,-6l63 0c-5,2 -8,6 -11,11l14 42 2 4 0 1c0,0 0,0 0,0l0 -1 1 -4c4,-10 7,-20 11,-31 2,-4 3,-8 3,-12 0,-4 -3,-7 -8,-10l29 0c-6,3 -10,6 -13,10 -3,4 -5,8 -7,12l-13 44zm136 199c8,-3 13,-11 15,-22l0 -221c-2,-11 -7,-18 -15,-22l40 0 131 239 -1 -218c-3,-11 -8,-18 -15,-21l40 0c-9,5 -14,12 -15,21l0 236 4 8 -32 0 -127 -233 0 211c2,11 7,19 15,22l-40 0zm200 0c7,-3 12,-10 14,-22l0 -221c-2,-11 -7,-18 -14,-22l139 0 0 26c-3,-12 -8,-19 -15,-22l-78 0 0 122 50 0c8,-3 13,-11 15,-23l0 49c-3,-12 -7,-19 -15,-22l-50 0 0 131 85 0c3,-5 6,-11 7,-18l0 22 -138 0zm65 -215c-1,-4 -1,-8 -1,-12 0,-25 7,-46 22,-62 15,-17 36,-29 61,-34 12,-3 25,-4 37,-4 13,0 30,2 50,7 20,5 39,16 56,34 18,18 27,42 27,71 0,14 -2,27 -7,39 -4,12 -12,22 -21,30 -10,8 -23,12 -40,12l-6 0c20,4 36,11 47,22 12,10 20,23 26,37 6,13 10,28 14,42 3,11 6,22 10,32 10,23 22,36 38,41 5,1 11,2 16,2 9,0 19,-3 29,-10 11,-7 16,-18 17,-34 -1,17 -6,29 -17,39 -10,9 -23,15 -38,16 -2,0 -4,0 -7,0 -12,0 -26,-4 -39,-11 -14,-8 -25,-21 -33,-41 -5,-12 -10,-24 -14,-37 -6,-17 -12,-33 -19,-49 -8,-15 -18,-27 -30,-36 -11,-8 -24,-12 -40,-12 -3,0 -7,1 -11,1l0 112c3,11 7,17 15,21l-61 0c7,-4 12,-11 14,-22l0 -221c-2,-11 -7,-19 -14,-22l61 0c-8,3 -13,11 -15,22l0 104 57 0c8,0 14,-3 18,-8 5,-6 9,-13 12,-21 2,-8 4,-17 5,-25 1,-8 2,-14 2,-20l0 -3c-1,-28 -9,-50 -24,-65 -15,-16 -34,-27 -56,-31 -9,-2 -19,-3 -28,-3 -12,0 -27,2 -43,7 -17,4 -33,14 -46,30 -13,15 -19,33 -19,56 0,2 0,4 0,6 2,18 8,34 19,48 12,14 28,22 48,25 4,-2 7,-7 8,-14l0 34c-2,-10 -6,-15 -12,-16 -20,-3 -36,-12 -48,-27 -12,-14 -18,-31 -20,-50z"/>
 </g>
</svg>
