<?xml version="1.0" encoding="UTF-8"?>
<!DOCTYPE svg PUBLIC "-//W3C//DTD SVG 1.1//EN" "http://www.w3.org/Graphics/SVG/1.1/DTD/svg11.dtd">
<!-- Creator: CorelDRAW X8 -->
<svg xmlns="http://www.w3.org/2000/svg" xml:space="preserve" width="1.25in" height="0.5in" version="1.1" style="shape-rendering:geometricPrecision; text-rendering:geometricPrecision; image-rendering:optimizeQuality; fill-rule:evenodd; clip-rule:evenodd"
viewBox="0 0 1250 500"
 xmlns:xlink="http://www.w3.org/1999/xlink">
 <defs>
  <style type="text/css">
   <![CDATA[
    .fil0 {fill:#373435;fill-rule:nonzero}
   ]]>
  </style>
 </defs>
 <g id="Layer_x0020_1">
  <metadata id="CorelCorpID_0Corel-Layer"/>
  <path class="fil0" d="M434 310l80 -212 49 0c-4,2 -7,6 -10,11 -3,4 -5,9 -6,12l0 239c3,12 8,19 16,23 -11,0 -22,0 -33,0l-32 0c8,-4 13,-12 15,-24l0 -229 -72 192 3 4c17,28 37,53 59,73 21,20 47,32 77,37 6,1 12,1 19,1 25,0 53,-7 84,-20 -42,21 -79,32 -111,32 -2,0 -11,-1 -29,-2 -17,0 -38,-10 -63,-29 -24,-18 -45,-42 -64,-71 -18,-29 -35,-60 -51,-92l-2 -5 -7 -14c-15,-31 -31,-60 -46,-87 -2,-3 -3,-5 -5,-8l0 217c2,13 8,21 16,24l-42 0c7,-3 13,-11 15,-23l0 -234c-11,-16 -23,-30 -37,-41 -19,-17 -41,-25 -66,-25 -26,0 -56,12 -90,34 38,-25 71,-38 99,-41 4,0 9,-1 13,-1 23,0 44,7 64,19 19,13 38,32 55,57 17,24 33,52 48,82l0 -1c6,11 10,20 14,28 13,25 26,50 40,74zm129 72c8,-3 13,-11 16,-23l0 -237c-3,-13 -8,-21 -16,-24l149 0 0 28c-2,-13 -7,-21 -15,-25l-84 0 0 132 54 0c8,-4 13,-12 15,-24l0 52c-2,-13 -7,-21 -15,-24l-54 0 0 140 91 0c4,-4 6,-10 8,-19l0 24 -149 0zm158 0c8,-3 13,-11 16,-23l0 -238c-3,-12 -8,-20 -16,-23l42 0 141 256 -1 -234c-3,-12 -8,-19 -16,-22l43 0c-9,4 -15,12 -16,22l0 253 5 9 -35 0 -137 -250 0 226c3,13 8,21 16,24l-42 0zm280 -284c-8,3 -13,11 -16,23l0 186c0,15 4,28 10,38 7,11 16,18 26,23 10,4 20,7 32,7 0,0 4,0 10,0 6,0 14,-3 24,-8 11,-5 19,-13 25,-23 7,-10 10,-23 10,-38l0 -184c-2,-13 -7,-21 -15,-24l42 0c-8,3 -13,11 -16,23l0 184c0,17 -4,31 -13,43 -9,11 -21,19 -34,25 -14,6 -29,9 -44,9 -16,0 -30,-3 -44,-9 -14,-6 -25,-14 -34,-25 -9,-12 -13,-26 -13,-43l0 -184c-3,-12 -8,-20 -16,-23l66 0z"/>
 </g>
</svg>
