<svg width="1444" height="359" viewBox="0 0 1444 359" fill="none" xmlns="http://www.w3.org/2000/svg">
<mask id="mask0_756_16575" style="mask-type:alpha" maskUnits="userSpaceOnUse" x="0" y="0" width="1444" height="359">
<rect width="1444" height="359" fill="#C4C4C4"/>
</mask>
<g mask="url(#mask0_756_16575)">
<rect y="-355" width="1444" height="1432" fill="#D9918B"/>
<path d="M1444.01 215.433C1442.89 213.036 1441.16 210.742 1440.74 208.237C1434.88 173.056 1427.71 138.181 1415.69 104.454C1412.32 95.0254 1408.03 85.9131 1404.74 76.459C1395.49 49.8879 1415.41 23.3904 1444.01 23.8923V215.433Z" fill="white" fill-opacity="0.1"/>
<path d="M0 23.893C28.5839 23.5772 48.9387 50.2132 38.6138 76.4944C26.2195 108.037 16.0091 140.069 9.46192 173.217C6.57799 187.798 4.35011 202.509 1.76118 217.147C1.36051 219.406 0.594397 221.599 0 223.819V23.893Z" fill="white" fill-opacity="0.1"/>
<path d="M1440.59 313.855C1435.22 297.089 1430.54 280.971 1424.91 265.204C1416.63 242.008 1405.49 220.162 1389.56 201.016C1366.63 173.428 1337.88 158.764 1300.67 162.689C1278.47 165.03 1259.41 147.406 1259.43 125.275C1259.43 104.692 1278.46 87.9123 1299.94 89.0892C1313.71 89.8421 1324.59 97.016 1335.41 104.034C1362.11 121.341 1381.84 144.962 1397.05 172.333C1421.23 215.848 1434.3 262.79 1440.99 311.657C1441.05 312.077 1440.84 312.536 1440.59 313.855Z" fill="white" fill-opacity="0.1"/>
<path d="M719.005 313.146C712.167 293.36 706.117 273.275 698.311 253.869C687.788 227.726 673.822 203.474 651.697 184.713C630.809 166.999 606.672 159.899 579.26 162.715C559.393 164.753 541.694 151.219 538.255 131.904C534.948 113.299 547.475 94.6499 566.619 90.2495C575.825 88.1293 584.834 89.1634 593.631 93.1182C626.014 107.674 649.808 131.411 668.256 160.66C697.76 207.446 711.691 259.329 719.005 313.146Z" fill="white" fill-opacity="0.1"/>
<path d="M3.92773 310.745C8.35269 270.709 18.2813 232.299 34.832 195.651C48.2345 165.96 65.1066 138.45 90.8022 117.534C102.84 107.789 115.974 99.4309 129.949 92.6247C148.705 83.4735 170.333 91.2272 179.539 108.357C188.671 125.34 183.841 146.766 167.321 156.277C160.523 160.193 151.497 163.338 143.95 162.551C104.42 158.427 74.934 174.666 51.6469 204.201C29.6322 232.139 17.4139 264.616 8.11053 298.318C7.12133 301.909 6.08368 305.491 4.99762 309.062C4.8127 309.667 4.27557 310.182 3.92773 310.745Z" fill="white" fill-opacity="0.1"/>
<path d="M771.501 5.06689C783.085 7.13512 794.727 8.93507 806.245 11.3235C850.86 20.5743 893.582 34.6365 931.896 59.7235C958.873 77.3856 980.615 99.6601 994.325 128.84C1004.45 150.358 994.977 174.376 973.913 181.433C946.175 190.723 920.365 169.751 923.588 140.328C925.395 124.74 922.805 108.963 916.103 94.7232C907.275 75.7674 893.045 61.3331 875.794 49.5987C847.32 30.2275 815.355 18.7786 782.249 9.94758C778.608 8.97837 774.958 8.02645 771.316 7.06589C771.378 6.39956 771.44 5.73323 771.501 5.06689Z" fill="white" fill-opacity="0.1"/>
<path d="M769.604 0.205763C789.025 -6.09843 806.927 -11.3209 824.385 -17.7073C851.683 -27.698 877.22 -40.8862 897.509 -62.0834C916.992 -82.4498 926.599 -106.403 923.521 -134.675C921.606 -152.246 928.14 -166.317 944.118 -174.179C957.719 -180.868 971.751 -178.986 984.392 -170.008C996.879 -161.142 1002.11 -141.862 995.637 -126.51C984.075 -99.0562 964.887 -77.6426 940.781 -60.1146C904.263 -33.5782 862.704 -18.4775 819.018 -8.3138C805.893 -5.25906 792.556 -3.06536 779.294 -0.590412C776.679 -0.118788 773.949 -0.140384 769.604 0.205763Z" fill="white" fill-opacity="0.1"/>
<path d="M1080.45 52.1777C1077.87 65.8332 1075.77 79.5925 1072.63 93.1182C1063.08 134.223 1049.05 173.597 1024.97 209.004C1008.61 233.026 988.131 252.592 962.325 266.707C943.26 277.134 925.384 276.879 911.907 265.586C900.019 255.634 895.466 238.072 901.177 224.265C907.447 209.121 923.539 198.542 939.302 200.497C979.219 205.439 1008.45 188.187 1031.76 158.389C1054.91 128.784 1066.64 94.1437 1076.57 58.7545C1077.19 56.5218 1077.84 54.2978 1078.48 52.0695L1080.45 52.1777Z" fill="white" fill-opacity="0.1"/>
<path d="M365.224 53.0803C369.116 65.4421 372.744 77.8991 376.962 90.157C386.821 118.792 399.475 146.021 420.596 168.598C442.549 192.067 469.076 204.511 502.222 200.569C517.9 198.696 532.558 206.108 540.285 219.733C547.431 232.324 546.181 248.891 537.256 259.877C527.103 272.373 511.058 277.794 495.868 272.719C474.091 265.433 456.374 251.898 440.598 235.777C413.401 207.99 395.825 174.5 384.24 138.267C376.108 112.825 371.19 86.3926 364.92 60.384C364.361 58.0648 364.418 55.6245 364.189 53.2058L365.224 53.0803Z" fill="white" fill-opacity="0.1"/>
<path d="M725.618 313.535C730.774 266.035 742.79 220.668 765.152 178.451C783.926 143.036 808.931 113.246 846.193 94.9435C868.247 84.1004 890.451 89.0807 901.23 108.279C908.345 120.961 907.988 133.92 899.763 146.022C891.666 157.934 880.016 164.536 865.306 162.896C828.348 158.734 799.605 172.87 776.732 200.254C753.859 227.639 741.156 259.93 731.382 293.524C729.405 300.17 727.525 306.855 725.618 313.535Z" fill="white" fill-opacity="0.1"/>
<path d="M672.54 6.28579C654.1 12.2049 635.304 17.2457 617.301 24.2422C586.643 36.1539 557.786 51.207 537.607 78.2022C523.395 97.2013 517.323 118.442 520.33 142.019C522.351 157.872 514.14 172.787 499.535 180.216C487.062 186.559 469.155 184.11 458.253 174.526C446.088 163.852 441.777 147.938 447.779 133.227C459.429 104.691 479.431 82.6501 504.497 64.8625C542.658 37.7505 585.952 22.4941 631.474 12.6592C645.057 9.72562 658.829 7.63577 672.513 5.15649L672.54 6.28579Z" fill="white" fill-opacity="0.1"/>
<path d="M359.087 49.0879C356.3 63.9116 354.107 77.4027 351.188 90.738C341.691 134.11 326.641 175.332 300.906 212.218C283.7 236.881 261.958 256.594 234.321 269.549C207.859 281.95 181.3 268.952 177.109 241.745C173.776 220.089 194.135 197.953 216.295 200.57C258.629 205.564 289.142 187.157 312.662 154.875C334.237 125.275 345.777 91.2918 355.296 56.5474C355.785 54.756 356.234 52.9474 356.788 51.1734C356.92 50.8186 357.427 50.5806 359.087 49.0879Z" fill="white" fill-opacity="0.1"/>
<path d="M1393.89 6.00494C1373.34 12.9279 1352.47 19.1325 1332.29 27.016C1309.09 36.1024 1287.66 48.33 1269.8 66.0181C1249.39 86.2504 1240.19 110.45 1241.96 138.795C1242.54 147.934 1242.5 156.886 1237.38 165.189C1227.11 181.787 1207 188.29 1189.3 180.472C1171.69 172.683 1162.85 153.321 1169.07 134.906C1175.55 115.768 1187.5 99.9405 1201.81 85.835C1241.21 47.006 1290.72 27.5006 1343.71 14.9701C1360.22 11.076 1376.99 8.17263 1393.64 4.81934L1393.89 6.00494Z" fill="white" fill-opacity="0.1"/>
<path d="M671.528 0.351252C662.493 -1.11987 653.41 -2.3617 644.432 -4.10541C597.558 -13.1918 552.622 -27.4011 512.392 -53.5611C485.186 -71.2492 463.159 -93.5368 449.43 -123.093C442.57 -137.852 443.852 -151.815 453.776 -164.536C463.396 -176.863 482.884 -181.255 497.726 -175.288C512.027 -169.542 522.409 -153.044 520.458 -137.562C515.827 -100.81 531.197 -72.6944 559.27 -50.2901C589.18 -26.4189 624.716 -14.1437 661.225 -4.14434C664.787 -3.1708 668.371 -2.2881 671.942 -1.36216L671.528 0.351252Z" fill="white" fill-opacity="0.1"/>
<path d="M311.394 358.349C300.043 356.424 288.622 354.814 277.351 352.517C235.324 343.949 194.901 331.008 158.194 308.569C127.813 290.007 102.84 266.464 88.0724 233.68C81.3755 218.804 83.6959 202.808 94.6768 191.519C105.09 180.802 121.768 176.959 135.259 182.165C150.524 188.058 159.669 201.445 159.4 218.237C159.158 233.135 158.273 247.941 163.882 262.371C174.044 288.497 193.382 306.362 216.92 320.533C244.276 337.001 274.286 347.013 305.102 354.996C307.326 355.571 309.505 356.294 311.707 356.96L311.394 358.349Z" fill="white" fill-opacity="0.1"/>
<path d="M47.7681 -0.632095C58.1634 -3.51809 66.7844 -5.73343 75.2953 -8.3079C108.599 -18.3764 140.538 -31.1882 167.132 -54.1723C191.533 -75.2613 204.557 -101.261 201.858 -133.825C201.118 -142.777 201.699 -151.479 206.503 -159.526C216.189 -175.8 236.712 -182.459 254.055 -174.817C271.962 -166.938 281.128 -146.844 274.462 -128.693C264.741 -102.222 246.671 -81.6867 224.608 -64.5264C183.251 -32.3564 134.88 -15.9102 84.0131 -5.45653C73.3536 -3.26715 62.5443 -1.79168 51.7923 -0.0306591C51.1583 0.0688581 50.4539 -0.216719 47.7681 -0.632095Z" fill="white" fill-opacity="0.1"/>
<path d="M1393.72 1.08649C1375.7 -2.55671 1357.51 -5.5595 1339.69 -9.96855C1296.4 -20.6731 1255.22 -36.3363 1219.8 -63.9069C1198.75 -80.2883 1181.49 -99.8932 1170.76 -124.452C1158.81 -151.75 1177.88 -178.971 1207.99 -177.625C1225.92 -176.807 1241.36 -161.468 1242.1 -143.443C1242.34 -137.636 1241.99 -131.808 1241.81 -125.993C1240.88 -96.4707 1254.45 -73.4519 1276.06 -54.5999C1305.5 -28.9158 1341.36 -15.706 1378.58 -5.44269C1383.79 -4.00041 1388.99 -2.57255 1394.2 -1.15911C1394.05 -0.401916 1393.88 0.333621 1393.72 1.08649Z" fill="white" fill-opacity="0.1"/>
<path d="M1086.3 50.5283C1091.08 65.59 1095.36 80.8162 1100.74 95.6832C1111.55 125.538 1125.74 153.559 1149.66 175.73C1170.48 195.032 1195.11 203.798 1223.73 200.873C1240.49 199.142 1255.27 206.567 1262.65 220.776C1269.73 234.423 1267.22 252.146 1256.67 263.019C1245.86 274.157 1228.37 277.657 1213.32 271.24C1187.52 260.242 1166.65 243.068 1149.62 221.222C1118.04 180.684 1101.78 133.785 1091.16 84.6022C1088.76 73.4822 1087.15 62.2022 1085.18 50.9913L1086.3 50.5283Z" fill="white" fill-opacity="0.1"/>
<path d="M1032.23 359.159C1011.77 354.641 991.217 350.466 970.858 345.529C931.645 336.01 895.004 320.728 862.506 296.783C841.372 281.206 824.2 262.168 812.193 238.894C804.563 224.109 803.7 209.537 813.382 195.193C821.999 182.433 840.962 176.635 856.434 182.07C872.131 187.578 883.345 203.57 881.377 218.874C876.283 258.525 893.802 287.965 924.614 311.036C946.474 327.395 971.355 338.225 997.504 346.278C1009.21 349.882 1020.94 353.434 1032.66 357.013L1032.23 359.159Z" fill="white" fill-opacity="0.1"/>
<path d="M1131.64 357.88C1151.95 351.139 1171.71 345.332 1190.83 338.042C1218.02 327.657 1243.01 313.543 1262.35 291.351C1278.3 273.039 1286.29 252.011 1284.8 227.694C1284.45 221.905 1284.06 215.942 1285.03 210.283C1287.53 195.645 1296.47 185.689 1310.9 181.622C1325.43 177.524 1338.88 180.635 1349.3 191.777C1360.08 203.299 1362.25 217.085 1356.53 231.48C1348.65 251.345 1335.7 267.916 1319.99 282.498C1288.38 311.86 1250.34 329.924 1209.17 341.585C1185.55 348.27 1161.17 352.35 1137.12 357.551C1135.61 357.88 1133.99 357.755 1131.64 357.88Z" fill="white" fill-opacity="0.1"/>
<path d="M412.388 357.261C431.087 350.991 450.051 345.384 468.42 338.301C497.836 326.951 524.778 311.647 544.459 286.379C559.231 267.405 565.47 245.953 562.568 222.142C560.64 206.319 568.257 191.526 582.355 184.291C596.634 176.966 613.863 179.246 625.971 190.063C636.93 199.851 640.751 217.85 634.543 231.982C623.395 257.35 605.924 277.846 583.848 294.721C551.706 319.275 515.052 334.636 476.006 344.691C455.075 350.087 433.822 354.262 412.71 358.97C412.604 358.412 412.494 357.858 412.388 357.261Z" fill="white" fill-opacity="0.1"/>
<path d="M48.7449 5.09644C61.4606 7.30312 74.238 9.18532 86.87 11.7728C124.405 19.4572 160.646 31.144 193.861 50.0739C228.808 69.9773 258.866 95.1465 274.039 133.551C280.974 151.11 273.383 170.33 256.969 179.213C232.312 192.548 202.183 175.431 201.633 147.826C201.435 137.844 201.866 127.775 200.677 117.901C197.78 93.8658 185.465 74.633 166.902 59.2554C137.086 34.5492 101.615 21.2442 64.6307 11.1583C59.2195 9.68288 53.7819 8.31995 48.3398 6.90508L48.7449 5.09644Z" fill="white" fill-opacity="0.1"/>
<path d="M361.42 140.146C363.313 150.807 365.079 160.564 366.774 170.33C373.581 209.462 382.941 247.867 399.047 284.498C406.51 301.472 400.712 321.12 386.001 332.223C371.811 342.927 349.897 342.391 334.98 330.972C320.939 320.224 315.607 300.745 322.85 284.299C341.659 241.576 351.112 196.464 358.404 150.82C358.844 148.06 359.328 145.308 359.883 142.569C359.998 142.015 360.513 141.544 361.42 140.146Z" fill="white" fill-opacity="0.1"/>
<path d="M860.886 2.92479C883.781 -1.34147 904.985 -4.0933 925.503 -9.41532C952.933 -16.5286 980.064 -24.953 1006.87 -34.1C1027.51 -41.1484 1048.22 -35.7788 1059.19 -18.3416C1069.98 -1.2073 1066.24 21.2274 1049.66 34.5497C1037.99 43.913 1024.15 46.6649 1010.22 40.828C963.76 21.4221 914.905 11.5785 865.359 4.26616C864.47 4.13635 863.633 3.7642 860.886 2.92479Z" fill="white" fill-opacity="0.1"/>
<path d="M141.37 2.04962C150.114 0.621767 158.859 -0.771485 167.594 -2.23396C208.563 -9.09199 248.745 -18.6111 287.213 -34.5987C305.877 -42.3567 326.642 -35.2477 337.028 -18.9226C347.573 -2.34648 344.685 20.3911 329.477 33.2634C317.55 43.3536 303.249 47.079 288.38 40.844C247.301 23.6145 204.205 14.0176 160.426 6.76583C154.077 5.71008 147.702 4.79281 141.335 3.81062C141.348 3.22217 141.361 2.62509 141.37 2.04962Z" fill="white" fill-opacity="0.1"/>
<path d="M1225.33 360.024C1239.02 357.566 1252.72 355.161 1266.39 352.668C1300.93 346.317 1334.6 337.399 1367.29 324.25C1392.82 313.974 1413.29 322.32 1423.88 348.047C1431.36 366.285 1422.08 390.195 1400.86 398.381C1388.17 403.275 1376.61 400.731 1363.92 396.27C1337.66 387.045 1310.75 379.452 1283.78 372.472C1267.11 368.146 1249.82 366.177 1232.8 363.135C1230.31 362.702 1227.82 362.183 1225.32 361.703L1225.33 360.024Z" fill="white" fill-opacity="0.1"/>
<path d="M579.779 3.86465C570.067 5.44827 560.34 6.93238 550.65 8.62417C511.38 15.4822 472.717 24.4388 435.931 40.1235C418.847 47.4056 398.876 42.5119 388.163 29.142C376.183 14.1971 375.214 -6.08275 385.799 -20.2704C397.247 -35.5961 416.325 -42.2507 433.611 -34.9817C479.146 -15.8874 527.054 -6.2039 575.579 1.36373C576.944 1.57574 578.287 1.93054 579.639 2.2291C579.687 2.75264 579.74 3.31082 579.779 3.86465Z" fill="white" fill-opacity="0.1"/>
<path d="M1302.12 3.4913C1283.07 6.98306 1263.97 10.1892 1244.99 14.0358C1214.8 20.154 1185.36 28.561 1156.89 40.5507C1132.69 50.7404 1102.12 33.7662 1100.6 5.13552C1099.07 -23.7807 1128.78 -46.5356 1157.89 -34.2128C1199.97 -16.3905 1244.35 -6.95369 1289.38 -0.0307472C1293.72 0.639913 1298.05 1.37981 1302.39 2.08941L1302.12 3.4913Z" fill="white" fill-opacity="0.1"/>
<path d="M721.193 222.429C718.314 206.208 715.791 189.917 712.48 173.782C705.691 140.686 696.079 108.447 683.156 77.056C673.73 54.1541 689.633 25.9258 717.834 23.8835C749.249 21.6119 771.193 48.6547 759.86 77.6098C743.283 119.978 732.086 163.528 724.971 208.233C724.209 212.992 723.404 217.791 722.62 222.572L721.193 222.429Z" fill="white" fill-opacity="0.1"/>
<path d="M218.672 361.704L184.083 367.524C149.22 373.4 115.049 381.928 82.1898 394.856C71.4555 399.079 61.2803 403.25 49.41 400.343C33.9997 396.57 23.0891 387.233 19.5448 372.534C15.6217 356.244 18.1314 340.308 33.1014 329.102C45.9889 319.453 59.7612 317.666 75.1099 323.935C107.128 337.015 140.41 346.11 174.493 352.315C187.759 354.729 201.074 356.854 214.362 359.151C215.836 359.483 217.293 359.889 218.725 360.367L218.672 361.704Z" fill="white" fill-opacity="0.1"/>
<path d="M1083.7 142.068C1085.74 153.95 1087.66 165.866 1089.84 177.704C1096.45 213.491 1105.39 248.625 1120.05 282.184C1128 300.409 1123.28 320.1 1108.6 331.458C1094.04 342.708 1072.13 342.617 1057.09 331.237C1043.24 320.766 1038.15 302.741 1044.39 285.373C1049.49 271.12 1056.18 257.274 1059.8 242.684C1067.67 211.098 1074.02 179.136 1080.99 147.33C1081.37 145.599 1081.67 143.846 1082.01 142.103L1083.7 142.068Z" fill="white" fill-opacity="0.1"/>
<path d="M505.419 359.733C512.798 358.435 520.155 356.981 527.557 355.813C568.605 349.348 608.659 339.457 647.101 323.552C665.488 315.941 684.447 321.341 696.035 336.459C707.144 350.953 706.91 371.19 695.467 385.849C684.227 400.24 664.713 405.58 646.898 397.938C614.568 384.067 580.564 375.976 546.309 368.702C535.244 366.353 523.902 365.267 512.701 363.51C510.213 363.121 507.796 362.316 505.344 361.701C505.37 361.039 505.392 360.386 505.419 359.733Z" fill="white" fill-opacity="0.1"/>
<path d="M940.856 361.453C925.287 364.114 909.679 366.568 894.158 369.484C862.708 375.39 831.826 383.464 802.348 395.878C787.488 402.134 773.332 403.921 758.952 395.276C740.874 384.407 734.477 361.57 744.093 341.913C752.749 324.212 775.627 315.952 795.03 322.776C817.745 330.763 840.381 339.313 863.655 345.314C886.691 351.251 910.497 354.319 933.961 358.641C936.387 359.074 938.804 359.506 941.243 359.965L940.856 361.453Z" fill="white" fill-opacity="0.1"/>
<path d="M356 114.926C352.125 138.291 348.752 161.738 344.257 184.977C337.08 222.101 327.411 258.564 309.892 292.503C306.603 298.881 302.746 305.202 298.004 310.585C286.631 323.518 266.259 323.617 253.631 311.45C241.51 299.768 241.602 279.657 254.279 268.321C260.733 262.544 268.227 257.897 274.765 252.203C307.545 223.646 328.204 187.409 342.835 147.455C346.797 136.577 350.276 125.518 353.979 114.541L356 114.926Z" fill="white" fill-opacity="0.1"/>
<path d="M836.396 8.38965C850.094 10.2675 863.827 11.9463 877.484 14.0665C916.389 20.0894 954.919 27.8302 991.683 42.0655C1004.84 47.1582 1017.55 53.6268 1029.87 60.5108C1042.18 67.3948 1047.14 79.696 1044.4 92.6419C1041.64 105.722 1032.07 114.955 1018.25 116.79C1004.93 118.56 994.862 112.749 987.43 102.139C975.886 85.6973 961.633 71.7909 945.422 59.8661C916.226 38.392 883.34 24.3514 848.663 13.9324C844.44 12.6646 840.249 11.2843 836.044 9.95596L836.396 8.38965Z" fill="white" fill-opacity="0.1"/>
<path d="M608.226 8.68386C587.326 16.5804 565.958 23.5812 545.493 32.6199C509.086 48.7071 477.71 71.4231 454.656 104.19C447.383 114.531 436.807 118.56 424.276 116.504C410.323 114.22 401.931 105.553 399.223 92.2006C396.749 79.9729 400.289 68.5717 411.362 62.406C427.345 53.5057 443.944 45.2024 461.142 38.9674C507.857 22.0278 556.791 14.5121 605.999 8.67953C606.74 8.6256 607.485 8.62705 608.226 8.68386V8.68386Z" fill="white" fill-opacity="0.1"/>
<path d="M1197.29 353.724C1206.4 350.795 1215.56 347.986 1224.61 344.914C1265.92 330.9 1303.8 311.269 1333.91 279.311C1339.69 273.184 1344.84 266.439 1349.83 259.654C1357.39 249.373 1367.55 245.047 1380.05 246.76C1392.63 248.491 1402.61 257.737 1405.05 269.614C1407.65 282.257 1404.97 294.096 1393.57 301.148C1381.18 308.877 1368.08 315.463 1354.46 320.823C1304.9 340.051 1252.72 348.328 1200.2 354.879C1199.31 354.916 1198.41 354.876 1197.53 354.758L1197.29 353.724Z" fill="white" fill-opacity="0.1"/>
<path d="M728.071 246.12C728.855 238.993 729.079 231.755 730.519 224.754C737.643 190.078 743.895 155.165 752.833 120.94C758.922 97.6355 768.036 74.911 782.918 55.1417C792.543 42.3559 810.564 39.0848 824.121 48.1798C837.356 57.0541 842.613 74.1062 834.129 87.4242C831.905 90.9159 829.567 94.8231 826.252 97.0817C785.305 124.998 760.164 164.264 742.684 209.008C737.872 221.322 733.878 233.948 729.502 246.435L728.071 246.12Z" fill="white" fill-opacity="0.1"/>
<path d="M1089.47 113.823C1093.36 125.281 1096.8 136.288 1100.81 147.097C1118.33 194.316 1143.39 236.26 1186.49 265.773C1197.46 273.285 1200.96 284.465 1198.01 297.238C1195.05 310.011 1186.31 317.427 1173.61 319.664C1160.66 321.944 1149.66 317.847 1142.22 306.714C1129.09 287.061 1120.98 265.202 1113.97 242.928C1100.9 201.433 1093.75 158.779 1088.67 115.719C1088.62 115.368 1088.99 114.935 1089.47 113.823Z" fill="white" fill-opacity="0.1"/>
<path d="M1329.35 10.1638C1321.34 12.669 1313.32 15.1526 1305.31 17.6751C1276 26.9173 1248.38 39.7767 1223.35 57.322C1205.02 70.177 1189.09 85.732 1176.39 104.285C1169.61 114.203 1159.71 118.633 1147.67 116.976C1134.51 115.159 1125.7 107.678 1121.78 95.104C1117.82 82.3614 1122.76 69.5756 1133.87 62.1031C1163.84 41.9617 1198.06 32.2479 1232.78 24.7928C1263.74 18.1294 1295.3 14.0536 1326.56 8.87003C1327.38 8.7359 1328.26 8.98249 1329.12 9.0474C1329.2 9.4195 1329.27 9.79165 1329.35 10.1638Z" fill="white" fill-opacity="0.1"/>
<path d="M5.48584 248.746C7.06209 237.029 8.36981 225.269 10.2587 213.599C16.0662 177.712 22.7542 141.943 35.4523 107.717C41.6649 90.9638 49.7266 74.7814 58.079 58.9149C64.6834 46.3887 77.6149 40.885 91.0262 43.7363C103.909 46.4752 112.381 54.19 115.361 67.2181C118.192 79.5712 113.446 91.2623 101.8 99.2107C66.9906 122.969 43.9632 155.832 27.4257 193.367C19.4652 211.44 13.2658 230.262 6.26517 248.75L5.48584 248.746Z" fill="white" fill-opacity="0.1"/>
<path d="M1437.43 250.119C1432.59 236.178 1428.46 223.319 1423.68 210.706C1410.39 175.624 1391.85 143.64 1364.38 117.281C1357.31 110.492 1349.29 104.569 1341.29 98.8056C1330.41 90.9654 1325.83 80.6329 1328.16 67.8255C1330.46 55.1781 1338.58 46.8619 1351.31 44.0884C1364.42 41.2327 1376.01 44.7548 1383.79 56.0132C1395.88 73.4893 1403.46 93.0639 1410.16 113.024C1424.84 156.803 1432.22 202.031 1438.04 247.588C1438.08 248.004 1437.83 248.462 1437.43 250.119Z" fill="white" fill-opacity="0.1"/>
<path d="M970.219 355.224C961.678 354.242 954.708 353.714 947.835 352.597C928.462 349.447 909.089 346.341 889.835 342.706C853.198 335.783 817.442 326.082 784.283 308.689C780.734 306.824 777.177 304.942 773.839 302.752C762.414 295.245 757.663 284.579 760.19 271.426C762.717 258.272 770.986 249.818 784.547 247.196C797.756 244.669 808.394 249.298 816.024 260.003C842.512 297.171 879.061 321.068 921.369 337.341C936.964 343.355 952.744 348.85 970.219 355.224Z" fill="white" fill-opacity="0.1"/>
<path d="M1077.5 115.284C1074.48 134.807 1071.97 154.42 1068.35 173.839C1061.3 211.699 1052.45 249.126 1035.8 284.264C1032.01 292.26 1027.76 300.153 1022.8 307.491C1015.67 318.031 1004.9 321.886 992.418 319.822C979.94 317.759 970.998 310.437 968.026 298.188C965.191 286.506 966.516 274.715 977.347 267.251C1024.42 234.8 1051.06 188.836 1068.45 136.533C1070.86 129.279 1073.28 122.024 1075.7 114.769L1077.5 115.284Z" fill="white" fill-opacity="0.1"/>
<path d="M367.188 114.093C373.792 132.062 379.098 148.228 385.649 163.886C402.724 204.675 427.266 239.952 464.497 265.922C478.305 275.549 480.929 293.683 471.881 306.975C462.758 320.388 444.143 324.49 429.732 315.568C425.329 312.842 421.459 308.502 418.694 304.084C401.844 277.197 391.646 247.55 384.901 217.011C377.821 184.993 372.991 152.468 367.219 120.159C366.985 118.84 367.188 117.442 367.188 114.093Z" fill="white" fill-opacity="0.1"/>
<path d="M477.151 353.2C479.243 352.451 481.299 351.568 483.439 350.963C521.973 340.081 558.108 324.34 589.774 299.742C604.335 288.431 617.072 275.382 627.503 260.203C635.028 249.243 645.832 244.626 658.812 246.872C672.567 249.239 680.717 257.992 683.592 271.505C686.027 282.928 681.021 295.579 670.308 302.429C652.014 314.166 631.912 322.922 610.776 328.359C581.981 335.715 552.829 341.842 523.704 347.891C508.531 351.045 493.086 352.914 477.763 355.363C477.543 354.64 477.341 353.922 477.151 353.2Z" fill="white" fill-opacity="0.1"/>
<path d="M113.649 8.17749C127.69 10.1505 141.48 11.9678 155.235 14.0447C195.619 20.1542 235.514 28.3622 273.507 43.5451C286.007 48.5296 298.081 54.4924 309.611 61.376C319.658 67.386 323.26 77.8179 322.771 89.1543C322.296 99.5819 317.333 107.894 307.889 113.038C293.082 121.104 278.143 117.46 267.408 104.675C256.445 91.6162 245.918 77.6882 232.766 67.0571C217.95 55.0761 201.149 44.8648 183.871 36.5875C161.416 25.8223 137.627 17.7225 113.649 8.17749Z" fill="white" fill-opacity="0.1"/>
<path d="M247.402 355.406C232.973 353.442 218.496 351.772 204.129 349.461C167.84 343.62 131.701 336.831 97.2876 323.76C81.6053 317.831 66.4387 310.661 51.9372 302.32C36.3156 293.294 33.3304 272.171 44.1 258.247C54.2268 245.163 75.0263 242.822 87.9445 253.388C89.7868 254.848 91.4164 256.55 92.7878 258.446C121.495 299.551 162.592 323.937 208.801 341.279C221.569 346.039 234.651 349.933 247.591 354.208C247.542 354.606 247.472 355.008 247.402 355.406Z" fill="white" fill-opacity="0.1"/>
<path d="M714.214 246.773C712.709 242.221 711.172 237.686 709.71 233.117C696.999 193.392 679.528 156.1 650.196 125.379C640.883 115.622 630.056 107.15 619.322 98.8382C603.502 86.5932 601.063 66.0148 614.479 52.4242C630.299 36.4149 654.986 42.2908 666.354 62.8606C693.943 112.801 703.947 167.427 712.744 222.499C714.012 230.439 714.787 238.452 715.791 246.431L714.214 246.773Z" fill="white" fill-opacity="0.1"/>
</g>
</svg>
