<svg width="1445" height="1432" viewBox="0 0 1445 1432" fill="none" xmlns="http://www.w3.org/2000/svg">
<rect width="1444" height="1432" fill="#D9918B"/>
<path d="M0 1391.1H83.7792L84.2679 1389.91C82.1149 1388.93 79.9046 1388.05 77.8176 1386.95C68.6507 1382.12 59.0831 1377.86 50.4753 1372.19C38.9044 1364.59 36.1569 1352.91 38.7899 1340.07C41.075 1328.93 51.2723 1319.73 62.0023 1318.19C77.1836 1316.01 88.1337 1321.06 95.6187 1332.18C110.923 1354.91 131.666 1372.06 155.058 1386.33C182.26 1402.92 211.795 1414.11 242.338 1423C244.162 1423.46 245.889 1424.24 247.441 1425.29C207.026 1421.63 167.237 1414.52 127.888 1404.47C124.581 1412.06 129.799 1413.2 134.373 1414.12C158.951 1419.09 183.576 1423.84 208.167 1428.72C212.314 1429.55 216.4 1430.66 220.495 1431.65H18.4924C18.9106 1425.84 19.3289 1420.05 19.8132 1413.47H0V1391.1ZM61.1085 1404.6L65.868 1406.95L67.6644 1402.31L62.6758 1400.76C62.1504 1402.04 61.628 1403.32 61.1085 1404.6ZM102.818 1394.94C100.709 1398.05 98.3089 1400.03 98.5554 1401.61C98.8856 1403.71 101.638 1407.3 102.712 1407.1C105.961 1406.49 108.907 1404.34 111.958 1402.77L102.818 1394.94Z" fill="white" fill-opacity="0.1"/>
<path d="M739.787 1431.65C739.888 1403.5 767.526 1382.84 793.336 1393.3C839.43 1411.96 887.537 1422.21 936.432 1429.88C938.739 1430.25 940.971 1431.05 943.234 1431.65H739.787Z" fill="white" fill-opacity="0.1"/>
<path d="M1222.07 1431.65C1236.23 1429.01 1250.37 1426.29 1264.53 1423.74C1300.73 1417.25 1336.06 1407.95 1370.1 1393.93C1390.41 1385.57 1412.87 1394.48 1421.99 1414.14C1424.43 1419.41 1424.41 1425.78 1425.51 1431.65H1222.07Z" fill="white" fill-opacity="0.1"/>
<path d="M1444.01 570.433C1442.89 568.036 1441.16 565.742 1440.74 563.237C1434.88 528.056 1427.71 493.181 1415.69 459.454C1412.32 450.025 1408.03 440.913 1404.74 431.459C1395.49 404.888 1415.41 378.39 1444.01 378.892V570.433Z" fill="white" fill-opacity="0.1"/>
<path d="M1444.01 1052.77C1413.29 1051.94 1394.06 1023.38 1406.09 995.924C1423.34 956.55 1432.72 915.185 1439.77 873.146C1440.45 869.053 1442.56 865.198 1444.01 861.23V1052.77Z" fill="white" fill-opacity="0.1"/>
<path d="M500.778 1431.65C517.949 1428.43 535.169 1425.32 552.327 1421.97C583.989 1415.8 615.074 1407.69 644.838 1395.15C674.289 1382.74 703.181 1400.55 704.22 1431.66L500.778 1431.65Z" fill="white" fill-opacity="0.1"/>
<path d="M1444.01 1283.45C1442.15 1278.1 1439.47 1272.88 1438.56 1267.38C1431.98 1227.73 1422.36 1188.95 1406.41 1151.8C1394.06 1123 1413.46 1093.79 1444.01 1094.71L1444.01 1283.45Z" fill="white" fill-opacity="0.1"/>
<path d="M1444.01 336.952C1414.07 336.757 1394.41 309.091 1405.78 281.607C1417.35 253.615 1426.33 224.652 1432.59 195.071C1435.58 180.991 1438.18 166.834 1441.14 152.745C1441.58 150.66 1443.02 148.786 1444.01 146.813V336.952Z" fill="white" fill-opacity="0.1"/>
<path d="M1425.52 0.01298C1426.27 28.6912 1397.89 47.8331 1369.95 37.8165C1351.08 31.0494 1332.31 23.6375 1312.91 18.7785C1286.6 12.206 1259.71 7.82292 1233.08 2.47495C1229.39 1.73506 1225.74 0.830752 1222.07 0L1425.52 0.01298Z" fill="white" fill-opacity="0.1"/>
<path d="M943.229 0.0128784C926.256 3.13685 909.265 6.17862 892.309 9.39779C859.415 15.6371 827.37 24.6196 796.387 37.3319C768.582 48.7374 740.007 29.6517 739.787 0.0128784H943.229Z" fill="white" fill-opacity="0.1"/>
<path d="M704.22 0.0128784C703.221 29.9675 675.302 48.906 647.479 37.3318C602.569 18.6399 555.33 9.35883 507.602 1.64842C505.3 1.27631 503.054 0.566713 500.778 0.0128784H704.22Z" fill="white" fill-opacity="0.1"/>
<path d="M220.513 0.0128784C205.657 2.77628 190.799 5.53823 175.937 8.29875C141.154 14.7241 107.154 23.7369 74.5066 37.4356C47.1467 48.919 16.828 28.544 18.4923 0.0128784H220.513Z" fill="white" fill-opacity="0.1"/>
<path d="M0 852.841C2.25871 864.697 4.62753 876.535 6.74975 888.412C13.3542 925.415 22.7588 961.583 37.6891 996.336C49.674 1024.22 31.1684 1051.37 0 1052.77V852.841Z" fill="white" fill-opacity="0.1"/>
<path d="M0 1094.71C29.8255 1093.91 49.3702 1122.5 37.5483 1150.59C23.7231 1183.47 14.4196 1217.5 7.868 1252.36C5.89108 1262.87 4.34574 1273.46 2.45247 1283.97C1.96815 1286.65 0.832156 1289.22 0 1291.84V1094.71Z" fill="white" fill-opacity="0.1"/>
<path d="M0 135.63C2.77826 150.696 5.5917 165.757 8.33033 180.832C14.3359 213.924 23.067 246.25 36.3375 277.299C40.648 287.393 43.0651 297.54 39.4679 308.5C33.7441 325.989 19.7208 336.265 0 336.953V135.63Z" fill="white" fill-opacity="0.1"/>
<path d="M0 378.893C28.5839 378.577 48.9387 405.213 38.6138 431.494C26.2195 463.037 16.0091 495.069 9.46192 528.217C6.57799 542.798 4.35011 557.509 1.76118 572.147C1.36051 574.406 0.594397 576.599 0 578.819V378.893Z" fill="white" fill-opacity="0.1"/>
<path d="M357.479 1026.34C353.046 1012 349.114 997.492 344.059 983.378C333.761 954.678 320.684 927.428 298.779 905.123C278.033 883.991 253.218 873.33 223 875.095C215.823 875.528 208.03 875.381 201.373 873.083C181.309 866.16 172.093 845.629 179.129 825.981C185.734 807.527 207.207 797.316 226.712 803.832C244.029 809.621 258.779 819.841 272.19 831.779C301.712 858.086 320.23 891.442 334.104 927.519C345.948 958.322 353.248 990.314 358.197 1022.84C358.364 1023.94 358.219 1025.08 358.219 1026.2L357.479 1026.34Z" fill="white" fill-opacity="0.1"/>
<path d="M312.829 1429.43C298.048 1426.78 284.518 1424.79 271.186 1421.9C225.259 1411.91 181.476 1396.77 142.994 1369.19C126.589 1357.43 112.213 1343.57 100.62 1327.3C94.716 1319.01 90.1017 1309.58 86.3989 1300.1C80.7587 1285.65 85.078 1272.36 95.5217 1261.57C106.578 1250.13 120.865 1247.97 135.5 1253.26C150.136 1258.55 158.277 1269.7 159.276 1285.09C160.038 1296.91 158.422 1309.06 160.597 1320.57C166.537 1351.78 187.455 1372.61 213.578 1389.12C241.823 1406.98 273.233 1417.25 305.379 1425.69C307.206 1426.18 309.029 1426.69 310.826 1427.27C311.16 1427.37 311.407 1427.85 312.829 1429.43Z" fill="white" fill-opacity="0.1"/>
<path d="M1440.59 668.855C1435.22 652.089 1430.54 635.971 1424.91 620.204C1416.63 597.008 1405.49 575.162 1389.56 556.016C1366.63 528.428 1337.88 513.764 1300.67 517.689C1278.47 520.03 1259.41 502.406 1259.43 480.275C1259.43 459.692 1278.46 442.912 1299.94 444.089C1313.71 444.842 1324.59 452.016 1335.41 459.034C1362.11 476.341 1381.84 499.962 1397.05 527.333C1421.23 570.848 1434.3 617.79 1440.99 666.657C1441.05 667.077 1440.84 667.536 1440.59 668.855Z" fill="white" fill-opacity="0.1"/>
<path d="M725.478 763.424C729.621 776.746 733.456 790.172 737.969 803.369C748.316 833.631 761.85 862.309 785.155 885.259C806.685 906.461 832.403 917.204 863.549 913.383C879.933 911.384 894.674 919.709 902.101 934.126C908.913 947.353 906.504 964.159 896.223 975.11C885.366 986.671 868.344 990.687 853.207 984.409C827.353 973.648 806.364 956.643 789.219 934.862C762.335 900.706 746.325 861.6 735.675 820.201C730.871 801.552 727.626 782.518 723.672 763.658L725.478 763.424Z" fill="white" fill-opacity="0.1"/>
<path d="M719.005 668.146C712.167 648.36 706.117 628.275 698.311 608.869C687.788 582.726 673.822 558.474 651.697 539.713C630.809 521.999 606.672 514.899 579.26 517.715C559.393 519.753 541.694 506.219 538.255 486.904C534.948 468.299 547.475 449.65 566.619 445.249C575.825 443.129 584.834 444.163 593.631 448.118C626.014 462.674 649.808 486.411 668.256 515.66C697.76 562.446 711.691 614.329 719.005 668.146Z" fill="white" fill-opacity="0.1"/>
<path d="M3.92773 665.745C8.35269 625.709 18.2813 587.299 34.832 550.651C48.2345 520.96 65.1066 493.45 90.8022 472.534C102.84 462.789 115.974 454.431 129.949 447.625C148.705 438.473 170.333 446.227 179.539 463.357C188.671 480.34 183.841 501.766 167.321 511.277C160.523 515.193 151.497 518.338 143.95 517.551C104.42 513.427 74.934 529.666 51.6469 559.201C29.6322 587.139 17.4139 619.616 8.11053 653.318C7.12133 656.909 6.08368 660.491 4.99762 664.062C4.8127 664.667 4.27557 665.182 3.92773 665.745Z" fill="white" fill-opacity="0.1"/>
<path d="M2.89307 45.8293C8.56846 63.5694 13.3456 79.6263 18.8493 95.4279C26.7262 118.027 37.1832 139.614 52.6331 158.072C75.7838 185.725 104.5 202.552 142.893 197.641C157.767 195.741 172.393 204.079 179.838 217.747C186.958 230.806 184.757 247.469 174.326 259.506C165.648 269.518 147.741 274.503 134.554 269.847C110.514 261.358 91.1457 246.114 74.551 227.505C48.9919 198.844 31.6266 165.536 21.1916 129.082C14.028 104.047 9.25964 78.3455 3.47418 52.9297C3.08672 51.2249 3.17045 49.412 2.89307 45.8293Z" fill="white" fill-opacity="0.1"/>
<path d="M725.627 1384.24C729.436 1346.56 738.268 1310.29 752.784 1275.38C765.83 1244 782.513 1214.81 808.393 1192.05C820.569 1181.4 834.037 1172.26 848.491 1164.85C873.588 1151.96 900.067 1164.55 905.289 1190.31C909.551 1211.25 893.168 1232.12 871.439 1233.32C867.891 1233.5 864.334 1233.45 860.793 1233.17C825.869 1230.46 798.777 1244.81 777.067 1270.51C754.039 1297.77 741.464 1330.06 731.518 1363.54C729.493 1370.42 727.595 1377.34 725.627 1384.24Z" fill="white" fill-opacity="0.1"/>
<path d="M359.359 1121.48C354.807 1142.35 351.042 1163.42 345.53 1184.03C335.328 1222.16 319.931 1258.1 295.715 1289.96C279.244 1311.65 258.88 1328.76 233.999 1340.4C208.18 1352.47 181.789 1339.79 177.285 1313.47C173.397 1290.76 194.069 1268.54 217.483 1271.28C254.213 1275.58 282.541 1261.29 305.542 1234.5C330.014 1206.02 342.126 1171.72 352.654 1136.72C354.226 1131.49 355.591 1126.21 357.057 1120.96L359.359 1121.48Z" fill="white" fill-opacity="0.1"/>
<path d="M771.501 360.067C783.085 362.135 794.727 363.935 806.245 366.323C850.86 375.574 893.582 389.636 931.896 414.723C958.873 432.386 980.615 454.66 994.325 483.84C1004.45 505.358 994.977 529.376 973.913 536.433C946.175 545.723 920.365 524.751 923.588 495.328C925.395 479.74 922.805 463.963 916.103 449.723C907.275 430.767 893.045 416.333 875.794 404.599C847.32 385.227 815.355 373.779 782.249 364.948C778.608 363.978 774.958 363.026 771.316 362.066C771.378 361.4 771.44 360.733 771.501 360.067Z" fill="white" fill-opacity="0.1"/>
<path d="M769.604 355.206C789.025 348.902 806.927 343.679 824.385 337.293C851.683 327.302 877.22 314.114 897.509 292.917C916.992 272.55 926.599 248.597 923.521 220.325C921.606 202.754 928.14 188.683 944.118 180.821C957.719 174.132 971.751 176.014 984.392 184.992C996.879 193.858 1002.11 213.138 995.637 228.49C984.075 255.944 964.887 277.357 940.781 294.885C904.263 321.422 862.704 336.522 819.018 346.686C805.893 349.741 792.556 351.935 779.294 354.41C776.679 354.881 773.949 354.86 769.604 355.206Z" fill="white" fill-opacity="0.1"/>
<path d="M1080.45 407.178C1077.87 420.833 1075.77 434.593 1072.63 448.118C1063.08 489.223 1049.05 528.597 1024.97 564.004C1008.61 588.026 988.131 607.592 962.325 621.707C943.26 632.134 925.384 631.879 911.907 620.586C900.019 610.634 895.466 593.072 901.177 579.265C907.447 564.121 923.539 553.542 939.302 555.497C979.219 560.439 1008.45 543.187 1031.76 513.389C1054.91 483.784 1066.64 449.144 1076.57 413.754C1077.19 411.522 1077.84 409.298 1078.48 407.07L1080.45 407.178Z" fill="white" fill-opacity="0.1"/>
<path d="M718.433 1384.34C714.193 1370.6 710.287 1356.75 705.638 1343.14C697.536 1319.43 687.022 1296.79 671.669 1276.65C649.056 1246.99 620.155 1229.56 581.03 1233.34C556.937 1235.67 543.011 1220.51 539.171 1206.34C535.376 1192.34 539.145 1180.13 549.778 1170.03C561.512 1158.88 575.623 1157.1 589.999 1162.54C613.436 1171.4 632.584 1186.65 648.756 1205.34C679.709 1241.14 697.096 1283.45 708.473 1328.39C713.118 1346.74 716.297 1365.45 720.141 1383.99L718.433 1384.34Z" fill="white" fill-opacity="0.1"/>
<path d="M1086.67 1121.18C1089.66 1131.42 1092.43 1141.72 1095.69 1151.88C1105.08 1181.13 1117.06 1209.17 1137.08 1233.18C1160.22 1260.92 1188.93 1275.61 1226.56 1271.34C1242.3 1269.56 1254.59 1277.17 1262.35 1290.76C1269.84 1303.89 1267.92 1319.82 1258.01 1331.9C1249.08 1342.78 1232.71 1348.05 1218.86 1343.69C1199.78 1337.67 1183.69 1326.57 1169.24 1313.24C1141.5 1287.63 1123.76 1255.69 1110.37 1221.23C1098.23 1190.02 1090.21 1157.71 1085.82 1124.56C1085.75 1123.48 1085.75 1122.39 1085.82 1121.31L1086.67 1121.18Z" fill="white" fill-opacity="0.1"/>
<path d="M365.224 408.08C369.116 420.442 372.744 432.899 376.962 445.157C386.821 473.792 399.475 501.021 420.596 523.598C442.549 547.067 469.076 559.511 502.222 555.569C517.9 553.696 532.558 561.108 540.285 574.733C547.431 587.324 546.181 603.891 537.256 614.877C527.103 627.373 511.058 632.794 495.868 627.719C474.091 620.433 456.374 606.898 440.598 590.777C413.401 562.99 395.825 529.5 384.24 493.267C376.108 467.825 371.19 441.393 364.92 415.384C364.361 413.065 364.418 410.625 364.189 408.206L365.224 408.08Z" fill="white" fill-opacity="0.1"/>
<path d="M725.618 668.535C730.774 621.035 742.79 575.668 765.152 533.451C783.926 498.036 808.931 468.246 846.193 449.943C868.247 439.1 890.451 444.081 901.23 463.279C908.345 475.961 907.988 488.92 899.763 501.022C891.666 512.934 880.016 519.536 865.306 517.896C828.348 513.734 799.605 527.87 776.732 555.254C753.859 582.639 741.156 614.93 731.382 648.524C729.405 655.17 727.525 661.855 725.618 668.535Z" fill="white" fill-opacity="0.1"/>
<path d="M1083.88 1025.47C1089.66 1001.08 1094.5 976.428 1101.43 952.349C1111.97 915.8 1127.85 881.51 1152.31 851.668C1169.04 831.258 1189.09 814.756 1214.07 804.817C1234.33 796.765 1256.06 805.323 1264.03 825.179C1271.24 843.144 1264.64 864.004 1243.85 872.731C1239.45 874.587 1234.11 875.82 1229.43 875.327C1175.5 869.871 1142.76 898.536 1118.47 941.143C1105.64 963.642 1097.57 987.937 1090.44 1012.59C1089.16 1017.05 1088 1021.54 1086.78 1026L1083.88 1025.47Z" fill="white" fill-opacity="0.1"/>
<path d="M311.42 719.349C294.768 724.541 277.958 729.301 261.504 735.069C236.812 743.757 213.596 755.469 193.831 772.647C170.055 793.303 156.472 818.676 159.21 850.841C160.245 863.026 158.999 874.488 150.021 884.115C137.323 897.727 117.202 900.557 101.558 890.631C94.0278 885.841 88.4684 878.584 85.8672 870.147C83.266 861.711 83.7913 852.642 87.3499 844.55C99.0398 817.702 117.854 796.574 141.431 779.263C176.215 753.734 215.753 738.591 257.506 728.587C275.157 724.355 293.091 721.266 310.896 717.657L311.42 719.349Z" fill="white" fill-opacity="0.1"/>
<path d="M771.708 1075.88C783.556 1077.95 795.484 1079.64 807.244 1082.16C850.811 1091.5 892.767 1104.98 930.337 1129.46C954.589 1145.26 975.195 1164.5 989.289 1189.85C995.734 1201.45 1001.14 1213.15 997.214 1227.06C992.124 1245.06 974.719 1256.48 955.32 1254.03C937.673 1251.79 923.619 1236.13 923.258 1218.4C923.042 1207.28 924.138 1195.94 922.262 1185.09C917.609 1158.05 900.772 1138.49 879.034 1122.56C853.163 1103.57 823.412 1092.76 792.913 1083.67C785.714 1081.51 778.409 1079.69 771.158 1077.71C771.338 1077.09 771.523 1076.5 771.708 1075.88Z" fill="white" fill-opacity="0.1"/>
<path d="M672.54 361.286C654.1 367.205 635.304 372.246 617.301 379.242C586.643 391.154 557.786 406.207 537.607 433.202C523.395 452.201 517.323 473.442 520.33 497.019C522.351 512.872 514.14 527.787 499.535 535.216C487.062 541.559 469.155 539.11 458.253 529.526C446.088 518.852 441.777 502.938 447.779 488.227C459.429 459.691 479.431 437.65 504.497 419.863C542.658 392.751 585.952 377.494 631.474 367.659C645.057 364.726 658.829 362.636 672.513 360.156L672.54 361.286Z" fill="white" fill-opacity="0.1"/>
<path d="M771.316 1070.29C788.809 1064.67 806.514 1059.59 823.747 1053.28C850.107 1043.64 874.927 1031.07 895.03 1011.15C916.165 990.201 926.732 965.335 923.518 935.376C921.633 917.722 930.598 902.163 945.431 895.919C960.775 889.464 978.255 893.059 989.386 905.871C999.284 917.255 1001.41 930.534 995.55 944.423C984.983 969.519 967.895 989.808 946.29 1006.47C906.421 1037.22 860.115 1053.58 811.295 1064.1C798.166 1066.93 784.878 1069.14 771.669 1071.63L771.316 1070.29Z" fill="white" fill-opacity="0.1"/>
<path d="M359.087 404.088C356.3 418.912 354.107 432.403 351.188 445.738C341.691 489.11 326.641 530.332 300.906 567.218C283.7 591.881 261.958 611.594 234.321 624.549C207.859 636.95 181.3 623.952 177.109 596.745C173.776 575.089 194.135 552.953 216.295 555.57C258.629 560.564 289.142 542.157 312.662 509.875C334.237 480.275 345.777 446.292 355.296 411.547C355.785 409.756 356.234 407.947 356.788 406.173C356.92 405.819 357.427 405.581 359.087 404.088Z" fill="white" fill-opacity="0.1"/>
<path d="M1393.88 1071.38C1381.82 1069.26 1369.67 1067.54 1357.71 1064.95C1313.04 1055.3 1269.92 1041.55 1231.94 1015.56C1205.6 997.537 1183.55 975.63 1170.67 946.056C1163.43 929.432 1167.79 911.29 1181.5 900.624C1194.27 890.672 1213.47 890.318 1227.22 900.109C1237.07 907.127 1242.01 916.876 1242.16 928.818C1242.26 936.494 1241.67 944.187 1241.98 951.85C1242.95 976.249 1254.22 996.26 1271.83 1012.4C1303.17 1041.11 1342.04 1055.66 1382.65 1066.38C1386.51 1067.39 1390.33 1068.57 1394.16 1069.68L1393.88 1071.38Z" fill="white" fill-opacity="0.1"/>
<path d="M1034.29 718.618C1013.62 725.442 994.303 730.993 975.644 738.193C949.719 748.192 925.587 761.298 906.31 781.842C886.836 802.611 878.224 826.785 881.06 854.844C882.675 870.854 875.582 884.725 861.625 892.22C848.667 899.173 831.381 897.485 819.476 888.1C808.442 879.399 803.255 862.252 808.072 848.021C813.774 831.181 823.879 816.812 835.89 803.753C863.289 773.95 897.914 755.232 935.731 741.572C965.398 730.855 996.108 724.109 1027.24 719.073C1029.06 718.792 1030.94 718.83 1034.29 718.618Z" fill="white" fill-opacity="0.1"/>
<path d="M1132.62 2.52267C1143.66 4.38321 1154.76 5.91059 1165.71 8.14756C1211.25 17.4979 1254.9 31.6509 1293.88 57.5211C1320.73 75.352 1341.76 98.1933 1355.91 126.949C1362.36 140.068 1359.64 158.254 1349.74 168.799C1339.29 179.966 1322.23 183.891 1307.99 178.396C1293.29 172.723 1284.56 159.626 1284.35 143.474C1284.21 132.341 1285.1 120.94 1282.99 110.135C1277.89 84.1398 1261.68 64.933 1240.53 49.4775C1212.5 28.9856 1180.34 17.3983 1147.13 8.17785C1142.19 6.80624 1137.21 5.52984 1132.26 4.21015C1132.39 3.65632 1132.5 3.08949 1132.62 2.52267Z" fill="white" fill-opacity="0.1"/>
<path d="M1393.89 361.005C1373.34 367.928 1352.47 374.133 1332.29 382.016C1309.09 391.102 1287.66 403.33 1269.8 421.018C1249.39 441.25 1240.19 465.45 1241.96 493.795C1242.54 502.934 1242.5 511.886 1237.38 520.189C1227.11 536.787 1207 543.29 1189.3 535.472C1171.69 527.683 1162.85 508.321 1169.07 489.906C1175.55 470.768 1187.5 454.941 1201.81 440.835C1241.21 402.006 1290.72 382.501 1343.71 369.97C1360.22 366.076 1376.99 363.173 1393.64 359.819L1393.89 361.005Z" fill="white" fill-opacity="0.1"/>
<path d="M1393.78 1076.75C1373.21 1083.71 1352.39 1090.09 1332.14 1097.81C1311.94 1105.5 1293.21 1116.18 1276.86 1130.33C1252.76 1151.17 1239.3 1176.74 1241.94 1209.15C1242.69 1218.29 1242.53 1227.32 1237.54 1235.59C1227.24 1252.62 1206.69 1259.17 1188.9 1251.01C1180.22 1246.99 1173.41 1239.89 1169.85 1231.14C1166.29 1222.39 1166.25 1212.63 1169.73 1203.84C1178.15 1182.62 1191.7 1164.72 1208.88 1149.61C1253.73 1110.18 1308.45 1092.22 1366.03 1080.7C1375.25 1078.86 1384.59 1077.56 1393.87 1076.01L1393.78 1076.75Z" fill="white" fill-opacity="0.1"/>
<path d="M357.391 310.524C354.411 300.573 351.491 290.621 348.427 280.726C339.419 251.558 327.368 223.771 307.986 199.688C285.778 172.087 257.691 156.701 220.596 159.449C197.868 161.136 183.391 151.539 178.139 132.622C174.247 118.612 178.139 106.159 188.812 96.3201C200.224 85.8189 214.032 83.3829 228.464 88.7871C252.716 97.8735 272.282 113.606 288.785 132.96C319.988 169.517 336.962 212.773 348.48 258.369C352.354 273.707 354.728 289.41 357.726 304.956C358.069 306.726 358.096 308.556 358.268 310.356L357.391 310.524Z" fill="white" fill-opacity="0.1"/>
<path d="M671.528 355.351C662.493 353.88 653.41 352.638 644.432 350.895C597.558 341.808 552.622 327.599 512.392 301.439C485.186 283.751 463.159 261.463 449.43 231.907C442.57 217.148 443.852 203.185 453.776 190.464C463.396 178.137 482.884 173.745 497.726 179.712C512.027 185.458 522.409 201.956 520.458 217.438C515.827 254.19 531.197 282.306 559.27 304.71C589.18 328.581 624.716 340.856 661.225 350.856C664.787 351.829 668.371 352.712 671.942 353.638L671.528 355.351Z" fill="white" fill-opacity="0.1"/>
<path d="M311.394 713.349C300.043 711.424 288.622 709.814 277.351 707.517C235.324 698.949 194.901 686.008 158.194 663.569C127.813 645.007 102.84 621.464 88.0724 588.68C81.3755 573.804 83.6959 557.808 94.6768 546.519C105.09 535.802 121.768 531.959 135.259 537.165C150.524 543.058 159.669 556.445 159.4 573.237C159.158 588.135 158.273 602.941 163.882 617.371C174.044 643.497 193.382 661.362 216.92 675.533C244.276 692.001 274.286 702.013 305.102 709.996C307.326 710.571 309.505 711.294 311.707 711.96L311.394 713.349Z" fill="white" fill-opacity="0.1"/>
<path d="M1032.56 1429.41C1016.82 1426.38 1000.97 1423.76 985.352 1420.2C949.389 1411.98 914.87 1399.91 883.085 1381.12C853.083 1363.38 828.348 1340.58 812.167 1309.53C800.904 1287.92 806.39 1265.12 826.195 1255.09C839.403 1248.38 853.013 1248.83 865.28 1257.28C876.661 1265.12 882.354 1276.09 880.923 1290.31C877.255 1326.79 891.587 1355.69 920.189 1378.28C948.469 1400.61 981.645 1412.86 1015.97 1422.66C1021.2 1424.14 1026.45 1425.55 1031.69 1427.03C1032.1 1427.22 1032.49 1427.47 1032.83 1427.77C1032.74 1428.32 1032.65 1428.86 1032.56 1429.41Z" fill="white" fill-opacity="0.1"/>
<path d="M412.072 1427.36C426.262 1423.01 440.62 1419.11 454.613 1414.21C484.069 1403.89 511.931 1390.68 534.434 1368.54C556.625 1346.71 565.805 1320.34 562.547 1289.76C560.601 1271.46 576.112 1252.83 594.957 1251.1C617.17 1249.06 635.754 1262.78 636.948 1283.33C637.388 1290.69 635.988 1298.84 632.985 1305.57C620.216 1334.09 599.082 1355.76 573.079 1373.14C524.448 1405.61 469.486 1420.14 412.072 1427.36Z" fill="white" fill-opacity="0.1"/>
<path d="M1079.99 1025.94C1072.64 1004.74 1066.63 984.832 1058.88 965.625C1048.75 940.581 1035.12 917.515 1014.35 899.152C994.251 881.386 970.933 873.234 943.93 875.276C934.371 875.999 925.028 875.709 916.53 870.261C900.156 859.786 894.018 838.996 902.626 822.415C911.78 804.783 933.169 796.238 951.582 805.052C965.905 811.91 979.924 820.381 992.028 830.502C1024.91 858.003 1044.06 894.587 1058.23 933.913C1068.1 961.13 1075.11 989.271 1079.13 1017.89C1079.44 1020.12 1079.62 1022.38 1079.99 1025.94Z" fill="white" fill-opacity="0.1"/>
<path d="M726.208 50.3392C730.426 63.826 733.953 76.3003 738.211 88.5019C749.13 119.841 763.378 149.454 788.338 172.62C809.627 192.372 834.979 201.376 864.457 197.845C884.71 195.422 903.973 210.951 905.994 231.253C907.971 251.1 892.001 269.58 871.796 271.328C854.528 272.825 841.288 263.821 828.207 255.189C794.802 233.178 773.478 201.536 757.236 166.242C741.385 131.87 731.972 95.6109 725.927 58.4477C725.692 56.8363 725.561 55.212 725.535 53.5844C725.478 52.931 725.781 52.269 726.208 50.3392Z" fill="white" fill-opacity="0.1"/>
<path d="M411.243 718.238L441.056 723.43C472.924 728.985 503.943 737.881 533.077 751.45C576.226 771.557 613.726 798.578 633.94 843.34C640.355 857.545 638.783 871.23 628.581 883.268C618.287 895.383 604.805 899.199 589.514 894.915C574.222 890.632 565.245 880.105 562.621 864.658C562.142 861.443 562.122 858.177 562.563 854.957C565.936 826.997 557.025 803.013 538.008 782.495C516.874 759.697 489.862 745.851 460.935 735.385C444.578 729.466 427.811 724.641 411.23 719.324L411.243 718.238Z" fill="white" fill-opacity="0.1"/>
<path d="M1441.68 763.544C1439.18 776.719 1437.03 789.972 1434.11 803.057C1423.61 850.107 1407.25 894.729 1377.33 933.667C1362.38 953.137 1344.09 968.904 1322.23 980.141C1305.67 988.648 1288.63 991.326 1272.59 977.658C1261.41 968.139 1257.7 956.287 1260.67 942.554C1263.79 928.098 1273.34 918.852 1287.65 914.715C1291.87 913.495 1296.63 912.889 1300.95 913.417C1337.79 918.077 1366 903.033 1388.73 876.172C1411.78 848.951 1424.39 816.595 1434.24 783.045C1436.18 776.425 1438.05 769.783 1439.96 763.142L1441.68 763.544Z" fill="white" fill-opacity="0.1"/>
<path d="M717.992 47.1623C710.873 105.311 695.74 160.733 661.635 209.566C644.159 234.575 622.131 254.721 593.728 267.398C572.823 276.731 550.786 269.488 541.566 250.58C529.093 225 549.725 194.764 578.463 197.766C619.899 202.119 649.791 184.228 673.065 152.702C694.582 123.548 706.254 90.1148 715.623 55.7554C716.403 52.8867 717.208 50.0267 717.992 47.1623Z" fill="white" fill-opacity="0.1"/>
<path d="M3.28889 762.913C8.64287 779.588 13.3056 795.927 19.1395 811.854C29.3147 839.688 43.0123 865.628 64.8376 886.643C86.4121 907.412 111.989 917.052 142.365 913.439C160.034 911.341 176.8 922.339 182.317 939.335C187.662 955.803 180.054 973.335 164.683 982.283C152.54 989.358 140.533 988.068 128.579 983.17C111.315 976.105 96.6137 965.188 83.3212 952.329C54.7637 924.697 37.2972 890.554 24.0928 854.075C14.053 826.188 7.09591 797.321 3.34167 767.971C3.11712 766.448 3.28889 764.903 3.28889 762.913Z" fill="white" fill-opacity="0.1"/>
<path d="M672.202 1071.99C651.865 1067.73 631.33 1064.2 611.23 1059.05C573.625 1049.4 537.882 1035.25 506.031 1012.8C481.735 995.658 461.926 974.72 449.497 947.669C438.63 924.01 450.474 898.84 474.646 893.782C499.831 888.517 523.33 908.45 520.371 933.347C516.038 969.796 531.044 997.817 558.795 1020.12C586.279 1042.22 618.838 1054.37 652.464 1064.09C659.24 1066.04 666.06 1067.86 672.858 1069.75C672.642 1070.49 672.422 1071.23 672.202 1071.99Z" fill="white" fill-opacity="0.1"/>
<path d="M47.7681 354.368C58.1634 351.482 66.7844 349.267 75.2953 346.692C108.599 336.624 140.538 323.812 167.132 300.828C191.533 279.739 204.557 253.739 201.858 221.175C201.118 212.223 201.699 203.521 206.503 195.474C216.189 179.2 236.712 172.541 254.055 180.183C271.962 188.062 281.128 208.156 274.462 226.307C264.741 252.778 246.671 273.313 224.608 290.474C183.251 322.644 134.88 339.09 84.0131 349.543C73.3536 351.733 62.5443 353.208 51.7923 354.969C51.1583 355.069 50.4539 354.783 47.7681 354.368Z" fill="white" fill-opacity="0.1"/>
<path d="M1086.65 310.355C1090.08 272.962 1099.24 237.175 1113.42 202.655C1124.87 174.804 1139.57 148.808 1160.48 126.672C1175.28 111.013 1192.31 97.9546 1212.53 89.7076C1234.06 80.9285 1255.37 89.3529 1264.15 109.356C1274.46 132.842 1255.18 162.204 1229.47 159.712C1180.91 155.008 1148.54 177.642 1124.24 215.839C1106.95 243.029 1096.73 272.988 1088.58 303.765C1088.03 305.98 1087.3 308.161 1086.65 310.355Z" fill="white" fill-opacity="0.1"/>
<path d="M50.0349 1075.98C61.3857 1077.97 72.7981 1079.67 84.0741 1081.99C131.771 1091.8 177.35 1106.92 217.215 1135.46C241.717 1153.01 261.962 1174.32 273.365 1202.46C279.529 1217.61 277.143 1231.96 265.37 1243.79C254.534 1254.67 237.803 1257.36 223.885 1251.42C209.47 1245.28 201.166 1231.92 201.756 1214.9C202.262 1200.19 202.478 1185.54 196.913 1171.52C187.226 1147.03 169.086 1129.73 147.159 1115.86C120.57 1099.04 91.1628 1088.81 60.8309 1080.81C57.1897 1079.86 53.5528 1078.88 49.916 1077.91L50.0349 1075.98Z" fill="white" fill-opacity="0.1"/>
<path d="M1393.72 356.086C1375.7 352.443 1357.51 349.44 1339.69 345.031C1296.4 334.327 1255.22 318.664 1219.8 291.093C1198.75 274.712 1181.49 255.107 1170.76 230.548C1158.81 203.25 1177.88 176.029 1207.99 177.375C1225.92 178.193 1241.36 193.532 1242.1 211.557C1242.34 217.364 1241.99 223.192 1241.81 229.007C1240.88 258.529 1254.45 281.548 1276.06 300.4C1305.5 326.084 1341.36 339.294 1378.58 349.557C1383.79 351 1388.99 352.427 1394.2 353.841C1394.05 354.598 1393.88 355.334 1393.72 356.086Z" fill="white" fill-opacity="0.1"/>
<path d="M1132.21 1427.75C1144.82 1423.96 1157.49 1420.34 1170.03 1416.33C1196.32 1407.93 1221.27 1396.81 1243.23 1379.99C1263.04 1364.82 1278.22 1346.24 1282.97 1321.51C1285.09 1310.48 1284.22 1298.85 1284.36 1287.48C1284.52 1274.63 1289.7 1264.46 1300.48 1257.29C1314.71 1247.82 1332.97 1248.2 1346.02 1259.4C1358.09 1269.76 1363.6 1285.36 1356.48 1302.5C1345.22 1329.56 1325.97 1350.49 1302.49 1367.75C1261.77 1397.68 1214.95 1413.43 1165.73 1423.26C1154.72 1425.47 1143.56 1427.12 1132.48 1429.03L1132.21 1427.75Z" fill="white" fill-opacity="0.1"/>
<path d="M1031.95 3.14514C1010.1 10.8339 987.54 17.9386 965.667 26.7004C943.37 35.6267 923.139 48.1182 906.61 65.8323C887.131 86.7093 877.392 110.918 881.253 139.289C883.248 153.931 873.79 170.494 861.048 177.162C849.134 183.401 830.813 181.277 819.48 172.298C808.376 163.506 803.277 146.58 808.085 132.258C813.906 114.925 824.495 100.313 836.889 87.0035C863.628 58.2993 897.249 40.1179 933.816 26.6096C964.773 15.1781 996.734 7.6364 1029.47 3.16678C1030.29 3.07949 1031.12 3.07224 1031.95 3.14514V3.14514Z" fill="white" fill-opacity="0.1"/>
<path d="M672.572 1077.04C655.4 1082.43 639.233 1086.99 623.453 1092.56C595.824 1102.33 569.983 1115.33 548.898 1136.04C526.988 1157.55 516.545 1183.08 520.424 1213.81C522.33 1228.91 513.771 1243.66 499.778 1250.68C486.569 1257.31 469.028 1254.96 457.95 1245.05C446.106 1234.48 441.932 1218.55 447.63 1204.32C460.257 1172.79 482.972 1149.48 511.081 1131.01C559.016 1099.5 612.991 1084.62 669.366 1076.68C670.001 1076.6 670.727 1076.83 672.572 1077.04Z" fill="white" fill-opacity="0.1"/>
<path d="M1131.5 717.913C1146.03 720.509 1159.54 722.452 1172.83 725.36C1212.84 734.117 1251.39 746.769 1286.34 768.438C1316.21 786.948 1340.77 810.321 1355.5 842.466C1365.57 864.455 1355.06 888.352 1332.63 895.002C1327.11 896.685 1321.28 897.083 1315.58 896.165C1309.88 895.247 1304.48 893.039 1299.8 889.714C1295.12 886.39 1291.29 882.041 1288.62 877.012C1285.95 871.982 1284.51 866.411 1284.4 860.738C1284.1 849.129 1285.12 837.265 1283 825.976C1278.03 799.608 1261.46 780.362 1240.03 764.842C1209.89 743.022 1175.26 731.266 1139.61 721.812C1137.33 721.206 1135.06 720.514 1132.8 719.843C1132.63 719.782 1132.54 719.479 1131.5 717.913Z" fill="white" fill-opacity="0.1"/>
<path d="M1086.3 405.528C1091.08 420.59 1095.36 435.816 1100.74 450.683C1111.55 480.538 1125.74 508.559 1149.66 530.73C1170.48 550.032 1195.11 558.798 1223.73 555.873C1240.49 554.142 1255.27 561.567 1262.65 575.776C1269.73 589.423 1267.22 607.146 1256.67 618.019C1245.86 629.157 1228.37 632.657 1213.32 626.24C1187.52 615.242 1166.65 598.068 1149.62 576.222C1118.04 535.684 1101.78 488.785 1091.16 439.602C1088.76 428.482 1087.15 417.202 1085.18 405.991L1086.3 405.528Z" fill="white" fill-opacity="0.1"/>
<path d="M1032.23 714.159C1011.77 709.641 991.217 705.466 970.858 700.529C931.645 691.01 895.004 675.728 862.506 651.783C841.372 636.206 824.2 617.168 812.193 593.894C804.563 579.109 803.7 564.537 813.382 550.193C821.999 537.433 840.962 531.635 856.434 537.07C872.131 542.578 883.345 558.57 881.377 573.874C876.283 613.525 893.802 642.965 924.614 666.036C946.474 682.395 971.355 693.225 997.504 701.278C1009.21 704.882 1020.94 708.434 1032.66 712.013L1032.23 714.159Z" fill="white" fill-opacity="0.1"/>
<path d="M1131.64 712.88C1151.95 706.139 1171.71 700.332 1190.83 693.042C1218.02 682.657 1243.01 668.543 1262.35 646.351C1278.3 628.039 1286.29 607.011 1284.8 582.694C1284.45 576.905 1284.06 570.942 1285.03 565.283C1287.53 550.645 1296.47 540.689 1310.9 536.622C1325.43 532.524 1338.88 535.635 1349.3 546.777C1360.08 558.299 1362.25 572.085 1356.53 586.48C1348.65 606.345 1335.7 622.916 1319.99 637.498C1288.38 666.86 1250.34 684.924 1209.17 696.585C1185.55 703.27 1161.17 707.35 1137.12 712.551C1135.61 712.88 1133.99 712.755 1131.64 712.88Z" fill="white" fill-opacity="0.1"/>
<path d="M1442.05 47.9775C1438.03 67.0156 1434.89 86.3263 1429.8 105.092C1418.84 145.548 1403.71 184.273 1377.32 217.923C1360.22 239.704 1339.48 256.925 1313.75 268.114C1298.72 274.652 1281.23 271.61 1270.39 260.577C1264.88 255.038 1261.28 247.941 1260.09 240.286C1258.9 232.631 1260.18 224.802 1263.76 217.901C1270.91 203.835 1286.8 195.942 1303.43 197.859C1330.76 201.009 1354.33 192.446 1374.68 174.853C1399.41 153.492 1413.93 125.709 1424.77 95.854C1429.79 82.0643 1433.69 67.881 1438.1 53.8836C1438.76 51.7721 1439.45 49.665 1440.12 47.5535L1442.05 47.9775Z" fill="white" fill-opacity="0.1"/>
<path d="M313.234 3.08854C295.917 8.43651 280.005 12.8239 264.476 18.2584C239.573 26.977 215.982 38.3003 195.693 55.3827C171.125 76.0693 156.833 101.377 159.149 134.131C159.835 143.944 159.919 153.602 154.442 162.589C145.495 177.265 127.188 184.504 110.804 179.411C93.9013 174.159 82.9424 158.024 84.8621 140.639C86.9579 121.665 98.0709 106.928 109.822 92.9396C135.069 62.8681 168.21 43.7651 204.516 29.4346C237.913 16.2551 272.608 7.96489 308.197 3.08854C309.302 2.95441 310.464 3.08854 313.234 3.08854Z" fill="white" fill-opacity="0.1"/>
<path d="M1.83154 1380.92C6.4018 1360.53 10.1971 1339.92 15.7096 1319.79C26.4528 1280.62 42.1273 1243.51 67.9726 1211.34C84.9723 1190.2 105.459 1173.12 131.023 1162.66C149.819 1154.97 170.61 1162.44 179.829 1179.75C188.732 1196.49 182.991 1217.61 166.77 1227.78C158.845 1232.76 150.087 1233.9 140.854 1233.3C126.814 1232.39 112.958 1233 99.5329 1238.02C75.2375 1247.11 58.0879 1264.23 44.179 1285.03C27.0692 1310.61 16.577 1338.98 8.33029 1368.26C7.08426 1372.7 5.78983 1377.11 4.51738 1381.54L1.83154 1380.92Z" fill="white" fill-opacity="0.1"/>
<path d="M363.776 1023.25C365.326 1013.9 366.537 1004.48 368.474 995.204C378.465 947.375 393.844 901.619 422.983 861.31C440.471 837.123 462.213 817.803 490.022 805.666C504.675 799.276 518.804 800.293 531.308 810.634C543.293 820.542 547.322 833.427 543.571 848.346C539.401 864.905 524.228 875.238 506.079 875.657C492.43 875.978 478.341 875.818 465.343 879.167C437.165 886.418 418.509 906.356 403.434 929.704C385.98 956.742 375.563 986.663 367.206 1017.37C366.66 1019.37 366.079 1021.36 365.511 1023.36L363.776 1023.25Z" fill="white" fill-opacity="0.1"/>
<path d="M411.671 1.23706C437.367 7.29463 463.344 12.3916 488.692 19.6261C525.835 30.2269 560.332 46.5477 590.224 71.2063C609.368 86.9993 624.501 105.895 634.438 128.55C638.102 136.855 638.606 146.178 635.858 154.819C633.11 163.459 627.293 170.84 619.468 175.617C604.229 184.963 584.099 182.021 571.687 168.262C565.136 161.001 561.587 151.906 562.727 142.487C567.571 102.247 549.813 72.6904 518.443 49.3948C492.329 30.0062 462.221 18.8862 431.202 9.83881C424.448 7.8701 417.624 6.12207 410.834 4.27451C411.107 3.2577 411.394 2.24954 411.671 1.23706Z" fill="white" fill-opacity="0.1"/>
<path d="M1079.14 308.57C1073.29 291.128 1067.97 273.492 1061.47 256.289C1052.1 231.47 1039.64 208.174 1020.52 189.128C1000.96 169.657 977.929 157.84 948.988 159.272C939.94 159.705 930.02 159.878 921.818 156.793C902.286 149.437 894.33 127.838 902.097 108.008C908.508 91.6483 929.259 82.047 947.698 87.9791C968.361 94.6294 985.445 107.147 1000.53 122.295C1034.11 155.984 1053.37 197.374 1065.85 242.071C1071.35 261.771 1074.78 282.033 1079.08 302.054C1079.55 304.269 1079.61 306.571 1079.85 308.834L1079.14 308.57Z" fill="white" fill-opacity="0.1"/>
<path d="M718.12 762.837C715.615 793.679 708.434 823.469 698.307 852.546C687.828 882.691 674.033 911.3 653.344 936.097C636.054 956.827 615.919 974.351 590.149 984.497C582.4 987.611 573.825 988.14 565.741 986.002C557.656 983.864 550.509 979.178 545.397 972.663C535.27 959.938 534.993 942.077 545.397 928.434C554.146 916.946 566.214 911.711 580.832 913.381C614.611 917.241 641.443 904.498 663.365 880.212C689.039 851.767 702.296 817.234 712.81 781.421C714.611 775.238 716.35 769.029 718.12 762.837Z" fill="white" fill-opacity="0.1"/>
<path d="M364.436 1123.65C371.635 1144.05 377.856 1164.1 385.777 1183.48C395.842 1208.07 409.786 1230.3 430.04 1248.52C451.46 1267.81 476.645 1274.1 504.762 1271.75C526.574 1269.93 542.931 1285.79 544.829 1304.67C547.854 1334.78 516.553 1352 492.984 1342.59C465.867 1331.77 444.552 1313.6 427.205 1290.92C390.594 1243.06 374.145 1187.51 364.502 1129.49C364.194 1127.72 364.436 1125.85 364.436 1123.65Z" fill="white" fill-opacity="0.1"/>
<path d="M1080.2 1122.83C1078.47 1133.06 1077.14 1143.38 1074.97 1153.52C1067.23 1189.64 1056.54 1224.82 1038.55 1257.44C1018.87 1293.13 993.304 1323.09 954.923 1340.98C936.92 1349.38 909.52 1344.88 900.455 1319.22C894.039 1301.05 907.407 1276.14 926.705 1272.84C933.798 1271.63 941.235 1271.72 948.469 1272.08C974.089 1273.35 995.778 1264.41 1014.39 1247.77C1038.33 1226.36 1052.91 1199.07 1063.61 1169.59C1068.14 1157.11 1071.77 1144.31 1075.81 1131.65C1076.77 1128.63 1077.71 1125.56 1078.66 1122.52L1080.2 1122.83Z" fill="white" fill-opacity="0.1"/>
<path d="M48.6304 1070.3C65.049 1065.18 81.6261 1060.49 97.8553 1054.84C127.139 1044.64 154.38 1030.44 176.197 1008.42C192.461 992.013 202.126 971.889 202.011 948.221C201.981 941.938 201.65 935.651 201.69 929.369C201.791 913.463 209.664 902.067 224.176 895.948C238.688 889.83 252.795 892.098 264.498 902.711C276.02 913.156 279.908 927.058 274.427 941.008C269.39 953.811 262.05 966.216 253.513 977.12C223.005 1016.06 180.56 1037.78 134.03 1051.97C108.779 1059.67 82.5418 1064.27 56.7274 1070.15C54.0856 1070.74 51.325 1070.64 48.6172 1070.87L48.6304 1070.3Z" fill="white" fill-opacity="0.1"/>
<path d="M363.604 308.192C365.611 296.622 367.126 285.632 369.473 274.81C376.077 244.215 384.883 214.235 398.831 186.002C410.024 163.338 423.8 142.357 441.764 123.999C455.797 109.66 471.608 98.2021 489.871 89.9638C513.77 79.177 539.919 92.4257 544.428 117.366C548.602 140.488 527.824 162.871 504.106 159.989C469.186 155.74 441.663 168.838 419.041 193.803C393.288 222.231 380.524 257.01 369.75 292.698C368.275 297.6 366.923 302.537 365.483 307.448C365.444 307.582 365.07 307.621 363.604 308.192Z" fill="white" fill-opacity="0.1"/>
<path d="M412.388 712.261C431.087 705.991 450.051 700.384 468.42 693.301C497.836 681.951 524.778 666.647 544.459 641.379C559.231 622.405 565.47 600.953 562.568 577.142C560.64 561.319 568.257 546.526 582.355 539.291C596.634 531.966 613.863 534.246 625.971 545.063C636.93 554.851 640.751 572.85 634.543 586.982C623.395 612.35 605.924 632.846 583.848 649.721C551.706 674.275 515.052 689.636 476.006 699.691C455.075 705.087 433.822 709.262 412.71 713.97C412.604 713.412 412.494 712.858 412.388 712.261Z" fill="white" fill-opacity="0.1"/>
<path d="M1440.89 1385.56C1435.46 1368.58 1430.73 1353.01 1425.48 1337.61C1418.37 1316.75 1408.95 1296.75 1395.72 1279.08C1373.04 1248.8 1343.97 1229.45 1303.43 1233.26C1287.12 1234.78 1274.01 1229.74 1265.22 1215.7C1261.14 1209.21 1259.23 1201.62 1259.76 1194.01C1260.28 1186.4 1263.21 1179.14 1268.14 1173.24C1278.11 1161.3 1296.16 1156.32 1310.73 1161.97C1337.74 1172.44 1358.72 1190.53 1376.61 1212.59C1393.65 1233.61 1405.4 1257.4 1415.32 1282.21C1428.04 1314.03 1436.24 1346.97 1440.85 1380.81C1441.02 1381.89 1440.89 1383 1440.89 1385.56Z" fill="white" fill-opacity="0.1"/>
<path d="M48.7449 360.096C61.4606 362.303 74.238 364.185 86.87 366.773C124.405 374.457 160.646 386.144 193.861 405.074C228.808 424.977 258.866 450.146 274.039 488.551C280.974 506.11 273.383 525.33 256.969 534.213C232.312 547.548 202.183 530.431 201.633 502.826C201.435 492.844 201.866 482.775 200.677 472.901C197.78 448.866 185.465 429.633 166.902 414.255C137.086 389.549 101.615 376.244 64.6307 366.158C59.2195 364.683 53.7819 363.32 48.3398 361.905L48.7449 360.096Z" fill="white" fill-opacity="0.1"/>
<path d="M141.105 1072.95C153.297 1070.86 165.027 1068.88 176.743 1066.85C214.141 1060.36 250.774 1051.32 285.694 1036.24C302.222 1029.1 322.824 1034 333.518 1046.99C345.609 1061.67 346.459 1082.65 335.579 1097.66C325.113 1112.11 305.476 1118.51 288.027 1111.32C247.08 1094.45 204.31 1084.68 160.751 1077.58C154.684 1076.58 148.612 1075.64 142.55 1074.62C142.237 1074.54 141.995 1073.98 141.105 1072.95Z" fill="white" fill-opacity="0.1"/>
<path d="M1302.3 1074.38C1287.45 1076.91 1272.55 1079.21 1257.75 1082.01C1223.97 1088.39 1190.85 1097 1159.08 1110.24C1137.74 1119.13 1115.55 1111.82 1105.31 1092.93C1097.43 1078.4 1099.58 1057.19 1111.06 1045.95C1123.65 1033.62 1140.37 1028.92 1159.17 1036.97C1190.97 1050.58 1224.38 1059.13 1258.44 1065.26C1273.06 1067.9 1287.71 1070.36 1302.34 1072.9L1302.3 1074.38Z" fill="white" fill-opacity="0.1"/>
<path d="M361.42 495.146C363.313 505.807 365.079 515.564 366.774 525.33C373.581 564.462 382.941 602.867 399.047 639.498C406.51 656.472 400.712 676.12 386.001 687.223C371.811 697.927 349.897 697.391 334.98 685.972C320.939 675.224 315.607 655.745 322.85 639.299C341.659 596.576 351.112 551.464 358.404 505.82C358.844 503.06 359.328 500.308 359.883 497.569C359.998 497.015 360.513 496.544 361.42 495.146Z" fill="white" fill-opacity="0.1"/>
<path d="M860.886 357.925C883.781 353.659 904.985 350.907 925.503 345.585C952.933 338.471 980.064 330.047 1006.87 320.9C1027.51 313.852 1048.22 319.221 1059.19 336.658C1069.98 353.793 1066.24 376.227 1049.66 389.55C1037.99 398.913 1024.15 401.665 1010.22 395.828C963.76 376.422 914.905 366.579 865.359 359.266C864.47 359.136 863.633 358.764 860.886 357.925Z" fill="white" fill-opacity="0.1"/>
<path d="M141.37 357.05C150.114 355.622 158.859 354.229 167.594 352.766C208.563 345.908 248.745 336.389 287.213 320.401C305.877 312.643 326.642 319.752 337.028 336.077C347.573 352.654 344.685 375.391 329.477 388.263C317.55 398.354 303.249 402.079 288.38 395.844C247.301 378.615 204.205 369.018 160.426 361.766C154.077 360.71 147.702 359.793 141.335 358.811C141.348 358.222 141.361 357.625 141.37 357.05Z" fill="white" fill-opacity="0.1"/>
<path d="M1225.33 715.024C1239.02 712.566 1252.72 710.161 1266.39 707.668C1300.93 701.317 1334.6 692.399 1367.29 679.25C1392.82 668.974 1413.29 677.32 1423.88 703.047C1431.36 721.285 1422.08 745.195 1400.86 753.381C1388.17 758.275 1376.61 755.731 1363.92 751.27C1337.66 742.045 1310.75 734.452 1283.78 727.472C1267.11 723.146 1249.82 721.177 1232.8 718.135C1230.31 717.702 1227.82 717.183 1225.32 716.703L1225.33 715.024Z" fill="white" fill-opacity="0.1"/>
<path d="M579.779 358.865C570.067 360.448 560.34 361.932 550.65 363.624C511.38 370.482 472.717 379.439 435.931 395.124C418.847 402.406 398.876 397.512 388.163 384.142C376.183 369.197 375.214 348.917 385.799 334.73C397.247 319.404 416.325 312.749 433.611 320.018C479.146 339.113 527.054 348.796 575.579 356.364C576.944 356.576 578.287 356.931 579.639 357.229C579.687 357.753 579.74 358.311 579.779 358.865Z" fill="white" fill-opacity="0.1"/>
<path d="M1302.12 358.491C1283.07 361.983 1263.97 365.189 1244.99 369.036C1214.8 375.154 1185.36 383.561 1156.89 395.551C1132.69 405.74 1102.12 388.766 1100.6 360.136C1099.07 331.219 1128.78 308.464 1157.89 320.787C1199.97 338.609 1244.35 348.046 1289.38 354.969C1293.72 355.64 1298.05 356.38 1302.39 357.089L1302.12 358.491Z" fill="white" fill-opacity="0.1"/>
<path d="M862.99 1072.96C874.535 1070.95 886.081 1068.95 897.628 1066.95C935.718 1060.32 973.099 1051.3 1008.75 1036.1C1025.78 1028.84 1045.23 1034.48 1057.04 1049.34C1067.41 1062.38 1067.74 1083.49 1057.77 1097.07C1046.85 1111.96 1027.36 1118.6 1010.56 1111.62C963.915 1092.21 914.901 1082.24 865.143 1074.94C864.471 1074.78 863.817 1074.55 863.193 1074.25L862.99 1072.96Z" fill="white" fill-opacity="0.1"/>
<path d="M361.354 1210.81C363.317 1221.69 365.18 1231.43 366.813 1241.21C373.347 1280.34 383.236 1318.53 399.043 1355.15C406.343 1372.07 400.764 1391.62 386.446 1402.21C379.02 1407.74 369.935 1410.69 360.617 1410.61C351.299 1410.52 342.274 1407.39 334.958 1401.72C320.961 1390.99 315.629 1371.52 322.841 1355.1C341.576 1312.42 351.126 1267.42 358.382 1221.81C358.822 1219.05 359.302 1216.3 359.843 1213.56C359.94 1213 360.398 1212.49 361.354 1210.81Z" fill="white" fill-opacity="0.1"/>
<path d="M721.193 577.429C718.314 561.208 715.791 544.917 712.48 528.782C705.691 495.686 696.079 463.447 683.156 432.056C673.73 409.154 689.633 380.926 717.834 378.884C749.249 376.612 771.193 403.655 759.86 432.61C743.283 474.978 732.086 518.528 724.971 563.233C724.209 567.992 723.404 572.791 722.62 577.572L721.193 577.429Z" fill="white" fill-opacity="0.1"/>
<path d="M1083.35 1211.66C1086.41 1228.54 1089.2 1245.46 1092.58 1262.27C1098.87 1293.6 1107.62 1324.22 1120.32 1353.74C1129.37 1374.8 1120.87 1397.3 1101.08 1406.52C1080.79 1415.99 1057.49 1408.82 1046.54 1389.43C1039.6 1377.11 1041.21 1364.7 1045.66 1351.71C1054.26 1326.66 1062.72 1301.49 1069.53 1275.94C1075.14 1254.89 1078.28 1233.22 1082.52 1211.82L1083.35 1211.66Z" fill="white" fill-opacity="0.1"/>
<path d="M579.634 1074.36C562.423 1077.39 545.15 1080.12 528.018 1083.54C495.916 1089.94 464.457 1098.48 434.297 1111.35C417.971 1118.31 398.144 1112.57 387.115 1098.42C375.637 1083.71 375.667 1063.31 387.177 1048.37C397.585 1034.88 418.504 1028.96 434.676 1035.87C478.326 1054.5 524.293 1064.24 571.07 1071.07C574.011 1071.5 576.921 1072.17 579.845 1072.73L579.634 1074.36Z" fill="white" fill-opacity="0.1"/>
<path d="M360.033 934.489C358.122 923.395 356.321 912.279 354.278 901.207C347.436 864.035 338.428 827.482 323.057 792.642C315.286 775.019 320.939 755.696 336.569 743.944C349.976 733.867 371.555 734.105 385.764 744.489C400.562 755.306 406.51 774.21 399.162 791.219C379.956 835.742 369.983 882.554 362.675 930.067C362.446 931.564 361.869 933.009 361.455 934.476L360.033 934.489Z" fill="white" fill-opacity="0.1"/>
<path d="M218.672 716.704L184.083 722.524C149.22 728.4 115.049 736.928 82.1898 749.856C71.4555 754.079 61.2803 758.25 49.41 755.343C33.9997 751.57 23.0891 742.233 19.5448 727.534C15.6217 711.244 18.1314 695.308 33.1014 684.102C45.9889 674.453 59.7612 672.666 75.1099 678.935C107.128 692.015 140.41 701.11 174.493 707.315C187.759 709.729 201.074 711.854 214.362 714.151C215.836 714.483 217.293 714.889 218.725 715.367L218.672 716.704Z" fill="white" fill-opacity="0.1"/>
<path d="M360.099 218.903C359.148 213.538 358.127 208.185 357.255 202.807C350.211 159.223 340.462 116.379 322.56 75.5981C315.515 59.5888 321.098 40.6113 334.968 29.5346C348.41 18.804 368.848 17.8089 383.572 27.1721C398.542 36.6912 405.89 54.9115 400.541 71.6866C396.512 84.3253 390.251 96.3236 386.746 109.075C379.543 135.308 373.326 161.81 367.109 188.295C364.753 198.346 363.512 208.631 361.764 218.838L360.099 218.903Z" fill="white" fill-opacity="0.1"/>
<path d="M1081.99 934.584C1080.86 928.064 1079.71 921.547 1078.6 915.023C1071.49 873.113 1062.09 831.848 1045.05 792.526C1037.16 774.314 1042.3 756.236 1057.38 744.904C1071.84 734.053 1092.85 733.655 1107.16 743.974C1122.13 754.791 1128.56 774.219 1121.08 791.357C1102.11 834.786 1092.35 880.468 1085.06 926.835C1084.65 929.431 1084.03 932.027 1083.5 934.623L1081.99 934.584Z" fill="white" fill-opacity="0.1"/>
<path d="M1083.7 497.068C1085.74 508.95 1087.66 520.866 1089.84 532.704C1096.45 568.491 1105.39 603.625 1120.05 637.184C1128 655.409 1123.28 675.1 1108.6 686.458C1094.04 697.708 1072.13 697.617 1057.09 686.237C1043.24 675.766 1038.15 657.741 1044.39 640.373C1049.49 626.12 1056.18 612.274 1059.8 597.684C1067.67 566.098 1074.02 534.136 1080.99 502.33C1081.37 500.599 1081.67 498.846 1082.01 497.103L1083.7 497.068Z" fill="white" fill-opacity="0.1"/>
<path d="M505.419 714.733C512.798 713.435 520.155 711.981 527.557 710.813C568.605 704.348 608.659 694.457 647.101 678.552C665.488 670.941 684.447 676.341 696.035 691.459C707.144 705.953 706.91 726.19 695.467 740.849C684.227 755.24 664.713 760.58 646.898 752.938C614.568 739.067 580.564 730.976 546.309 723.702C535.244 721.353 523.902 720.267 512.701 718.51C510.213 718.121 507.796 717.316 505.344 716.701C505.37 716.039 505.392 715.386 505.419 714.733Z" fill="white" fill-opacity="0.1"/>
<path d="M940.856 716.453C925.287 719.114 909.679 721.568 894.158 724.484C862.708 730.39 831.826 738.464 802.348 750.878C787.488 757.134 773.332 758.921 758.952 750.276C740.874 739.407 734.477 716.57 744.093 696.913C752.749 679.212 775.627 670.952 795.03 677.776C817.745 685.763 840.381 694.313 863.655 700.314C886.691 706.251 910.497 709.319 933.961 713.641C936.387 714.074 938.804 714.506 941.243 714.965L940.856 716.453Z" fill="white" fill-opacity="0.1"/>
<path d="M721.343 1293.23C718.455 1277.22 715.795 1261.21 712.621 1245.25C706.144 1212.72 697.21 1180.91 684.054 1150.29C674.751 1128.65 684.64 1105.84 706.439 1097.07C726.97 1088.79 751.86 1098.83 760.256 1119.44C762.298 1124.32 763.314 1129.55 763.244 1134.83C763.174 1140.1 762.018 1145.31 759.847 1150.13C740.914 1193.06 731.536 1238.4 724.156 1284.27C723.901 1285.88 723.685 1287.49 723.386 1289.09C723.135 1290.45 722.792 1291.78 722.483 1293.13L721.343 1293.23Z" fill="white" fill-opacity="0.1"/>
<path d="M722.444 138.196C725.306 153.946 728.075 169.717 731.051 185.449C737.255 218.264 746.585 250.162 759.671 281.008C766.883 297.986 762.259 316.297 748.725 327.305C733.971 339.299 713.118 340.285 698.003 329.728C682.443 318.846 676.129 299.007 683.817 281.202C702.837 237.12 712.96 190.862 719.921 143.765C720.185 141.96 720.709 140.186 721.11 138.399L722.444 138.196Z" fill="white" fill-opacity="0.1"/>
<path d="M1081.97 218.755C1080.81 212.006 1079.65 205.26 1078.51 198.506C1071.54 156.864 1061.99 115.933 1045.05 76.9218C1037.57 59.6836 1042.75 40.1437 1056.72 29.5559C1071.31 18.5095 1091.94 17.8042 1106.57 27.8468C1121.54 38.1057 1128.73 57.451 1121.48 74.2521C1102.27 118.819 1092.15 165.583 1084.64 213.079C1084.33 214.995 1083.78 216.873 1083.35 218.768L1081.97 218.755Z" fill="white" fill-opacity="0.1"/>
<path d="M722.593 853.914C724.271 863.705 725.992 873.493 727.617 883.293C734.032 922.132 744.659 960.184 759.318 996.799C767.952 1018.35 760.278 1038.58 740.579 1048.51C725.213 1056.26 705.034 1053.2 692.433 1041.2C680.638 1029.97 678.951 1011.15 684.68 995.246C694.137 968.99 702.335 942.225 709.49 915.268C714.373 896.871 716.561 877.785 719.996 859.019C720.317 857.289 720.947 855.597 721.431 853.888L722.593 853.914Z" fill="white" fill-opacity="0.1"/>
<path d="M355.573 1185.11C354.137 1195.49 352.9 1205.52 351.355 1215.49C344.178 1261.88 335.042 1307.83 315.691 1351.07C310.848 1361.82 304.934 1372.49 297.502 1381.63C286.97 1394.56 265.968 1394.1 253.693 1382.19C241.73 1370.58 241.488 1350.77 253.79 1339.54C261.926 1332.12 271.336 1326.03 279.437 1318.57C311.389 1289.13 331.013 1252.22 345.041 1212.06C348.123 1203.27 350.998 1194.42 353.992 1185.6C354.027 1185.48 354.397 1185.46 355.573 1185.11Z" fill="white" fill-opacity="0.1"/>
<path d="M1438.24 827.789C1436.75 838.935 1435.6 850.132 1433.72 861.218C1427.6 897.515 1421.49 933.909 1408.15 968.458C1401.39 985.986 1392.92 1002.99 1383.91 1019.51C1377.72 1030.89 1366.24 1034.85 1353.44 1032.63C1341.11 1030.5 1332.16 1023.72 1328.83 1011.28C1325.33 998.274 1328.41 986.614 1339.58 978.929C1390.5 943.826 1416 892.7 1433.83 836.576C1434.8 833.548 1435.8 830.519 1436.79 827.49L1438.24 827.789Z" fill="white" fill-opacity="0.1"/>
<path d="M1195.65 1424.78C1200.11 1423.39 1202.92 1422.47 1205.77 1421.64C1243.52 1410.55 1279.3 1395.49 1310.5 1371.31C1325.44 1359.72 1339 1346.84 1349.13 1330.71C1355.59 1320.42 1368.61 1315.3 1380.55 1317.49C1393.85 1319.93 1402.29 1327.7 1405.06 1340.54C1407.84 1353.39 1404.87 1365.81 1392.88 1372.37C1375.78 1381.73 1358.02 1390.44 1339.6 1396.82C1294.25 1412.53 1246.95 1419.98 1199.36 1425.73C1198.77 1425.8 1198.13 1425.43 1195.65 1424.78Z" fill="white" fill-opacity="0.1"/>
<path d="M835.366 1067.02C847.003 1063.18 858.011 1059.81 868.829 1055.93C908.248 1041.83 944.599 1022.79 973.231 991.759C978.625 985.913 983.419 979.518 988.271 973.214C997.245 961.557 1008.38 956.962 1020.92 960.043C1034.3 963.331 1042.12 971.812 1044.56 985.018C1046.95 997.847 1041.69 1010.11 1028.84 1016.68C1012.49 1025.04 995.783 1033.12 978.444 1039.1C932.843 1054.88 885.278 1062.16 837.462 1067.88C837.101 1067.92 836.683 1067.57 835.366 1067.02Z" fill="white" fill-opacity="0.1"/>
<path d="M356 469.926C352.125 493.291 348.752 516.738 344.257 539.977C337.08 577.101 327.411 613.564 309.892 647.503C306.603 653.881 302.746 660.202 298.004 665.585C286.631 678.518 266.259 678.617 253.631 666.45C241.51 654.768 241.602 634.657 254.279 623.321C260.733 617.544 268.227 612.897 274.765 607.203C307.545 578.646 328.204 542.409 342.835 502.455C346.797 491.577 350.276 480.518 353.979 469.541L356 469.926Z" fill="white" fill-opacity="0.1"/>
<path d="M715.959 830.492C713.854 845.437 712.155 860.447 709.561 875.31C702.217 917.397 692.623 958.921 674.602 998.058C671.044 1005.92 666.745 1013.43 661.763 1020.51C655.075 1029.85 645.357 1035.04 633.584 1033.15C619.671 1030.92 609.566 1023.47 606.435 1009.08C603.683 996.431 608.637 985.813 619.811 977.774C648.633 957.005 671.128 930.702 686.459 899.133C696.114 879.23 703.247 858.175 711.485 837.627C712.498 835.096 713.321 832.496 714.237 829.93L715.959 830.492Z" fill="white" fill-opacity="0.1"/>
<path d="M475.197 1424.89C490.092 1419.7 505.168 1414.97 519.856 1409.26C550.712 1397.29 579.533 1381.7 603.406 1358.7C612.652 1349.8 620.366 1339.35 628.538 1329.42C638.542 1317.25 654.612 1313.51 667.984 1320.52C681.043 1327.38 688.141 1343.77 682.043 1357.62C679.062 1364.39 673.096 1371.07 666.707 1375.02C638.898 1392.18 607.857 1401.94 576.055 1408.64C544.354 1415.33 512.252 1420.08 480.313 1425.63C478.732 1425.91 477.055 1425.67 475.421 1425.67L475.197 1424.89Z" fill="white" fill-opacity="0.1"/>
<path d="M836.269 351.053C848.311 347.029 860.485 343.312 872.373 338.938C910.507 324.897 945.721 306.205 973.332 275.904C978.845 269.847 983.732 263.244 988.804 256.81C997.588 245.664 1009.5 241.173 1021.83 244.492C1034.89 248.009 1043.76 258.069 1044.87 271.552C1045.99 285.034 1039.76 294.774 1028.14 301.602C1005.16 315.114 980.218 323.932 954.585 330.873C916.605 341.158 877.824 347.475 838.752 352.156C838.055 352.174 837.358 352.128 836.669 352.018C836.559 351.689 836.431 351.373 836.269 351.053Z" fill="white" fill-opacity="0.1"/>
<path d="M1089.92 1185.35C1093.23 1195.48 1096.22 1205.73 1099.92 1215.72C1113.49 1252.37 1131.11 1286.75 1160.01 1314.32C1168.13 1322.07 1177.15 1328.94 1186.05 1335.85C1197.59 1344.83 1202 1358.99 1196.81 1372C1191.96 1384.11 1178.58 1392.17 1164.97 1390.91C1151.82 1389.7 1143.83 1381.69 1137.84 1370.88C1120.67 1339.89 1110.05 1306.59 1103.08 1272.23C1097.44 1244.42 1093.48 1216.27 1088.8 1188.25C1088.73 1187.36 1088.73 1186.46 1088.8 1185.56L1089.92 1185.35Z" fill="white" fill-opacity="0.1"/>
<path d="M1436.43 1320.57C1434.38 1313.77 1432.43 1306.94 1430.27 1300.18C1416.95 1258.55 1397.43 1220.33 1365.55 1189.21C1358.19 1182.03 1349.79 1175.82 1341.45 1169.7C1330.74 1161.83 1325.66 1151.71 1328.12 1138.79C1330.58 1125.87 1338.62 1117.59 1351.78 1114.65C1364.79 1111.76 1377.28 1116.38 1384.57 1127.63C1399.22 1150.25 1408.14 1175.34 1415.6 1200.93C1426.74 1239.1 1432.71 1278.25 1438.18 1317.49C1438.3 1318.36 1438.09 1319.27 1438.03 1320.16L1436.43 1320.57Z" fill="white" fill-opacity="0.1"/>
<path d="M1438.42 111.974C1436.5 125.288 1434.77 138.636 1432.62 151.915C1426.82 187.599 1419.97 223.131 1406.69 256.936C1400.09 273.768 1391.77 290.128 1382.48 305.709C1376.03 316.556 1364.09 319.308 1351.76 316.591C1339.09 313.795 1330.83 305.955 1328.31 293.148C1325.88 280.816 1329.46 270.09 1339.98 262.977C1369.86 242.77 1392 215.918 1407.87 184.488C1418.24 163.966 1425.35 141.856 1433.85 120.451C1434.96 117.656 1435.72 114.726 1436.65 111.862L1438.42 111.974Z" fill="white" fill-opacity="0.1"/>
<path d="M475.262 5.35229C489.462 7.34696 503.696 9.12529 517.856 11.3709C558.843 17.8612 599.399 26.2293 637.881 42.0698C648.972 46.6389 659.644 52.3633 670.022 58.356C681.47 64.9588 685.547 75.7931 683.698 88.276C681.738 101.482 673.879 110.243 660.331 113.328C647.501 116.249 636.194 112.749 628.877 102.26C601.2 62.5833 561.864 38.63 517.566 21.3053C504.392 16.1521 490.673 12.3358 477.213 7.89214C476.428 7.56029 475.672 7.16822 474.95 6.71958L475.262 5.35229Z" fill="white" fill-opacity="0.1"/>
<path d="M971.012 721.638C956.958 726.398 944.656 730.27 932.552 734.675C896.193 747.906 862.678 765.828 835.357 793.438C828.449 800.413 822.426 808.287 816.482 816.11C808.495 826.629 795.938 832.085 784.34 829.398C770.876 826.274 761.987 817.131 759.895 804.25C757.835 791.547 763.374 779.955 775.121 772.842C797.532 759.273 821.849 749.728 847.267 743.909C881.61 736.042 916.363 730.011 950.983 723.417C956.914 722.292 963.056 722.309 971.012 721.638Z" fill="white" fill-opacity="0.1"/>
<path d="M354.331 961.993C349.114 947.334 344.297 932.523 338.595 918.045C327.205 889.151 312.129 862.19 290.563 839.405C280.952 829.246 269.685 820.506 258.611 811.804C244.614 800.806 240.458 784.809 248.925 771.063C257.757 756.737 275.342 751.804 291.096 760.073C295.631 762.453 299.638 766.81 302.469 771.154C316.409 792.55 324.981 816.304 332.088 840.517C343.482 879.329 349.889 919.14 355.247 959.116C355.306 960.018 355.306 960.922 355.247 961.824L354.331 961.993Z" fill="white" fill-opacity="0.1"/>
<path d="M836.396 363.39C850.094 365.267 863.827 366.946 877.484 369.066C916.389 375.089 954.919 382.83 991.683 397.065C1004.84 402.158 1017.55 408.627 1029.87 415.511C1042.18 422.395 1047.14 434.696 1044.4 447.642C1041.64 460.722 1032.07 469.955 1018.25 471.79C1004.93 473.56 994.862 467.749 987.43 457.139C975.886 440.697 961.633 426.791 945.422 414.866C916.226 393.392 883.34 379.351 848.663 368.932C844.44 367.665 840.249 366.284 836.044 364.956L836.396 363.39Z" fill="white" fill-opacity="0.1"/>
<path d="M354.04 246.261C350.861 236.82 347.735 227.361 344.495 217.938C332.382 182.717 315.321 150.115 289.533 122.652C280.286 112.809 269.279 104.479 258.615 96.0507C247.828 87.5398 242.5 77.3112 245.657 63.7293C248.691 50.6622 257.743 43.5143 270.622 40.8879C283.166 38.3307 295.186 43.7739 302.658 55.4737C316.527 77.1727 325.21 101.1 332.325 125.538C343.495 163.891 349.875 203.205 355.22 242.687C355.297 243.817 355.297 244.95 355.22 246.079L354.04 246.261Z" fill="white" fill-opacity="0.1"/>
<path d="M115.013 351.036C129.252 346.142 143.672 341.699 157.691 336.268C196.578 321.207 231.66 300.529 258.426 268.121C261.71 264.149 264.66 259.9 267.817 255.841C275.998 245.279 286.79 241.645 299.84 244.539C312.978 247.456 320.094 256.339 322.52 268.688C325.025 281.543 320.468 292.347 309.311 299.607C287.327 313.929 262.639 322.336 237.543 329.462C198.519 340.574 158.532 347.008 118.289 352.014C117.25 352.139 116.171 351.94 115.11 351.893C115.101 351.616 115.057 351.326 115.013 351.036Z" fill="white" fill-opacity="0.1"/>
<path d="M968.753 1426.17C958.362 1424.76 947.958 1423.44 937.589 1421.91C893.018 1415.32 848.874 1406.88 806.976 1389.92C795.427 1385.25 784.309 1379.32 773.544 1373.05C762.18 1366.44 757.936 1355.62 760.062 1343.08C762.162 1330.7 769.229 1321.74 782.161 1318.42C795.163 1315.09 806.883 1318.24 814.452 1328.9C849.279 1377.94 899.869 1403.07 955.786 1420.38C959.621 1421.57 963.474 1422.72 967.3 1423.94C967.908 1424.13 968.401 1424.66 968.951 1425.04C968.89 1425.43 968.819 1425.8 968.753 1426.17Z" fill="white" fill-opacity="0.1"/>
<path d="M248.102 721.642C229.812 728.206 212.028 733.835 194.857 740.897C154.398 757.525 119.157 781.058 93.589 817.049C85.6637 828.203 73.243 832.106 60.4172 828.818C48.701 825.815 40.0051 816.517 38.3672 804.873C36.4211 791.053 41.3613 780.297 53.4738 772.759C81.6526 755.214 112.971 745.375 145.169 738.746C178.033 731.975 211.333 727.241 244.443 721.642C245.363 721.512 246.314 721.642 248.102 721.642Z" fill="white" fill-opacity="0.1"/>
<path d="M968.82 6.76013C955.201 11.3725 941.468 15.695 927.978 20.6579C893.172 33.461 861.493 51.3568 835.344 77.6943C828.436 84.6605 822.54 92.6391 816.5 100.393C807.839 111.513 795.749 116.484 783.667 113.456C770.348 110.115 761.564 100.665 759.816 87.7931C758.055 74.8126 764.021 63.5282 776.393 56.3197C803.819 40.3407 833.632 30.2072 864.545 23.743C897.65 16.82 931.166 11.7793 964.491 5.95966C965.848 5.72168 967.283 5.92938 968.683 5.92938L968.82 6.76013Z" fill="white" fill-opacity="0.1"/>
<path d="M608.226 363.684C587.326 371.58 565.958 378.581 545.493 387.62C509.086 403.707 477.71 426.423 454.656 459.19C447.383 469.531 436.807 473.56 424.276 471.504C410.323 469.22 401.931 460.553 399.223 447.201C396.749 434.973 400.289 423.572 411.362 417.406C427.345 408.506 443.944 400.202 461.142 393.967C507.857 377.028 556.791 369.512 605.999 363.68C606.74 363.626 607.485 363.627 608.226 363.684V363.684Z" fill="white" fill-opacity="0.1"/>
<path d="M729.334 114.619C735.058 130.135 740.244 145.859 746.593 161.12C760.018 193.363 778.202 222.652 804.712 246.306C810.837 251.771 817.481 256.717 824.063 261.636C835.581 270.225 840.46 282.011 837.184 294.616C833.891 307.297 824.948 314.606 812.426 316.903C798.337 319.499 787.404 313.641 779.91 301.802C764.976 278.204 755.03 252.377 748.835 225.559C740.975 191.537 735.353 157.014 728.845 122.697C728.334 120.023 728.449 117.237 728.277 114.502L729.334 114.619Z" fill="white" fill-opacity="0.1"/>
<path d="M1197.29 708.724C1206.4 705.795 1215.56 702.986 1224.61 699.914C1265.92 685.9 1303.8 666.269 1333.91 634.311C1339.69 628.184 1344.84 621.439 1349.83 614.654C1357.39 604.373 1367.55 600.047 1380.05 601.76C1392.63 603.491 1402.61 612.737 1405.05 624.614C1407.65 637.257 1404.97 649.096 1393.57 656.148C1381.18 663.877 1368.08 670.463 1354.46 675.823C1304.9 695.051 1252.72 703.328 1200.2 709.879C1199.31 709.916 1198.41 709.876 1197.53 709.758L1197.29 708.724Z" fill="white" fill-opacity="0.1"/>
<path d="M728.071 601.12C728.855 593.993 729.079 586.755 730.519 579.754C737.643 545.078 743.895 510.165 752.833 475.94C758.922 452.636 768.036 429.911 782.918 410.142C792.543 397.356 810.564 394.085 824.121 403.18C837.356 412.054 842.613 429.106 834.129 442.424C831.905 445.916 829.567 449.823 826.252 452.082C785.305 479.998 760.164 519.264 742.684 564.008C737.872 576.322 733.878 588.948 729.502 601.435L728.071 601.12Z" fill="white" fill-opacity="0.1"/>
<path d="M1089.47 468.823C1093.36 480.281 1096.8 491.288 1100.81 502.097C1118.33 549.316 1143.39 591.26 1186.49 620.773C1197.46 628.285 1200.96 639.465 1198.01 652.238C1195.05 665.011 1186.31 672.427 1173.61 674.664C1160.66 676.944 1149.66 672.847 1142.22 661.714C1129.09 642.061 1120.98 620.202 1113.97 597.928C1100.9 556.433 1093.75 513.779 1088.67 470.719C1088.62 470.368 1088.99 469.935 1089.47 468.823Z" fill="white" fill-opacity="0.1"/>
<path d="M1329.35 365.164C1321.34 367.669 1313.32 370.153 1305.31 372.675C1276 381.917 1248.38 394.777 1223.35 412.322C1205.02 425.177 1189.09 440.732 1176.39 459.285C1169.61 469.203 1159.71 473.633 1147.67 471.976C1134.51 470.159 1125.7 462.678 1121.78 450.104C1117.82 437.361 1122.76 424.576 1133.87 417.103C1163.84 396.962 1198.06 387.248 1232.78 379.793C1263.74 373.129 1295.3 369.054 1326.56 363.87C1327.38 363.736 1328.26 363.982 1329.12 364.047C1329.2 364.42 1329.27 364.792 1329.35 365.164Z" fill="white" fill-opacity="0.1"/>
<path d="M1088.43 246.859C1092.58 209.384 1098.78 173.182 1108.14 137.546C1115.33 110.187 1124.59 83.5685 1138.87 58.8666C1148.35 42.4246 1162.9 36.618 1179.42 42.6106C1190.78 46.7298 1196.93 55.1368 1198.63 66.5597C1200.26 77.4763 1197.05 87.6443 1187.86 93.8706C1139.47 126.638 1113.76 174.259 1095.95 227.237C1093.87 233.415 1092.01 239.659 1090.03 245.842C1089.98 245.994 1089.67 246.089 1088.43 246.859Z" fill="white" fill-opacity="0.1"/>
<path d="M609.13 1079.71C591.201 1085.99 574.787 1091.25 558.734 1097.48C530.731 1108.34 504.921 1123.13 482.814 1143.31C472.991 1152.28 464.291 1162.62 456.158 1173.14C447.709 1184.07 435.861 1189.76 422.991 1187.02C410.121 1184.28 401.078 1174.8 398.819 1161.63C396.811 1149.9 402.865 1137.72 414.084 1130.91C443.949 1112.74 477.046 1102.65 510.896 1095.43C541.188 1088.94 572.009 1084.86 602.605 1079.77C604.19 1079.48 605.858 1079.71 609.13 1079.71Z" fill="white" fill-opacity="0.1"/>
<path d="M5.48584 603.746C7.06209 592.029 8.36981 580.269 10.2587 568.599C16.0662 532.712 22.7542 496.943 35.4523 462.717C41.6649 445.964 49.7266 429.781 58.079 413.915C64.6834 401.389 77.6149 395.885 91.0262 398.736C103.909 401.475 112.381 409.19 115.361 422.218C118.192 434.571 113.446 446.262 101.8 454.211C66.9906 477.969 43.9632 510.832 27.4257 548.367C19.4652 566.44 13.2658 585.262 6.26517 603.75L5.48584 603.746Z" fill="white" fill-opacity="0.1"/>
<path d="M113.327 1066.95C125.347 1063.05 135.927 1059.8 146.389 1056.21C178.627 1045.16 208.765 1029.94 234.602 1008C246.979 997.487 257.008 984.199 267.413 971.595C278.081 958.679 294.971 955.265 309.28 964.127C325.941 974.446 328.006 1002.94 311.42 1013.29C296.046 1022.88 279.681 1030.85 262.6 1037.06C215.418 1054.13 166.004 1061.83 116.312 1067.86C115.898 1067.91 115.436 1067.61 113.327 1066.95Z" fill="white" fill-opacity="0.1"/>
<path d="M608.522 1068.68C586.829 1065.32 565.078 1062.26 543.447 1058.53C506.977 1052.24 471.137 1043.52 437.336 1028.31C427.306 1023.79 417.135 1018.65 408.716 1011.79C394.288 999.992 395.177 979.812 409.245 967.021C421.784 955.62 443.191 956.724 453.367 970.916C488.687 1020.17 539.488 1045.72 596.044 1062.9C599.663 1064 603.274 1065.12 606.875 1066.27C607.521 1066.51 608.153 1066.79 608.769 1067.09C608.694 1067.62 608.61 1068.15 608.522 1068.68Z" fill="white" fill-opacity="0.1"/>
<path d="M1075.73 960.752C1071.15 947.628 1067.03 934.328 1061.92 921.412C1047.47 884.985 1028.01 851.638 998.007 825.183C993.084 820.857 987.673 817.019 982.35 813.138C973.174 806.448 966.675 798.556 966.979 786.419C967.349 771.708 974.992 761.073 988.782 757.33C1003.47 753.345 1016.52 758.282 1024.32 770.799C1039.42 795.099 1049.89 821.454 1056.11 849.011C1064.1 884.431 1069.94 920.326 1076.65 956.023C1076.92 957.498 1076.68 959.051 1076.68 960.596L1075.73 960.752Z" fill="white" fill-opacity="0.1"/>
<path d="M728.119 1316.99C728.748 1310.79 729.105 1304.55 730.047 1298.38C736.004 1259.44 742.283 1220.45 755.747 1183.22C762.462 1164.66 771.215 1146.71 780.333 1129.13C787.202 1115.89 803 1110.9 817.036 1115.52C830.752 1120.03 839.187 1132.51 837.893 1146.92C837.109 1155.66 833.398 1163.15 825.904 1168.24C781.54 1198.33 756.298 1241.6 738.686 1290.17C735.45 1299.11 732.64 1308.2 729.638 1317.22L728.119 1316.99Z" fill="white" fill-opacity="0.1"/>
<path d="M1087.91 962.341C1090.93 942.745 1093.5 923.663 1096.88 904.716C1103.14 869.578 1111.21 834.847 1125.4 801.863C1130.19 790.721 1135.82 779.944 1142.24 769.624C1149.41 758.106 1162.41 753.87 1175.7 757.132C1188.73 760.33 1197.34 769.806 1198.76 783.262C1199.89 793.936 1196.64 803.763 1187.63 809.79C1141.65 840.51 1116.46 885.315 1098.58 935.19C1095.44 943.961 1092.66 952.852 1089.68 961.679C1089.65 961.813 1089.28 961.844 1087.91 962.341Z" fill="white" fill-opacity="0.1"/>
<path d="M366.572 961.713C368.205 949.667 369.544 938.715 371.19 927.807C377.716 884.673 386.517 842.067 403.671 801.607C408.021 791.343 413.445 781.465 419.05 771.79C426.399 759.108 437.274 754.323 451.804 756.382C463.133 757.992 473.352 767.321 476.02 779.129C479.036 792.542 474.849 803.549 463.397 811.511C440.435 827.464 421.908 847.423 407.123 870.84C390.638 896.94 379.199 925.185 370.407 954.552C369.874 956.334 369.376 958.13 368.773 959.891C368.646 960.241 368.113 960.458 366.572 961.713Z" fill="white" fill-opacity="0.1"/>
<path d="M248.846 5.99664C232.168 11.7383 216.608 16.5065 201.506 22.4126C165.873 36.3537 133.476 55.2966 107.688 83.8234C102.981 89.0156 98.8293 94.7357 94.5804 100.326C85.9462 111.68 73.5959 116.335 60.3915 113.094C49.142 110.317 40.1688 100.832 38.3988 89.8377C36.1049 75.5851 41.5469 64.1103 54.1437 56.6639C82.7364 39.7633 114.024 29.5173 146.328 22.7674C178.496 16.0392 211.135 11.4917 243.576 6.02693C244.853 5.81059 246.2 5.99664 248.846 5.99664Z" fill="white" fill-opacity="0.1"/>
<path d="M607.522 352.559C589.818 350.053 572.035 347.985 554.427 344.948C521.018 339.18 487.784 332.352 456.105 320.112C441.831 314.595 427.984 307.806 414.48 300.641C402.473 294.25 396.665 281.27 398.902 269.488C401.407 256.274 410.315 247.17 423.409 244.427C436.107 241.77 447.753 246.776 455.881 258.229C477.486 288.66 506.572 310.398 540.417 325.698C560.582 334.814 581.915 341.443 602.719 349.188C604.423 349.82 606.122 350.486 607.826 351.105L607.522 352.559Z" fill="white" fill-opacity="0.1"/>
<path d="M114.379 1078.62C136.324 1082.03 158.36 1084.98 180.199 1088.96C219.42 1096.12 258.008 1105.59 293.993 1123.22C299.296 1125.81 304.428 1128.73 309.359 1131.96C320.305 1139.12 324.928 1149.41 322.713 1162.08C320.64 1173.95 314 1182.58 301.808 1186.24C289.207 1190.02 278.296 1187.16 269.631 1177.47C261.829 1168.73 255.009 1159.12 246.837 1150.75C221.045 1124.36 189.185 1107.15 154.842 1094.12C141.409 1089.02 127.606 1084.88 113.97 1080.3L114.379 1078.62Z" fill="white" fill-opacity="0.1"/>
<path d="M6.79417 827.586C11.6374 841.367 16.1944 855.278 21.4163 868.903C33.4628 900.363 50.2292 929.176 73.9655 953.549C82.5777 962.393 92.6164 969.991 102.497 977.532C116.705 988.38 120.619 1006.09 111.122 1019.5C101.114 1033.64 81.7983 1038.37 68.0831 1027.65C60.1578 1021.48 54.4736 1011.69 49.8021 1002.52C29.6366 962.964 20.2451 920.184 12.8174 876.942C10.0215 860.699 7.8465 844.348 5.38525 828.049L6.79417 827.586Z" fill="white" fill-opacity="0.1"/>
<path d="M1329.04 1080.64C1317.45 1084.5 1305.8 1088.16 1294.3 1092.25C1264.48 1102.85 1236.09 1116.43 1212.2 1137.1C1199.16 1148.38 1188.12 1161.96 1176.67 1174.9C1168.43 1184.21 1158.97 1189.39 1146.16 1187.22C1134.04 1185.17 1126.08 1178.31 1122.15 1166.99C1117.19 1152.74 1122.64 1138.97 1136.63 1130.48C1157.77 1117.63 1180.9 1109.39 1204.59 1102.57C1245.14 1090.89 1286.65 1084.17 1329.04 1080.64Z" fill="white" fill-opacity="0.1"/>
<path d="M1437.43 605.119C1432.59 591.178 1428.46 578.319 1423.68 565.706C1410.39 530.624 1391.85 498.64 1364.38 472.281C1357.31 465.492 1349.29 459.569 1341.29 453.806C1330.41 445.965 1325.83 435.633 1328.16 422.825C1330.46 410.178 1338.58 401.862 1351.31 399.088C1364.42 396.233 1376.01 399.755 1383.79 411.013C1395.88 428.489 1403.46 448.064 1410.16 468.024C1424.84 511.803 1432.22 557.031 1438.04 602.588C1438.08 603.004 1437.83 603.462 1437.43 605.119Z" fill="white" fill-opacity="0.1"/>
<path d="M1077.18 245.515C1068.31 224.023 1060.1 202.467 1050.6 181.477C1035.44 147.983 1013.76 119.219 982.97 97.8094C973.372 91.1288 966.767 83.0982 967.005 70.7278C967.287 56.0814 974.768 45.8269 988.897 41.6428C1002.22 37.6924 1016.93 42.0452 1023.41 54.3248C1032.85 72.2335 1042.27 90.4884 1048.5 109.6C1057.11 135.877 1063.51 162.92 1069.35 189.967C1073.31 208.286 1074.68 227.143 1077.18 245.515Z" fill="white" fill-opacity="0.1"/>
<path d="M1328.97 350.893C1267.1 344.247 1205.82 335.281 1149.19 307.983C1143.45 305.218 1137.95 301.984 1132.76 298.313C1121.95 290.646 1118.74 279.669 1121.46 267.393C1124 255.936 1131.14 247.788 1143.2 244.872C1156.2 241.731 1167.93 244.946 1175.51 255.568C1205.63 297.828 1247.98 322.85 1296.15 339.976C1307 343.835 1318.02 347.267 1328.97 350.893Z" fill="white" fill-opacity="0.1"/>
<path d="M1197.91 720.796C1222.13 724.69 1246.49 728.018 1270.59 732.591C1307.63 739.618 1344.08 748.838 1377.92 765.942C1383.21 768.561 1388.3 771.545 1393.16 774.873C1404.22 782.614 1407.74 793.669 1405.14 806.273C1402.67 818.245 1394.81 825.956 1382.61 828.876C1369.81 831.94 1358.44 828.56 1351.04 818.133C1319.3 773.402 1273.93 748.384 1223.02 731.09C1214.58 728.221 1206.01 725.707 1197.49 723.029C1197.64 722.285 1197.79 721.54 1197.91 720.796Z" fill="white" fill-opacity="0.1"/>
<path d="M1197.65 5.67413C1208.53 7.06737 1219.45 8.22697 1230.28 9.8928C1276.7 17.0104 1322.69 25.9021 1365.97 44.7065C1375.24 48.8241 1384.2 53.5961 1392.77 58.9851C1404.05 65.9556 1408.62 80.0438 1404.69 92.8772C1400.88 105.326 1390.87 112.642 1377.39 113.469C1364.6 114.252 1355.41 109.419 1348.1 98.9131C1328.35 70.5551 1301.45 49.929 1270.31 35.3086C1248.83 25.2098 1225.96 18.0013 1203.69 9.49474C1201.58 8.68562 1199.43 7.98035 1197.3 7.22748C1197.41 6.69095 1197.53 6.1847 1197.65 5.67413Z" fill="white" fill-opacity="0.1"/>
<path d="M835.415 1078.69C856.324 1081.81 876.23 1084.37 895.977 1087.83C929.849 1093.77 963.377 1101.31 995.347 1114.12C1006.96 1118.82 1018.21 1124.33 1029.01 1130.62C1050.28 1142.91 1047.97 1166.02 1037.03 1177.97C1024.75 1191.39 1001.29 1191.43 990.675 1176.63C954.69 1126.44 902.815 1100.82 845.216 1083.56C842.495 1082.74 839.8 1081.85 837.119 1080.93C836.78 1080.81 836.59 1080.26 835.415 1078.69Z" fill="white" fill-opacity="0.1"/>
<path d="M970.219 710.224C961.678 709.242 954.708 708.714 947.835 707.597C928.462 704.447 909.089 701.341 889.835 697.706C853.198 690.783 817.442 681.082 784.283 663.689C780.734 661.824 777.177 659.942 773.839 657.752C762.414 650.245 757.663 639.579 760.19 626.426C762.717 613.272 770.986 604.818 784.547 602.196C797.756 599.669 808.394 604.298 816.024 615.003C842.512 652.171 879.061 676.068 921.369 692.341C936.964 698.355 952.744 703.85 970.219 710.224Z" fill="white" fill-opacity="0.1"/>
<path d="M366.541 244.449C369.02 227.687 371.05 210.851 374.066 194.184C381 155.896 389.058 117.841 405.327 82.0757C409.489 72.9472 414.171 64.0559 419.35 55.4441C426.302 43.8741 437.12 38.8204 450.641 40.7934C463.533 42.6712 472.291 50.0874 475.703 62.5444C479.164 75.1788 476.033 86.5929 465.136 94.2774C448.229 106.189 432.893 119.849 420.666 136.101C409.704 150.644 400.256 166.232 392.465 182.631C383.435 201.747 377.086 222.084 369.57 241.909C369.174 242.943 368.729 243.96 368.307 244.985L366.541 244.449Z" fill="white" fill-opacity="0.1"/>
<path d="M1077.5 470.284C1074.48 489.807 1071.97 509.42 1068.35 528.839C1061.3 566.699 1052.45 604.126 1035.8 639.264C1032.01 647.26 1027.76 655.153 1022.8 662.491C1015.67 673.031 1004.9 676.886 992.418 674.822C979.94 672.759 970.998 665.437 968.026 653.188C965.191 641.506 966.516 629.715 977.347 622.251C1024.42 589.8 1051.06 543.836 1068.45 491.533C1070.86 484.279 1073.28 477.024 1075.7 469.769L1077.5 470.284Z" fill="white" fill-opacity="0.1"/>
<path d="M367.188 469.093C373.792 487.062 379.098 503.228 385.649 518.886C402.724 559.675 427.266 594.952 464.497 620.922C478.305 630.549 480.929 648.683 471.881 661.975C462.758 675.388 444.143 679.49 429.732 670.568C425.329 667.842 421.459 663.502 418.694 659.084C401.844 632.197 391.646 602.55 384.901 572.011C377.821 539.993 372.991 507.468 367.219 475.159C366.985 473.84 367.188 472.442 367.188 469.093Z" fill="white" fill-opacity="0.1"/>
<path d="M477.151 708.2C479.243 707.451 481.299 706.568 483.439 705.963C521.973 695.081 558.108 679.34 589.774 654.742C604.335 643.431 617.072 630.382 627.503 615.203C635.028 604.243 645.832 599.626 658.812 601.872C672.567 604.239 680.717 612.992 683.592 626.505C686.027 637.928 681.021 650.579 670.308 657.429C652.014 669.166 631.912 677.922 610.776 683.359C581.981 690.715 552.829 696.842 523.704 702.891C508.531 706.045 493.086 707.914 477.763 710.363C477.543 709.64 477.341 708.922 477.151 708.2Z" fill="white" fill-opacity="0.1"/>
<path d="M714.139 1317.46C711.414 1309.13 708.856 1300.73 705.928 1292.47C693.23 1256.77 676.578 1223.14 649.654 1195.55C640.21 1185.87 629.246 1177.56 618.635 1169.03C606.813 1159.51 602.701 1146.36 608.037 1132.9C612.951 1120.5 625.253 1113.16 639.849 1114.16C650.711 1114.9 658.297 1120.88 663.858 1129.6C678.115 1151.93 687.845 1176.36 693.723 1201.79C702.088 1238.07 708.253 1274.85 715.297 1311.43C715.658 1313.31 715.346 1315.32 715.346 1317.27L714.139 1317.46Z" fill="white" fill-opacity="0.1"/>
<path d="M6.88669 111.642C10.682 123.281 13.8698 135.154 18.3916 146.517C32.71 182.481 50.533 216.477 79.522 243.498C86.8749 250.356 95.1657 256.275 103.223 262.372C113.852 270.415 118.281 281.921 115.151 294.347C112.148 306.246 102.25 315.467 90.023 317.063C76.5589 318.824 65.5823 314.164 58.4979 302.698C41.485 275.158 30.5922 245.091 23.9085 213.773C17.0443 181.525 11.8797 148.909 6.03695 116.449C5.76397 114.935 6.0017 113.334 6.0017 111.776L6.88669 111.642Z" fill="white" fill-opacity="0.1"/>
<path d="M113.649 363.177C127.69 365.151 141.48 366.968 155.235 369.045C195.619 375.154 235.514 383.362 273.507 398.545C286.007 403.53 298.081 409.492 309.611 416.376C319.658 422.386 323.26 432.818 322.771 444.154C322.296 454.582 317.333 462.894 307.889 468.038C293.082 476.104 278.143 472.46 267.408 459.675C256.445 446.616 245.918 432.688 232.766 422.057C217.95 410.076 201.149 399.865 183.871 391.588C161.416 380.822 137.627 372.722 113.649 363.177Z" fill="white" fill-opacity="0.1"/>
<path d="M1077.37 1185.86C1074.9 1202.38 1072.86 1218.96 1069.89 1235.39C1062.34 1277.11 1053.45 1318.51 1034.73 1357.12C1031.31 1364.28 1027.41 1371.21 1023.06 1377.86C1016.2 1388.25 1005.92 1392.39 993.635 1390.63C980.84 1388.81 971.431 1381.85 968.168 1369.35C964.989 1357.15 967.345 1346.16 977.912 1337.23C992.402 1324.99 1007.91 1313.31 1019.79 1298.86C1032.56 1283.31 1043.1 1265.5 1052.01 1247.44C1061.76 1227.68 1068.54 1206.51 1076.61 1185.94L1077.37 1185.86Z" fill="white" fill-opacity="0.1"/>
<path d="M729.44 830.372C734.596 844.603 739.461 858.929 744.965 873.043C758.05 906.55 777.463 936.185 803.291 961.531C810.441 968.549 819.375 973.772 827.111 980.253C840.971 991.867 841.812 1012.02 829.277 1024.18C816.367 1036.7 795.123 1036.41 783.878 1022.45C777.349 1014.33 771.959 1004.97 767.781 995.441C745.608 944.899 735.895 891.285 728.626 837.13C728.326 834.885 728.586 832.566 728.586 830.281L729.44 830.372Z" fill="white" fill-opacity="0.1"/>
<path d="M5.30957 1319.69C7.28649 1305.94 9.01678 1292.15 11.2887 1278.45C16.9685 1244.2 23.4629 1210.08 35.8659 1177.47C42.1401 1160.98 49.9906 1144.98 58.321 1129.37C64.965 1116.92 78.077 1111.87 91.4443 1114.48C104.569 1117.03 113.688 1126.31 115.74 1140.44C117.549 1152.88 112.42 1162.63 101.906 1169.72C82.3258 1182.93 66.0878 1199.51 52.8393 1218.72C32.2024 1248.64 17.1544 1281.93 8.40044 1317.04C8.07852 1318.08 7.69627 1319.11 7.25564 1320.12L5.30957 1319.69Z" fill="white" fill-opacity="0.1"/>
<path d="M1328.9 1068.55C1306.53 1065.04 1284.08 1061.87 1261.79 1057.93C1232.19 1052.7 1202.79 1046.12 1174.9 1035C1159.72 1028.94 1145.07 1020.98 1131.38 1012.09C1121.07 1005.4 1118.17 993.592 1121.69 982.105C1125.11 970.946 1132.88 962.941 1145.47 960.47C1158.31 957.944 1168.19 961.92 1175.71 972.252C1199.75 1005.34 1231.86 1028.53 1269.4 1044.58C1288.87 1052.9 1308.97 1059.81 1328.78 1067.36C1328.82 1067.76 1328.86 1068.16 1328.9 1068.55Z" fill="white" fill-opacity="0.1"/>
<path d="M716.002 114.457C713.857 129.601 712.131 144.823 709.49 159.889C703.365 194.789 696.021 229.482 682.869 262.573C677.3 276.592 670.127 290.083 662.691 303.276C656.469 314.305 643.701 319.463 631.676 316.931C618.864 314.236 609.816 307.144 606.615 294.116C603.581 281.771 608.16 269.643 618.996 262.253C651.45 240.113 674.222 210.102 690.57 175.388C698.896 157.712 704.84 138.956 711.85 120.679C712.669 118.542 713.408 116.352 714.183 114.215L716.002 114.457Z" fill="white" fill-opacity="0.1"/>
<path d="M247.402 710.406C232.973 708.442 218.496 706.772 204.129 704.461C167.84 698.62 131.701 691.831 97.2876 678.76C81.6053 672.831 66.4387 665.661 51.9372 657.32C36.3156 648.294 33.3304 627.171 44.1 613.247C54.2268 600.163 75.0263 597.822 87.9445 608.388C89.7868 609.848 91.4164 611.55 92.7878 613.446C121.495 654.551 162.592 678.937 208.801 696.279C221.569 701.039 234.651 704.933 247.591 709.208C247.542 709.606 247.472 710.008 247.402 710.406Z" fill="white" fill-opacity="0.1"/>
<path d="M480.449 722.006C492.804 723.577 505.299 724.477 517.491 726.861C544.182 732.079 570.903 737.336 597.264 743.926C621.423 749.963 644.633 759.205 666.253 771.397C679.317 778.753 686.089 791.21 683.922 803.675C681.523 817.521 671.753 827.473 657.738 829.571C645.357 831.441 635.023 827.032 628.058 817.024C606.708 786.368 577.988 764.444 544.125 749.092C524.188 740.045 503.345 732.945 482.924 724.949C481.911 724.551 480.96 723.984 479.982 723.495L480.449 722.006Z" fill="white" fill-opacity="0.1"/>
<path d="M714.214 601.773C712.709 597.221 711.172 592.686 709.71 588.117C696.999 548.392 679.528 511.1 650.196 480.379C640.883 470.622 630.056 462.15 619.322 453.838C603.502 441.593 601.063 421.015 614.479 407.424C630.299 391.415 654.986 397.291 666.354 417.861C693.943 467.801 703.947 522.427 712.744 577.499C714.012 585.439 714.787 593.452 715.791 601.431L714.214 601.773Z" fill="white" fill-opacity="0.1"/>
<path d="M367.853 1185.65C372.604 1199.23 377.015 1212.91 382.167 1226.33C395.081 1259.98 412.877 1290.75 439.484 1315.91C446.789 1322.84 454.895 1328.99 462.952 1335.05C474.549 1343.77 479.287 1355.08 476.09 1368.01C473.088 1380.12 463.449 1388.51 450.06 1390.62C437.886 1392.53 425.818 1386.47 418.606 1374.7C399.382 1343.37 388.895 1308.9 381.709 1273.38C376.544 1247.86 372.335 1222.12 367.809 1196.45C367.184 1192.93 367.201 1189.29 366.928 1185.71L367.853 1185.65Z" fill="white" fill-opacity="0.1"/>
<path d="M62.6758 1400.76L66.2863 1404.48L61.1084 1404.61C61.6309 1403.32 62.1533 1402.04 62.6758 1400.76Z" fill="white" fill-opacity="0.1"/>
</svg>
